<?xml version="1.0" standalone="no"?>
<!DOCTYPE svg PUBLIC "-//W3C//DTD SVG 1.1//EN" "http://www.w3.org/Graphics/SVG/1.1/DTD/svg11.dtd" >
<svg xmlns="http://www.w3.org/2000/svg">
<metadata>
This is a custom SVG webfont generated by Font Squirrel.
Copyright   : Copyright c 2007 by The Font Bureau Inc All rights reserved
Designer    : Tobias FrereJones
Foundry URL : httpwwwfontbureaucom
</metadata>
<defs>
<font id="InterstateMazdaRegular" horiz-adv-x="980" >
<font-face units-per-em="2048" ascent="1638" descent="-410" />
<missing-glyph horiz-adv-x="464" />
<glyph unicode=" "  horiz-adv-x="464" />
<glyph unicode="&#x09;" horiz-adv-x="464" />
<glyph unicode="&#xa0;" horiz-adv-x="464" />
<glyph unicode="!" horiz-adv-x="512" d="M128 110q0 26 10 50t27.5 42t40.5 28.5t50 10.5q26 0 49.5 -10.5t41.5 -28.5t28.5 -42t10.5 -50q0 -27 -10.5 -50.5t-28.5 -41t-41.5 -27.5t-49.5 -10q-27 0 -50 10t-40.5 27.5t-27.5 41t-10 50.5zM165 669v536h183v-536l-35 -321h-113z" />
<glyph unicode="&#x22;" horiz-adv-x="843" d="M123 1205h216l-43 -563h-129zM504 1205h215l-43 -563h-129z" />
<glyph unicode="#" horiz-adv-x="1066" d="M79 286v141h172v351h-172v141h172v286h158v-286h248v286h159v-286h172v-141h-172v-351h172v-141h-172v-286h-159v286h-248v-286h-158v286h-172zM406 425h254v355h-254v-355z" />
<glyph unicode="$" horiz-adv-x="1066" d="M87 153l105 139q37 -29 77.5 -53.5t83.5 -42.5t87.5 -28t89.5 -10q115 0 179 44t64 128q0 35 -13 63t-44.5 51.5t-85 45t-133.5 45.5q-103 32 -175 64.5t-117 72t-65 91.5t-20 123q0 67 22.5 120.5t64.5 93.5t100.5 64.5t130.5 34.5v175h179v-173q48 -4 90 -14t80 -25.5 t73 -36t71 -45.5l-104 -143q-37 26 -73 47t-73 34.5t-77 20.5t-85 7q-58 0 -98 -11.5t-66 -31.5t-37 -47t-11 -58q0 -32 10 -57t39.5 -47.5t82.5 -44.5t139 -48q107 -33 179 -66.5t116.5 -75t64 -94.5t19.5 -124q0 -70 -23.5 -127t-67.5 -100t-107.5 -71t-142.5 -38v-176 h-178v176q-52 6 -100.5 20t-93 33t-84.5 43.5t-73 51.5z" />
<glyph unicode="%" horiz-adv-x="1066" d="M62 890q0 165 53.5 249t133.5 84q95 0 143 -88t48 -245q0 -153 -51 -242t-140 -89q-86 0 -136.5 83.5t-50.5 247.5zM181 893q0 -109 18 -165.5t54 -56.5q34 0 50.5 56t16.5 163q0 109 -17.5 165t-53.5 56t-52 -54.5t-16 -163.5zM184 0l580 1205h119l-581 -1205h-118z M626 312q0 161 53 247t137 86q90 0 139.5 -84.5t49.5 -245.5q0 -159 -51.5 -246t-137.5 -88q-91 1 -140.5 88t-49.5 243zM747 315q0 -109 17.5 -165.5t53.5 -56.5t52 56t16 163q0 113 -18.5 167t-52.5 54q-36 0 -52 -54.5t-16 -163.5z" />
<glyph unicode="&#x26;" horiz-adv-x="1170" d="M100 308q0 56 13 103.5t42.5 90t78 82.5t119.5 80l-25 29q-30 35 -51 66t-34.5 61.5t-19.5 60.5t-6 65q0 65 23.5 116t66.5 86.5t104.5 54t137.5 18.5q57 0 111 -18t95.5 -52.5t66.5 -85t25 -116.5q0 -188 -236 -330l201 -246q26 48 47 98.5t36 101.5l163 -46 q-19 -74 -51 -149t-80 -142l189 -236h-206l-93 112q-68 -60 -152.5 -95.5t-188.5 -35.5q-95 0 -166 23.5t-117.5 66t-69.5 103t-23 134.5zM281 317q0 -36 12 -67.5t37 -54.5t63.5 -36t89.5 -13q69 0 126 25.5t102 67.5l-255 303q-88 -48 -131.5 -102.5t-43.5 -122.5z M397 949q0 -46 16.5 -77.5t45.5 -66.5l48 -60q47 27 78 52.5t49.5 50.5t26 50t7.5 51q0 62 -37.5 92.5t-95.5 30.5q-35 0 -60.5 -10t-43 -27t-26 -39t-8.5 -47z" />
<glyph unicode="'" horiz-adv-x="462" d="M118 1205h226l-43 -563h-139z" />
<glyph unicode="(" horiz-adv-x="607" d="M29 514q0 90 19.5 169t53 148t79 127.5t98.5 108.5t111 91.5t116 74.5l72 -81q-80 -62 -144 -127t-109.5 -139.5t-70 -163.5t-24.5 -197q0 -113 24.5 -202.5t70 -164.5t109.5 -139.5t144 -126.5l-72 -81q-58 34 -116 75t-111 91t-98.5 108.5t-79 125t-53 142.5t-19.5 161 z" />
<glyph unicode=")" horiz-adv-x="607" d="M29 -108q80 62 144.5 127t109.5 140t69 163.5t24 196.5q0 113 -24 202.5t-69 165t-109.5 139.5t-144.5 126l73 81q58 -33 116 -74.5t110.5 -91.5t98 -108.5t79 -125t53 -142.5t19.5 -161q0 -90 -19.5 -169t-53 -148t-79 -127.5t-98 -108.5t-110.5 -91t-116 -75z" />
<glyph unicode="*" horiz-adv-x="860" d="M128 800l215 96l-214 97l69 117l189 -140l-22 235h134l-26 -233l189 138l69 -117l-217 -97l218 -96l-68 -117l-191 136l26 -234h-134l22 236l-191 -138z" />
<glyph unicode="+" horiz-adv-x="1066" d="M112 509v166h333v349h176v-349h334v-166h-334v-349h-176v349h-333z" />
<glyph unicode="," horiz-adv-x="533" d="M130 -217l25 456h226l-129 -456h-122z" />
<glyph unicode="-" horiz-adv-x="619" d="M95 542v175h430v-175h-430z" />
<glyph unicode="." horiz-adv-x="533" d="M131 117q0 28 10.5 53t28.5 44t43 30t53 11q29 0 53.5 -11t43 -30t29 -44t10.5 -53q0 -29 -10.5 -53.5t-29 -43t-43 -29t-53.5 -10.5q-28 0 -53 10.5t-43 29t-28.5 43t-10.5 53.5z" />
<glyph unicode="/" horiz-adv-x="766" d="M28 -155l535 1514h177l-535 -1514h-177z" />
<glyph unicode="0" horiz-adv-x="1066" d="M84 602q0 151 33.5 266.5t93 194.5t142 119.5t180.5 40.5q99 0 181 -40.5t141.5 -119.5t92 -194.5t32.5 -266.5q0 -150 -33 -266t-92.5 -195t-141 -119.5t-180.5 -40.5q-98 0 -180.5 40.5t-142.5 119t-93 194.5t-33 267zM266 602q0 -111 19 -197.5t53.5 -144.5t84 -88.5 t110.5 -30.5q62 0 111.5 30t84 88.5t53 144.5t18.5 198t-19 197.5t-53.5 144.5t-83.5 89t-111 30t-111.5 -29.5t-84 -88.5t-53 -145t-18.5 -198z" />
<glyph unicode="1" horiz-adv-x="1066" d="M202 0v153h269v773h-243v120q62 3 109.5 12.5t82 28t55.5 47.5t31 71h148v-1052h246v-153h-698z" />
<glyph unicode="2" horiz-adv-x="1066" d="M89 0q7 122 38 212t84.5 161t127.5 128.5t167 114.5q74 48 121.5 83t73.5 65.5t36 60t10 66.5q0 81 -57 126.5t-167 45.5q-50 0 -92 -8.5t-78.5 -24.5t-69.5 -38.5t-65 -49.5l-103 126q40 33 84.5 61.5t94.5 49.5t108 32.5t126 11.5q87 0 160 -19.5t125 -59.5t81.5 -100 t29.5 -141q0 -66 -15.5 -116t-51 -94t-93 -86.5t-142.5 -95.5q-91 -58 -150.5 -104t-96 -86t-55 -78t-28.5 -79h644v-164h-847z" />
<glyph unicode="3" horiz-adv-x="1066" d="M72 148l114 120q60 -57 136.5 -93t171.5 -36q138 0 202 56t64 154q0 51 -18.5 88.5t-52.5 62.5t-82.5 37.5t-109.5 12.5h-101v152h100q110 0 162.5 49.5t52.5 133.5q0 39 -13 72t-40.5 57t-72 37.5t-109.5 13.5q-78 0 -141 -28t-113 -74l-105 119q29 26 67.5 51.5 t85 45.5t99.5 32t112 12q88 0 162.5 -19t129 -57.5t86 -98.5t31.5 -142q0 -53 -12.5 -94.5t-34.5 -74t-53 -57.5t-69 -43q43 -11 82.5 -33.5t69.5 -57t48 -82.5t18 -111q0 -90 -31 -159.5t-89 -117t-141.5 -71.5t-188.5 -24q-67 0 -127 12.5t-112 35t-96.5 53.5t-81.5 66z " />
<glyph unicode="4" horiz-adv-x="1066" d="M71 272v139l588 794h184v-783h150v-152h-150v-270h-163v272h-609zM268 422h412v556z" />
<glyph unicode="5" horiz-adv-x="1066" d="M103 110l93 134q68 -47 149 -76t167 -29q69 0 120.5 18.5t85 52.5t50.5 81.5t17 105.5q0 110 -62 169.5t-185 59.5q-39 0 -71.5 -5t-60.5 -15t-52.5 -24t-46.5 -32l-168 57l40 598h714v-163h-561l-24 -330q44 29 105.5 49t147.5 20q98 0 173.5 -26t126 -75t76 -119 t25.5 -157q0 -107 -33 -186.5t-93 -132t-145 -78.5t-189 -26q-119 0 -217.5 34.5t-181.5 94.5z" />
<glyph unicode="6" horiz-adv-x="1066" d="M97 458q0 80 15.5 166t50 168t90 157t135.5 133.5t185.5 95.5t240.5 45l8 -153q-228 -21 -363 -133t-185 -307q28 27 60.5 49.5t71.5 38.5t86.5 25t106.5 9q82 0 154 -22.5t125 -68t83 -115.5t30 -164q0 -98 -34 -173t-94.5 -125.5t-144 -76.5t-183.5 -26 q-93 0 -173 26.5t-139 84.5t-92.5 148.5t-33.5 217.5zM276 370q0 -51 18.5 -93.5t53 -74t84 -49t111.5 -17.5q66 0 116.5 17t85 47t52 73.5t17.5 96.5t-17 95t-50.5 72t-83.5 46t-114 16q-65 0 -115.5 -16t-86 -46t-53.5 -72t-18 -95z" />
<glyph unicode="7" horiz-adv-x="1066" d="M92 1041v164h878v-156q-96 -104 -174 -217.5t-132.5 -241.5t-84.5 -274t-32 -316h-182q3 159 31.5 301.5t79 272t122 246t161.5 221.5h-667z" />
<glyph unicode="8" horiz-adv-x="1066" d="M89 346q0 59 15.5 106.5t43.5 85t67.5 64.5t86.5 45q-36 16 -66 38.5t-52.5 53t-35 69.5t-12.5 87q0 72 27 132.5t78 103.5t125 67.5t167 24.5q95 0 168.5 -24t124 -67t77 -103t26.5 -133q0 -46 -12 -83.5t-34 -67.5t-52.5 -53.5t-68.5 -41.5q48 -17 87.5 -45t68 -65.5 t44 -85t15.5 -106.5q0 -89 -31.5 -157.5t-90 -115t-141 -70.5t-184.5 -24t-183.5 23.5t-139 69.5t-88 114.5t-30.5 157.5zM265 349q0 -49 17 -89t51 -68t84.5 -43.5t117.5 -15.5t117.5 14.5t83.5 45t48.5 68.5t15.5 85q0 48 -18 88.5t-52 69.5t-84 45.5t-114 16.5 q-66 0 -115.5 -16t-83.5 -45t-51 -68.5t-17 -87.5zM312 895q0 -39 14.5 -72t42.5 -57t69.5 -38t94.5 -14q52 0 93.5 14t70 38t43.5 56t15 69q0 36 -12.5 69t-39.5 58.5t-69.5 41t-101.5 15.5q-61 0 -103 -14.5t-68 -40t-37.5 -58t-11.5 -67.5z" />
<glyph unicode="9" horiz-adv-x="1066" d="M74 822q0 99 34 173.5t95 125t145 76.5t184 26q93 0 173 -27t138 -85t92 -148t34 -216q0 -81 -16 -166.5t-50 -168.5t-89.5 -157.5t-135 -133t-185 -96t-240.5 -44.5l-9 153q228 21 363.5 133.5t185.5 307.5q-29 -27 -61 -50t-71 -39t-86.5 -24.5t-106.5 -8.5 q-83 0 -155 22t-125.5 68t-83.5 115.5t-30 163.5zM253 834q0 -110 69.5 -169t194.5 -59q65 0 116 16t86 45t53.5 71.5t18.5 95.5q0 51 -19 94t-53 74t-84 48.5t-112 17.5q-65 0 -115.5 -16.5t-85 -47t-52 -74t-17.5 -96.5z" />
<glyph unicode=":" horiz-adv-x="533" d="M131 117q0 27 11 52t29.5 44t43 30.5t52.5 11.5t52.5 -11.5t43 -30.5t29.5 -44t11 -52q0 -28 -11 -53t-29.5 -43t-43 -29t-52.5 -11t-52.5 11t-43 29t-29.5 43t-11 53zM131 785q0 27 11 52t29.5 44t43 30t52.5 11t52.5 -11t43 -30t29.5 -44t11 -52q0 -28 -11 -53 t-29.5 -43.5t-43 -29.5t-52.5 -11t-52.5 11t-43 29.5t-29.5 43.5t-11 53z" />
<glyph unicode=";" horiz-adv-x="533" d="M130 -217l26 456h225l-128 -456h-123zM130 785q0 27 11 52t29.5 44t43.5 30t52 11q28 0 53 -11t43.5 -30t29 -44t10.5 -52q0 -28 -10.5 -53t-29 -43.5t-43.5 -29.5t-53 -11q-27 0 -52 11t-43.5 29.5t-29.5 43.5t-11 53z" />
<glyph unicode="&#x3c;" horiz-adv-x="1066" d="M139 512v166l792 481v-194l-618 -368l618 -369v-199z" />
<glyph unicode="=" horiz-adv-x="1066" d="M138 310v168h791v-168h-791zM138 706v168h791v-168h-791z" />
<glyph unicode="&#x3e;" horiz-adv-x="1066" d="M136 29v196l617 367l-617 368v199l791 -481v-166z" />
<glyph unicode="?" horiz-adv-x="981" d="M59 1046q36 37 81 69t98 56t113 38t127 14q92 0 168 -20.5t130 -61t84 -100t30 -138.5q0 -62 -14.5 -109t-42.5 -84t-69.5 -67.5t-95.5 -61.5q-42 -23 -67.5 -44t-39 -46.5t-18.5 -60t-5 -82.5h-187q0 75 9 128t33 94.5t69 77t116 74.5q33 19 57 36t39.5 37t23.5 43.5 t8 54.5q0 73 -60.5 112t-172.5 39q-87 0 -158 -32.5t-141 -101.5zM315 110q0 26 10 50t27.5 42t41 28.5t50.5 10.5q26 0 49.5 -10.5t41 -28.5t28 -42t10.5 -50q0 -27 -10.5 -50.5t-28 -41t-41 -27.5t-49.5 -10q-27 0 -50.5 10t-41 27.5t-27.5 41t-10 50.5z" />
<glyph unicode="@" horiz-adv-x="1438" d="M98 602q0 90 21 171t60 150t94.5 124.5t124.5 94.5t150 60t171 21q92 0 173.5 -22t150 -61.5t124 -95.5t94 -123.5t59 -143.5t20.5 -158q0 -97 -20 -165t-54.5 -110t-82.5 -60.5t-104 -18.5q-33 0 -61.5 7.5t-51.5 21.5t-40.5 33t-30.5 44q-31 -40 -94 -73t-126 -33 q-50 0 -97 14t-83.5 43.5t-59 74t-22.5 104.5q0 55 22.5 96t60.5 68t88 40.5t106 13.5q52 0 97 -14t73 -30v87q0 54 -41 78t-118 24q-48 0 -89 -9t-79 -33l-47 84q47 29 104.5 44t116.5 15q61 0 110.5 -12.5t84.5 -38t54 -64.5t19 -91v-289q0 -47 26.5 -75.5t87.5 -28.5 q45 0 74.5 19.5t45.5 53.5t24 75.5t8 106.5q0 102 -39.5 193.5t-109.5 160.5t-165.5 109.5t-207.5 40.5q-113 0 -208.5 -39.5t-165 -109t-108.5 -165t-39 -207.5q0 -113 39 -209t108.5 -165.5t165 -109t208.5 -39.5q58 0 112 10.5t111 39.5l42 -92q-37 -16 -69 -27.5 t-63 -18t-63.5 -9.5t-69.5 -3q-90 0 -171 21t-150 60t-124.5 95t-94.5 124.5t-60 149.5t-21 171zM525 504q0 -62 42.5 -99t123.5 -37q24 0 49 7t48 19.5t41.5 30.5t30.5 40v105q-26 19 -72.5 35t-104.5 16q-35 0 -64 -7t-51.5 -23t-32.5 -38t-10 -49z" />
<glyph unicode="A" horiz-adv-x="1224" d="M81 0l433 1205h192l438 -1205h-192l-102 286h-482l-100 -286h-187zM423 447h372l-188 537z" />
<glyph unicode="B" horiz-adv-x="1160" d="M156 0v1205h496q79 0 142.5 -21t109 -60.5t70 -97.5t24.5 -135q0 -46 -12 -83.5t-32 -67t-48 -52t-61 -38.5q35 -10 71.5 -31.5t65.5 -56t47 -82t18 -110.5q0 -184 -107.5 -277t-304.5 -93h-479zM327 165h321q61 0 102.5 14.5t67 41t37.5 63t12 81.5q0 44 -12 78 t-37.5 62t-65 43.5t-98.5 15.5h-327v-399zM327 727h323q45 0 76.5 13t51.5 34t29.5 49t9.5 58q0 34 -9 62.5t-29 50t-51.5 33.5t-77.5 12h-323v-312z" />
<glyph unicode="C" horiz-adv-x="1126" d="M100 602q0 137 35.5 251t102 196t160.5 128t211 46q147 0 247 -58t162 -167l-160 -100q-23 37 -47.5 64.5t-54 45t-65.5 26t-82 8.5q-79 0 -139.5 -30.5t-101 -88t-61.5 -139t-21 -182.5t21 -182.5t61.5 -139t101 -88t139.5 -30.5q94 0 156 38t109 112l150 -100 q-42 -68 -79.5 -103.5t-84 -63.5t-109 -46t-142.5 -18q-86 0 -154.5 22.5t-123.5 62t-100 98.5t-72 123t-43 143t-16 172z" />
<glyph unicode="D" horiz-adv-x="1168" d="M156 0v1205h330q120 0 227.5 -34.5t186.5 -107.5t125.5 -187t46.5 -274q0 -106 -21.5 -192t-60.5 -152.5t-93 -115.5t-119.5 -80.5t-139.5 -46.5t-152 -15h-330zM337 176h149q106 0 182.5 31t125.5 87t71.5 134.5t22.5 173.5t-22.5 173.5t-71.5 135t-125.5 87.5 t-182.5 31h-149v-853z" />
<glyph unicode="E" horiz-adv-x="1058" d="M156 0v1205h776v-176h-595v-298h484v-175h-484v-380h621v-176h-802z" />
<glyph unicode="F" horiz-adv-x="1001" d="M156 0v1205h776v-178h-595v-315h346v-177h-346v-535h-181z" />
<glyph unicode="G" horiz-adv-x="1166" d="M100 602q0 137 35.5 251t102 196t160.5 128t211 46q147 0 247 -58t162 -167l-158 -98q-23 37 -48 63.5t-54.5 44.5t-66 26t-82.5 8q-79 0 -139.5 -30.5t-101.5 -88t-62.5 -139t-21.5 -182.5t21.5 -182.5t62.5 -139t101.5 -88t139.5 -30.5q129 0 201.5 72.5t72.5 197.5v5 h-197v174h381v-140q0 -116 -34 -207t-94.5 -154t-144.5 -96t-185 -33q-117 0 -211 45.5t-160.5 128t-102 196.5t-35.5 251z" />
<glyph unicode="H" horiz-adv-x="1228" d="M156 0v1205h181v-488h554v488h181v-1205h-181v537h-554v-537h-181z" />
<glyph unicode="I" horiz-adv-x="510" d="M165 0v1205h181v-1205h-181z" />
<glyph unicode="J" horiz-adv-x="1037" d="M41 301l176 52q17 -45 38 -78.5t49 -58.5t68 -39.5t94 -14.5q66 0 111.5 19t75 58.5t43 101.5t13.5 148v716h181v-730q0 -243 -105.5 -368.5t-323.5 -125.5q-85 0 -152.5 21.5t-119 63t-88.5 100.5t-60 135z" />
<glyph unicode="K" horiz-adv-x="1178" d="M156 0v1205h176v-615l492 615h205l-353 -438l430 -767h-205l-345 617l-224 -269v-348h-176z" />
<glyph unicode="L" horiz-adv-x="1023" d="M156 0v1205h181v-1028h600v-177h-781z" />
<glyph unicode="M" horiz-adv-x="1390" d="M156 0v1205h187l353 -839l345 839h192v-1205h-177v832l-366 -851l-363 851v-832h-171z" />
<glyph unicode="N" horiz-adv-x="1228" d="M156 0v1205h185l555 -893v893h176v-1205h-172l-568 892v-892h-176z" />
<glyph unicode="O" horiz-adv-x="1223" d="M98 601q0 140 37.5 255t105.5 196.5t162.5 126t208.5 44.5q115 0 209.5 -44t162 -125t104.5 -195.5t37 -254.5q0 -141 -37.5 -255.5t-105.5 -196.5t-163 -126.5t-210 -44.5q-114 0 -208 44t-161.5 125t-104.5 195t-37 256zM282 604q0 -103 25 -185t69 -139.5t105 -88.5 t133 -31q71 0 131.5 30t103.5 87t67.5 139t24.5 185q0 102 -25.5 184t-70 139.5t-105 88.5t-133.5 31q-71 0 -130.5 -30t-103 -87.5t-67.5 -139t-24 -183.5z" />
<glyph unicode="P" horiz-adv-x="1123" d="M156 0v1205h504q83 0 154 -24t123 -71t81 -118t29 -165q0 -93 -29 -163.5t-82 -118t-126 -72t-162 -24.5h-315v-449h-177zM333 619h324q104 0 155.5 55.5t51.5 152.5q0 50 -15 88.5t-42 65t-65 40t-85 13.5h-324v-415z" />
<glyph unicode="Q" horiz-adv-x="1219" d="M100 602q0 137 35.5 251t102 196t160.5 128t211 46q118 0 212.5 -46t160.5 -128t102 -196t36 -251q0 -87 -15.5 -167t-48.5 -151t-61.5 -108t-60.5 -68l81 -125l-148 -93l-81 123q-40 -15 -84.5 -23.5t-92.5 -8.5q-117 0 -211 45.5t-160.5 128t-102 196.5t-35.5 251z M284 602q0 -101 21.5 -183t62.5 -140t101.5 -89.5t139.5 -31.5q45 0 81 9l-88 135l148 94l87 -138q53 57 76 144.5t23 199.5q0 101 -21.5 182.5t-62.5 139t-102.5 88t-140.5 30.5t-139.5 -30.5t-101.5 -88t-62.5 -139t-21.5 -182.5z" />
<glyph unicode="R" horiz-adv-x="1193" d="M156 0v1205h529q79 0 149 -21.5t123 -65.5t84 -112.5t31 -160.5q0 -72 -18.5 -130.5t-53 -102.5t-83 -74.5t-110.5 -45.5l246 -492h-208l-239 476h-273v-476h-177zM333 647h352q45 0 82.5 11.5t64.5 35.5t42.5 60t15.5 85q0 47 -15 83.5t-42 61.5t-64.5 37.5t-83.5 12.5 h-352v-387z" />
<glyph unicode="S" horiz-adv-x="1076" d="M89 176l129 125q31 -33 68 -59.5t77 -45t83 -28.5t86 -10q127 0 188 43.5t61 131.5q0 36 -14 63t-46 50t-84 44t-128 43q-96 29 -166.5 57.5t-117 67.5t-69.5 94t-23 136q0 78 31 140t84.5 105.5t126 66.5t155.5 23q69 -1 121.5 -12t101.5 -33.5t88.5 -50t82.5 -67.5 l-128 -129q-34 34 -62 52.5t-57.5 32t-69.5 22t-91 8.5q-53 0 -91 -12.5t-62.5 -32.5t-36 -47t-11.5 -58q0 -32 12 -56t41.5 -45.5t80.5 -42t129 -43.5q89 -27 160.5 -57t121.5 -71t76.5 -97.5t26.5 -137.5t-26 -148.5t-81 -115.5t-139 -74.5t-200 -26.5q-65 0 -126 13.5 t-115 39t-101.5 61.5t-85.5 81z" />
<glyph unicode="T" horiz-adv-x="1044" d="M81 1027v178h882v-178h-351v-1027h-180v1027h-351z" />
<glyph unicode="U" horiz-adv-x="1211" d="M148 506v699h180v-694q0 -172 70 -260.5t206 -88.5q142 0 210.5 85.5t68.5 251.5v706h180v-703q0 -126 -30 -223.5t-89 -163.5t-145.5 -100t-197.5 -34q-112 0 -197 35t-141.5 102.5t-85.5 165t-29 222.5z" />
<glyph unicode="V" horiz-adv-x="1183" d="M81 1205h196l319 -973l314 973h193l-413 -1205h-191z" />
<glyph unicode="W" horiz-adv-x="1484" d="M93 1205h183l170 -898l227 898h154l226 -898l171 898h175l-247 -1205h-182l-222 916l-231 -916h-178z" />
<glyph unicode="X" horiz-adv-x="1134" d="M95 0l373 622l-350 583h215l243 -428l245 428h211l-349 -582l374 -623h-216l-268 465l-266 -465h-212z" />
<glyph unicode="Y" horiz-adv-x="1185" d="M71 1205h211l312 -552l313 552h208l-432 -729v-476h-181v476z" />
<glyph unicode="Z" horiz-adv-x="1142" d="M103 0v176l714 861h-679v168h880v-176l-706 -862h706v-167h-915z" />
<glyph unicode="[" horiz-adv-x="653" d="M163 -189v1394h382v-147h-212v-1101h212v-146h-382z" />
<glyph unicode="\" horiz-adv-x="766" d="M28 1359h177l535 -1514h-177z" />
<glyph unicode="]" horiz-adv-x="653" d="M108 -43h212v1101h-212v147h383v-1394h-383v146z" />
<glyph unicode="^" horiz-adv-x="994" d="M81 657l347 548h138l347 -548h-197l-220 359l-220 -359h-195z" />
<glyph unicode="_" horiz-adv-x="860" d="M0 -141h860v-163h-860v163z" />
<glyph unicode="`" horiz-adv-x="860" d="M172 1299h241l184 -275h-141z" />
<glyph unicode="a" horiz-adv-x="945" d="M87 286q0 75 27.5 130t76 91t114 53.5t142.5 17.5q71 0 120 -9.5t81 -25.5v68q0 74 -43.5 113.5t-126.5 39.5q-70 0 -126 -13.5t-109 -43.5l-69 134q65 40 139 60.5t170 20.5q76 0 138.5 -18.5t107 -56t69 -94.5t24.5 -134v-619h-174v89q-34 -32 -56.5 -46.5t-47 -27.5 t-62 -23.5t-81.5 -10.5q-55 0 -111 16t-101 53t-73.5 94.5t-28.5 141.5zM256 291q0 -41 14.5 -69t36 -45.5t51.5 -26.5t72 -9q35 0 68 10t61.5 26.5t51 37t37.5 41.5v130q-25 11 -45 17.5t-42 11t-52.5 7.5t-66.5 3q-86 0 -136 -36t-50 -98z" />
<glyph unicode="b" d="M131 0v1163l176 91v-437q27 26 50 41.5t48 30t58.5 24t78.5 9.5q73 0 136.5 -27t110.5 -86t74 -151t27 -221q0 -116 -29.5 -201.5t-79 -142.5t-113.5 -84.5t-135 -27.5q-65 0 -126.5 30t-99.5 73v-84h-176zM304 263q15 -20 37.5 -41t50 -38.5t59 -28.5t65.5 -11 q96 0 146 72t50 216q0 169 -52.5 248t-150.5 79q-32 0 -61 -10t-55.5 -26t-48.5 -37t-40 -43v-380z" />
<glyph unicode="c" horiz-adv-x="897" d="M87 449q0 112 31 200.5t84.5 148.5t126 92t154.5 32q100 0 178.5 -39t141.5 -114l-105 -126q-32 32 -54.5 50t-50 32.5t-55.5 21t-60 6.5q-48 0 -87 -21t-66.5 -59.5t-43 -94t-15.5 -124.5q0 -66 14.5 -122t41.5 -96.5t67.5 -63t93.5 -22.5q32 0 58 7t50 21t47 35t50 48 l113 -111q-27 -34 -57.5 -64.5t-69 -54t-87 -37t-109.5 -13.5q-82 0 -153.5 33.5t-124 95t-83 148t-30.5 191.5z" />
<glyph unicode="d" d="M92 466q0 116 29 202t78 142.5t113 84t135 27.5q34 0 67 -8t62.5 -22.5t54 -33.5t44.5 -39v344l175 91v-1254h-175v86q-26 -23 -52.5 -42.5t-58 -34.5t-62.5 -21.5t-64 -6.5q-73 0 -136 27t-110 86t-73.5 151t-26.5 221zM268 471q0 -85 13.5 -146.5t39.5 -101.5t64 -59.5 t86 -19.5q32 0 61.5 10t55.5 26.5t48.5 37t39.5 42.5v380q-15 20 -37 41t-50 38.5t-59.5 28.5t-64.5 11q-97 0 -147 -72t-50 -216z" />
<glyph unicode="e" horiz-adv-x="953" d="M87 451q0 114 29 202.5t81 148t125.5 90t160.5 30.5q97 0 168 -36.5t118 -98t71 -144t24 -173.5q0 -25 -2 -46t-4 -35h-597q8 -66 29 -112.5t51 -76.5t68.5 -44.5t79.5 -14.5q29 0 55 5t50 15t42.5 20.5t48.5 31.5l105 -113q-34 -32 -64.5 -51.5t-66.5 -35.5t-81 -24 t-100 -8q-59 0 -110 16t-90.5 42.5t-71 60.5t-60 87.5t-44 119.5t-15.5 144zM265 535h420q-4 46 -17 87.5t-38.5 72.5t-64.5 49t-94 18q-47 0 -82 -15.5t-60.5 -44t-42 -70t-21.5 -97.5z" />
<glyph unicode="f" horiz-adv-x="622" d="M74 738v165h117v119q0 62 18 105t48.5 70.5t72.5 39.5t90 12q35 0 70 -4.5t64 -13.5v-154q-32 9 -56 13.5t-47 4.5q-18 0 -33.5 -4t-26.5 -13t-17 -26.5t-6 -45.5v-103h167v-165h-167v-738h-177v738h-117z" />
<glyph unicode="g" d="M92 466q0 116 29 202t78.5 142.5t113.5 84t134 27.5q34 0 67 -8t62 -22.5t53.5 -33.5t43.5 -39v84h177v-817q0 -94 -19 -165t-62 -123q-52 -63 -144 -95.5t-233 -35.5l-51 144q103 3 179 22.5t107 54.5q27 30 36.5 75t9.5 108v15q-25 -23 -51 -42t-55 -33t-61 -22t-68 -8 q-72 0 -135 27t-110 86t-74 151t-27 221zM268 471q0 -159 50 -243t153 -84q57 0 109 31.5t96 84.5v380q-15 20 -37 41t-50 38.5t-59.5 28.5t-64.5 11q-97 0 -147 -72t-50 -216z" />
<glyph unicode="h" d="M131 0v1161l177 93v-437q17 25 41.5 44.5t54 33t63 20.5t68.5 7q82 0 141.5 -26t100 -76.5t60.5 -129t20 -173.5v-517h-177v511q0 125 -44.5 186.5t-141.5 61.5q-41 0 -76 -13.5t-60 -45t-37.5 -73.5t-12.5 -99v-528h-177z" />
<glyph unicode="i" horiz-adv-x="456" d="M113 1134q0 24 9.5 45t25 36.5t36.5 24.5t44 9q24 0 44.5 -9t36 -24.5t25 -36.5t9.5 -45t-9.5 -44.5t-25 -36t-36 -24.5t-44.5 -9q-23 0 -44 9t-36.5 24.5t-25 36t-9.5 44.5zM139 0v903h178v-903h-178z" />
<glyph unicode="j" horiz-adv-x="456" d="M-50 -198q62 17 99.5 34.5t57.5 43t26 63t6 95.5v865h178v-862q0 -85 -13 -146.5t-47 -105.5t-94 -72.5t-153 -48.5zM113 1134q0 24 9.5 45t25 36.5t36.5 24.5t44 9q24 0 44.5 -9t36 -24.5t25 -36.5t9.5 -45t-9.5 -44.5t-25 -36t-36 -24.5t-44.5 -9q-23 0 -44 9 t-36.5 24.5t-25 36t-9.5 44.5z" />
<glyph unicode="k" horiz-adv-x="909" d="M131 0v1161l177 93v-751l286 400h201l-229 -302l271 -601h-192l-200 449l-137 -183v-266h-177z" />
<glyph unicode="l" horiz-adv-x="456" d="M139 0v1161l178 93v-1254h-178z" />
<glyph unicode="m" horiz-adv-x="1480" d="M131 0v903h177v-86q34 50 89.5 77.5t125.5 27.5q92 0 151.5 -34t96.5 -98q24 30 50.5 54.5t59 42t73.5 26.5t93 9q74 0 130 -22t97.5 -72t62 -129.5t20.5 -181.5v-517h-177v511q0 68 -11 115.5t-32 76.5t-54 42.5t-77 13.5q-47 0 -79.5 -16t-53.5 -47.5t-31 -75 t-10 -92.5v-528h-177v511q0 68 -10.5 115.5t-32 76.5t-54.5 42.5t-77 13.5q-43 0 -77 -16t-55 -47t-31 -71.5t-10 -96.5v-528h-177z" />
<glyph unicode="n" d="M131 0v903h177v-86q17 25 41.5 44.5t54 33t63 20.5t68.5 7q82 0 142 -26.5t99.5 -76t60 -125t20.5 -177.5v-517h-177v511q0 122 -44 185t-142 63q-43 0 -79 -15.5t-60.5 -47.5t-35.5 -75t-11 -93v-528h-177z" />
<glyph unicode="o" d="M87 451q0 111 31.5 198.5t85.5 148t127.5 92.5t159.5 32t159.5 -33t127.5 -94t84.5 -147t30.5 -192q0 -112 -31 -200.5t-85.5 -149.5t-129.5 -93t-161 -32t-158.5 33.5t-126 95t-84 148.5t-30.5 193zM266 456q0 -75 16.5 -132t46.5 -95.5t71.5 -58.5t91.5 -20 q51 0 91.5 23.5t69.5 64.5t45 96t16 117q0 69 -16 125t-46 95.5t-72.5 60.5t-96.5 21q-50 0 -90 -21t-68 -60t-43.5 -94t-15.5 -122z" />
<glyph unicode="p" d="M131 -332v1235h176v-86q48 46 105.5 75.5t129.5 29.5q73 0 136.5 -27t110.5 -86t74 -151t27 -221q0 -116 -29.5 -201.5t-79 -142.5t-113.5 -84.5t-135 -27.5q-59 0 -118.5 26t-107.5 77v-325zM304 263q15 -20 37.5 -41t50 -38.5t59 -28.5t65.5 -11q96 0 146 72t50 216 q0 169 -52.5 248t-150.5 79q-55 0 -108.5 -31t-96.5 -85v-380z" />
<glyph unicode="q" d="M92 466q0 116 29 202t78 142.5t113 84t135 27.5q34 0 67 -8t62.5 -22.5t54 -33.5t44.5 -39v84h175v-1144l-175 -91v418q-50 -46 -107.5 -75.5t-129.5 -29.5q-73 0 -136 27t-110 86t-73.5 151t-26.5 221zM268 471q0 -160 50.5 -243.5t152.5 -83.5q61 0 113 33t92 83v380 q-15 20 -37 41t-50 38.5t-59.5 28.5t-64.5 11q-97 0 -147 -72t-50 -216z" />
<glyph unicode="r" horiz-adv-x="719" d="M131 0v903h177v-86q15 23 37 42t48.5 33t56.5 22t64 8q55 0 91 -10t63 -27l-47 -169q-29 16 -60.5 24t-74.5 8q-85 0 -131.5 -58t-46.5 -174v-516h-177z" />
<glyph unicode="s" horiz-adv-x="858" d="M77 97l81 133q64 -44 132 -66.5t132 -22.5q84 0 124 26t40 74q0 26 -14 46t-41.5 37t-66 33.5t-87.5 34.5q-73 29 -124 56.5t-82.5 60.5t-45 73t-13.5 94q0 61 22.5 107t63.5 76.5t97.5 46.5t124.5 16q86 0 165.5 -27.5t140.5 -72.5l-78 -136q-55 40 -111.5 59t-121.5 19 q-66 0 -95 -23.5t-29 -59.5q0 -17 7 -32t25.5 -30t51 -32t83.5 -37q75 -29 132 -56t95 -60t57.5 -77.5t19.5 -108.5q0 -75 -28 -126t-75 -82.5t-108 -45t-128 -13.5q-85 0 -179.5 31.5t-166.5 84.5z" />
<glyph unicode="t" horiz-adv-x="693" d="M57 742v161h129v258l174 93v-351h223v-161h-223v-491q0 -32 5 -52.5t16.5 -33t29 -17.5t42.5 -5q34 0 70 11t60 25l-20 -156q-33 -19 -77 -30.5t-97 -11.5q-46 0 -81 13t-63.5 41t-43.5 74t-15 111v522h-129z" />
<glyph unicode="u" d="M123 386v517h178v-511q0 -124 44 -186t142 -62q89 0 137.5 60.5t48.5 170.5v528h177v-903h-177v86q-34 -47 -94.5 -76t-133.5 -29q-158 0 -240 101.5t-82 303.5z" />
<glyph unicode="v" horiz-adv-x="932" d="M57 903h186l228 -691l217 691h187l-317 -903h-177z" />
<glyph unicode="w" horiz-adv-x="1275" d="M69 903h175l152 -620l170 620h143l171 -620l151 620h175l-251 -903h-152l-168 632l-167 -632h-151z" />
<glyph unicode="x" horiz-adv-x="913" d="M69 0l284 468l-266 435h205l166 -299l164 299h204l-267 -435l286 -468h-210l-181 327l-186 -327h-199z" />
<glyph unicode="y" horiz-adv-x="956" d="M57 903h194l227 -680l234 680h188l-455 -1221h-187l131 335z" />
<glyph unicode="z" horiz-adv-x="906" d="M100 0v144l494 604h-460v155h662v-143l-484 -605h484v-155h-696z" />
<glyph unicode="{" horiz-adv-x="730" d="M105 433v153h39q29 0 48.5 7t30.5 23.5t15.5 46t4.5 74.5v111q0 188 98 276.5t299 88.5v-131q-63 -7 -105 -23t-67 -43.5t-35.5 -66.5t-10.5 -91v-80q0 -61 -7 -105.5t-22 -76.5t-40 -53t-62 -34q37 -13 62 -33.5t40 -52t22 -76t7 -104.5v-81q0 -51 10.5 -89.5 t35.5 -64.5t67 -42t105 -23v-132q-201 0 -299 87t-98 276v110q0 44 -4.5 73t-15.5 46t-30.5 23.5t-48.5 6.5h-39z" />
<glyph unicode="|" horiz-adv-x="507" d="M172 -318v1694h163v-1694h-163z" />
<glyph unicode="}" horiz-adv-x="730" d="M92 -59q63 8 105 24.5t67 44t35.5 66t10.5 89.5v81q0 61 6.5 105.5t22 76t40.5 52.5t61 34q-38 14 -62.5 34.5t-39.5 52t-21.5 76t-6.5 104.5v80q0 51 -10.5 89.5t-35.5 65t-67 42.5t-105 22v133q200 0 298.5 -88t98.5 -275v-110q0 -45 4.5 -74t15.5 -46t30 -23.5 t47 -6.5h40v-153h-40q-28 0 -47 -7t-30 -23.5t-15.5 -46t-4.5 -73.5v-111q0 -188 -98.5 -276.5t-298.5 -88.5v130z" />
<glyph unicode="~" horiz-adv-x="966" d="M72 547q24 59 50 104.5t57.5 76.5t69.5 46.5t86 15.5q26 0 47.5 -3.5t40.5 -11t37.5 -18.5t40.5 -26q49 -34 84 -51.5t57 -17.5q20 0 36 6.5t30.5 21.5t29.5 40t33 63l124 -64q-24 -60 -50 -104.5t-57.5 -75.5t-69.5 -46.5t-86 -15.5q-27 0 -48 3.5t-40 10.5t-38 18 t-40 26q-28 20 -70 44.5t-73 24.5q-21 0 -36.5 -6.5t-29.5 -21.5t-28.5 -40t-32.5 -63z" />
<glyph unicode="&#xa1;" horiz-adv-x="512" d="M128 1095q0 26 10 49.5t27.5 41t40.5 27.5t50 10q26 0 49.5 -10t41.5 -27.5t28.5 -41t10.5 -49.5q0 -27 -10.5 -50.5t-28.5 -42t-41.5 -29t-49.5 -10.5q-27 0 -50 10.5t-40.5 29t-27.5 42t-10 50.5zM165 0v535l35 322h113l35 -322v-535h-183z" />
<glyph unicode="&#xa2;" horiz-adv-x="1066" d="M112 611q0 95 28.5 174t78.5 138t118.5 97t148.5 54v161h189v-156q99 -13 170 -51t120 -92l-126 -115q-28 28 -55 49.5t-57 35t-64.5 20t-76.5 6.5q-64 0 -117.5 -21t-92.5 -61.5t-61.5 -98t-22.5 -129.5q0 -75 21 -136t60.5 -104t96 -65.5t126.5 -22.5q81 0 143 29.5 t109 82.5l112 -107q-52 -55 -120.5 -94.5t-164.5 -53.5v-170h-189v170q-88 14 -157 53t-117.5 98t-74 137t-25.5 172z" />
<glyph unicode="&#xa3;" horiz-adv-x="1066" d="M143 0v143q36 39 65 76.5t50 78.5t32.5 87.5t13.5 103.5h-160v146h140q-9 24 -22 47.5t-28 49.5q-14 23 -25 44.5t-18 44t-10.5 46.5t-3.5 54q0 71 29 127.5t81 95t125 59t161 20.5q117 0 211.5 -40t175.5 -116l-103 -126q-65 64 -135.5 94t-151.5 30q-54 0 -93.5 -12 t-66 -33t-39.5 -49.5t-13 -60.5q0 -36 11.5 -70t34.5 -73q17 -27 33 -60.5t26 -71.5h254v-146h-242q-3 -56 -14.5 -103.5t-28.5 -88.5t-39 -76t-45 -65h615v-156h-820z" />
<glyph unicode="&#xa5;" horiz-adv-x="1066" d="M43 1205h210l282 -568l282 568h207l-402 -737v-107h279v-151h-279v-210h-178v210h-277v151h277v104z" />
<glyph unicode="&#xa8;" horiz-adv-x="860" d="M146 1139q0 24 9.5 45t25.5 37t37 25.5t45 9.5q23 0 44 -9.5t37 -25.5t25.5 -37t9.5 -45q0 -23 -9.5 -44t-25.5 -37t-37 -25t-44 -9q-24 0 -45 9t-37 25t-25.5 37t-9.5 44zM481 1139q0 24 9.5 45t26 37t37.5 25.5t45 9.5q23 0 44 -9.5t37 -25.5t25 -37t9 -45 q0 -23 -9 -44t-25 -37t-37 -25t-44 -9q-24 0 -45 9t-37.5 25t-26 37t-9.5 44z" />
<glyph unicode="&#xa9;" horiz-adv-x="1438" d="M98 602q0 133 47.5 246.5t131 197t198 130.5t244.5 47q131 0 245.5 -47t197.5 -130.5t130.5 -197t47.5 -246.5q0 -132 -47.5 -245.5t-130.5 -197t-196.5 -131t-246.5 -47.5t-246 47.5t-196.5 131t-131 197t-47.5 245.5zM198 602q0 -111 40 -206t109.5 -165.5t165 -110 t206.5 -39.5t206.5 39.5t165.5 110t110 165.5t40 206t-40 206.5t-110 165t-165.5 109.5t-206.5 40t-206.5 -40t-165 -109.5t-109.5 -165t-40 -206.5zM437 606q0 77 20.5 141t58 110.5t90.5 72t118 25.5q84 0 141 -33.5t95 -100.5l-102 -64q-26 43 -55.5 62.5t-78.5 19.5 q-42 0 -73.5 -16.5t-52.5 -46.5t-31.5 -73.5t-10.5 -96.5q0 -54 10.5 -97.5t31.5 -74.5t52.5 -47.5t73.5 -16.5q50 0 82 22t61 67l96 -65q-40 -69 -100.5 -104t-138.5 -35q-65 0 -118 25.5t-90.5 72t-58 111t-20.5 142.5z" />
<glyph unicode="&#xab;" horiz-adv-x="1011" d="M51 451l319 452h191l-310 -450l310 -453h-191zM433 451l319 452h190l-309 -450l309 -453h-190z" />
<glyph unicode="&#xad;" horiz-adv-x="619" d="M95 542v175h430v-175h-430z" />
<glyph unicode="&#xae;" horiz-adv-x="1438" d="M98 602q0 133 47.5 246.5t131 197t198 130.5t244.5 47q131 0 245.5 -47t197.5 -130.5t130.5 -197t47.5 -246.5q0 -132 -47.5 -245.5t-130.5 -197t-196.5 -131t-246.5 -47.5t-246 47.5t-196.5 131t-131 197t-47.5 245.5zM198 602q0 -111 40 -206t109.5 -165.5t165 -110 t206.5 -39.5t206.5 39.5t165.5 110t110 165.5t40 206t-40 206.5t-110 165t-165.5 109.5t-206.5 40t-206.5 -40t-165 -109.5t-109.5 -165t-40 -206.5zM483 276v677h298q46 0 86 -12t70.5 -37t48 -64t17.5 -92q0 -80 -39.5 -130t-105.5 -69l140 -273h-136l-133 261h-130v-261 h-116zM599 648h179q46 0 77 23.5t31 73.5q0 48 -31 72t-77 24h-179v-193z" />
<glyph unicode="&#xaf;" horiz-adv-x="860" d="M189 1049v156h482v-156h-482z" />
<glyph unicode="&#x2c9;" horiz-adv-x="860" d="M189 1049v156h482v-156h-482z" />
<glyph unicode="&#xb4;" horiz-adv-x="860" d="M263 1024l184 275h241l-284 -275h-141z" />
<glyph unicode="&#xb8;" horiz-adv-x="860" d="M223 -270l38 57q75 -42 151 -42q58 0 84 19t26 49q0 26 -15 40t-39 14q-42 0 -69 -25l-62 24l31 155h88l-18 -98q16 6 35 10.5t48 4.5q22 0 44 -7t39.5 -21.5t29 -37t11.5 -54.5q0 -41 -16.5 -69.5t-45.5 -46.5t-67 -26t-81 -8q-62 0 -113.5 16t-98.5 46z" />
<glyph unicode="&#xbb;" horiz-adv-x="1011" d="M69 0l310 451l-310 452h191l318 -450l-318 -453h-191zM451 0l309 451l-309 452h191l318 -450l-318 -453h-191z" />
<glyph unicode="&#xbf;" horiz-adv-x="981" d="M93 301q0 63 14.5 109.5t42.5 83.5t69 67.5t96 60.5q42 24 67 45t39 46.5t18.5 59.5t4.5 84h188q0 -76 -7 -117t-15.5 -65t-25 -50.5t-38 -46t-46.5 -38t-96 -59.5q-33 -17 -57 -34.5t-39.5 -37t-23 -43t-7.5 -54.5q0 -73 60 -112.5t172 -39.5q48 0 88.5 9t77 26.5 t69 42.5t65.5 56l115 -136q-37 -37 -82 -69t-98 -56.5t-113 -38t-127 -13.5q-92 0 -167.5 20.5t-129.5 60.5t-84 100.5t-30 138.5zM409 1095q0 26 10 49.5t28 41t41.5 27.5t49.5 10t50 -10t41.5 -27.5t28 -41t10.5 -49.5q0 -27 -10.5 -50.5t-28 -42t-41.5 -29t-50 -10.5 t-49.5 10.5t-41.5 29t-28 42t-10 50.5z" />
<glyph unicode="&#xc0;" horiz-adv-x="1224" d="M81 0l433 1205h192l438 -1205h-192l-102 286h-482l-100 -286h-187zM423 447h372l-188 537zM289 1557h241l184 -275h-141z" />
<glyph unicode="&#xc1;" horiz-adv-x="1224" d="M81 0l433 1205h192l438 -1205h-192l-102 286h-482l-100 -286h-187zM423 447h372l-188 537zM501 1282l184 275h241l-284 -275h-141z" />
<glyph unicode="&#xc2;" horiz-adv-x="1224" d="M81 0l433 1205h192l438 -1205h-192l-102 286h-482l-100 -286h-187zM423 447h372l-188 537zM305 1263l201 275h206l201 -275h-142l-164 151l-163 -151h-139z" />
<glyph unicode="&#xc3;" horiz-adv-x="1224" d="M81 0l433 1205h192l438 -1205h-192l-102 286h-482l-100 -286h-187zM423 447h372l-188 537zM279 1282q0 57 14 100.5t38 73t57 44.5t72 15q24 0 46.5 -4t46 -13t50 -23t60.5 -35q18 -10 35.5 -17t31.5 -7q29 0 45 21t22 73h122q0 -57 -14 -101t-37.5 -73.5t-57 -44.5 t-71.5 -15q-25 0 -47 4t-45.5 13.5t-50.5 24t-61 35.5q-17 10 -35 16.5t-32 6.5q-28 0 -44 -20.5t-22 -73.5h-123z" />
<glyph unicode="&#xc4;" horiz-adv-x="1224" d="M81 0l433 1205h192l438 -1205h-192l-102 286h-482l-100 -286h-187zM423 447h372l-188 537zM322 1397q0 24 9.5 45t25.5 37t37 25.5t45 9.5q23 0 44 -9.5t37 -25.5t25.5 -37t9.5 -45q0 -23 -9.5 -44t-25.5 -37t-37 -25t-44 -9q-24 0 -45 9t-37 25t-25.5 37t-9.5 44z M657 1397q0 24 9.5 45t26 37t37.5 25.5t45 9.5q23 0 44 -9.5t37 -25.5t25 -37t9 -45q0 -23 -9 -44t-25 -37t-37 -25t-44 -9q-24 0 -45 9t-37.5 25t-26 37t-9.5 44z" />
<glyph unicode="&#xc5;" horiz-adv-x="1224" d="M81 0l402 1118q-41 29 -66 75.5t-25 103.5q0 46 16.5 86t45.5 69t69 45.5t86 16.5t86 -16.5t69 -45.5t45.5 -69t16.5 -86q0 -57 -24 -103t-65 -74l407 -1120h-192l-102 286h-482l-100 -286h-187zM423 447h372l-188 537zM504 1297q0 -23 8 -42t22 -33t33 -22t42 -8t42 8 t33 22t22 33t8 42t-8 42t-22 33t-33 22t-42 8t-42 -8t-33 -22t-22 -33t-8 -42z" />
<glyph unicode="&#xc6;" horiz-adv-x="1751" d="M24 0l808 1205h793v-176h-594v-298h481v-175h-481v-380h620v-176h-794v282h-446l-186 -282h-201zM522 449h335v507z" />
<glyph unicode="&#xc7;" horiz-adv-x="1126" d="M100 602q0 137 35.5 251t102 196t160.5 128t211 46q147 0 247 -58t162 -167l-160 -100q-23 37 -47.5 64.5t-54 45t-65.5 26t-82 8.5q-79 0 -139.5 -30.5t-101 -88t-61.5 -139t-21 -182.5t21 -182.5t61.5 -139t101 -88t139.5 -30.5q94 0 156 38t109 112l150 -100 q-42 -68 -79.5 -103.5t-84 -63.5t-109 -46t-142.5 -18q-86 0 -154.5 22.5t-123.5 62t-100 98.5t-72 123t-43 143t-16 172zM396 -270l38 57q75 -42 151 -42q58 0 84 19t26 49q0 26 -15 40t-39 14q-42 0 -69 -25l-62 24l31 155h88l-18 -98q16 6 35 10.5t48 4.5q22 0 44 -7 t39.5 -21.5t29 -37t11.5 -54.5q0 -41 -16.5 -69.5t-45.5 -46.5t-67 -26t-81 -8q-62 0 -113.5 16t-98.5 46z" />
<glyph unicode="&#xc8;" horiz-adv-x="1058" d="M156 0v1205h776v-176h-595v-298h484v-175h-484v-380h621v-176h-802zM218 1557h241l184 -275h-141z" />
<glyph unicode="&#xc9;" horiz-adv-x="1058" d="M156 0v1205h776v-176h-595v-298h484v-175h-484v-380h621v-176h-802zM430 1282l184 275h241l-284 -275h-141z" />
<glyph unicode="&#xca;" horiz-adv-x="1058" d="M156 0v1205h776v-176h-595v-298h484v-175h-484v-380h621v-176h-802zM231 1282l201 275h206l201 -275h-142l-164 151l-163 -151h-139z" />
<glyph unicode="&#xcb;" horiz-adv-x="1058" d="M156 0v1205h776v-176h-595v-298h484v-175h-484v-380h621v-176h-802zM251 1397q0 24 9.5 45t25.5 37t37 25.5t45 9.5q23 0 44 -9.5t37 -25.5t25.5 -37t9.5 -45q0 -23 -9.5 -44t-25.5 -37t-37 -25t-44 -9q-24 0 -45 9t-37 25t-25.5 37t-9.5 44zM586 1397q0 24 9.5 45t26 37 t37.5 25.5t45 9.5q23 0 44 -9.5t37 -25.5t25 -37t9 -45q0 -23 -9 -44t-25 -37t-37 -25t-44 -9q-24 0 -45 9t-37.5 25t-26 37t-9.5 44z" />
<glyph unicode="&#xcc;" horiz-adv-x="510" d="M165 0v1205h181v-1205h-181zM-76 1557h241l184 -275h-141z" />
<glyph unicode="&#xcd;" horiz-adv-x="510" d="M165 0v1205h181v-1205h-181zM170 1282l184 275h241l-284 -275h-141z" />
<glyph unicode="&#xce;" horiz-adv-x="510" d="M165 0v1205h181v-1205h-181zM-46 1270l201 275h206l201 -275h-142l-164 151l-163 -151h-139z" />
<glyph unicode="&#xcf;" horiz-adv-x="510" d="M165 0v1205h181v-1205h-181zM-26 1397q0 24 9.5 45t25.5 37t37 25.5t45 9.5q23 0 44 -9.5t37 -25.5t25.5 -37t9.5 -45q0 -23 -9.5 -44t-25.5 -37t-37 -25t-44 -9q-24 0 -45 9t-37 25t-25.5 37t-9.5 44zM309 1397q0 24 9.5 45t26 37t37.5 25.5t45 9.5q23 0 44 -9.5 t37 -25.5t25 -37t9 -45q0 -23 -9 -44t-25 -37t-37 -25t-44 -9q-24 0 -45 9t-37.5 25t-26 37t-9.5 44z" />
<glyph unicode="&#xd1;" horiz-adv-x="1228" d="M156 0v1205h185l555 -893v893h176v-1205h-172l-568 892v-892h-176zM306 1285q0 57 14 100.5t38 73t57 44.5t72 15q24 0 46.5 -4t46 -13t50 -23t60.5 -35q18 -10 35.5 -17t31.5 -7q29 0 45 21t22 73h122q0 -57 -14 -101t-37.5 -73.5t-57 -44.5t-71.5 -15q-25 0 -47 4 t-45.5 13.5t-50.5 24t-61 35.5q-17 10 -35 16.5t-32 6.5q-28 0 -44 -20.5t-22 -73.5h-123z" />
<glyph unicode="&#xd2;" horiz-adv-x="1223" d="M98 601q0 140 37.5 255t105.5 196.5t162.5 126t208.5 44.5q115 0 209.5 -44t162 -125t104.5 -195.5t37 -254.5q0 -141 -37.5 -255.5t-105.5 -196.5t-163 -126.5t-210 -44.5q-114 0 -208 44t-161.5 125t-104.5 195t-37 256zM282 604q0 -103 25 -185t69 -139.5t105 -88.5 t133 -31q71 0 131.5 30t103.5 87t67.5 139t24.5 185q0 102 -25.5 184t-70 139.5t-105 88.5t-133.5 31q-71 0 -130.5 -30t-103 -87.5t-67.5 -139t-24 -183.5zM296 1557h241l184 -275h-141z" />
<glyph unicode="&#xd3;" horiz-adv-x="1223" d="M98 601q0 140 37.5 255t105.5 196.5t162.5 126t208.5 44.5q115 0 209.5 -44t162 -125t104.5 -195.5t37 -254.5q0 -141 -37.5 -255.5t-105.5 -196.5t-163 -126.5t-210 -44.5q-114 0 -208 44t-161.5 125t-104.5 195t-37 256zM282 604q0 -103 25 -185t69 -139.5t105 -88.5 t133 -31q71 0 131.5 30t103.5 87t67.5 139t24.5 185q0 102 -25.5 184t-70 139.5t-105 88.5t-133.5 31q-71 0 -130.5 -30t-103 -87.5t-67.5 -139t-24 -183.5zM497 1282l184 275h241l-284 -275h-141z" />
<glyph unicode="&#xd4;" horiz-adv-x="1223" d="M98 601q0 140 37.5 255t105.5 196.5t162.5 126t208.5 44.5q115 0 209.5 -44t162 -125t104.5 -195.5t37 -254.5q0 -141 -37.5 -255.5t-105.5 -196.5t-163 -126.5t-210 -44.5q-114 0 -208 44t-161.5 125t-104.5 195t-37 256zM282 604q0 -103 25 -185t69 -139.5t105 -88.5 t133 -31q71 0 131.5 30t103.5 87t67.5 139t24.5 185q0 102 -25.5 184t-70 139.5t-105 88.5t-133.5 31q-71 0 -130.5 -30t-103 -87.5t-67.5 -139t-24 -183.5zM298 1273l201 275h206l201 -275h-142l-164 151l-163 -151h-139z" />
<glyph unicode="&#xd5;" horiz-adv-x="1223" d="M98 601q0 140 37.5 255t105.5 196.5t162.5 126t208.5 44.5q115 0 209.5 -44t162 -125t104.5 -195.5t37 -254.5q0 -141 -37.5 -255.5t-105.5 -196.5t-163 -126.5t-210 -44.5q-114 0 -208 44t-161.5 125t-104.5 195t-37 256zM282 604q0 -103 25 -185t69 -139.5t105 -88.5 t133 -31q71 0 131.5 30t103.5 87t67.5 139t24.5 185q0 102 -25.5 184t-70 139.5t-105 88.5t-133.5 31q-71 0 -130.5 -30t-103 -87.5t-67.5 -139t-24 -183.5zM273 1282q0 57 14 100.5t38 73t57 44.5t72 15q24 0 46.5 -4t46 -13t50 -23t60.5 -35q18 -10 35.5 -17t31.5 -7 q29 0 45 21t22 73h122q0 -57 -14 -101t-37.5 -73.5t-57 -44.5t-71.5 -15q-25 0 -47 4t-45.5 13.5t-50.5 24t-61 35.5q-17 10 -35 16.5t-32 6.5q-28 0 -44 -20.5t-22 -73.5h-123z" />
<glyph unicode="&#xd6;" horiz-adv-x="1223" d="M98 601q0 140 37.5 255t105.5 196.5t162.5 126t208.5 44.5q115 0 209.5 -44t162 -125t104.5 -195.5t37 -254.5q0 -141 -37.5 -255.5t-105.5 -196.5t-163 -126.5t-210 -44.5q-114 0 -208 44t-161.5 125t-104.5 195t-37 256zM282 604q0 -103 25 -185t69 -139.5t105 -88.5 t133 -31q71 0 131.5 30t103.5 87t67.5 139t24.5 185q0 102 -25.5 184t-70 139.5t-105 88.5t-133.5 31q-71 0 -130.5 -30t-103 -87.5t-67.5 -139t-24 -183.5zM318 1397q0 24 9.5 45t25.5 37t37 25.5t45 9.5q23 0 44 -9.5t37 -25.5t25.5 -37t9.5 -45q0 -23 -9.5 -44t-25.5 -37 t-37 -25t-44 -9q-24 0 -45 9t-37 25t-25.5 37t-9.5 44zM653 1397q0 24 9.5 45t26 37t37.5 25.5t45 9.5q23 0 44 -9.5t37 -25.5t25 -37t9 -45q0 -23 -9 -44t-25 -37t-37 -25t-44 -9q-24 0 -45 9t-37.5 25t-26 37t-9.5 44z" />
<glyph unicode="&#xd8;" horiz-adv-x="1223" d="M100 602q0 137 35.5 251t102 196t160.5 128t211 46q96 0 176 -31l44 98h169l-81 -175q48 -41 86 -95t64 -119t39.5 -140.5t13.5 -158.5q0 -137 -36 -251t-102 -196.5t-160.5 -128t-212.5 -45.5q-102 0 -191 36l-47 -103h-168l84 186q-89 83 -138 211.5t-49 290.5z M284 602q0 -111 19.5 -191t62.5 -137l348 762q-45 13 -105 13q-79 0 -139.5 -32t-101.5 -90t-62.5 -141t-21.5 -184zM489 174q45 -19 120 -19q79 0 140.5 31.5t102.5 90t62.5 141.5t21.5 184q0 115 -23 200.5t-72 143.5z" />
<glyph unicode="&#xd9;" horiz-adv-x="1211" d="M148 506v699h180v-694q0 -172 70 -260.5t206 -88.5q142 0 210.5 85.5t68.5 251.5v706h180v-703q0 -126 -30 -223.5t-89 -163.5t-145.5 -100t-197.5 -34q-112 0 -197 35t-141.5 102.5t-85.5 165t-29 222.5zM289 1531h241l184 -275h-141z" />
<glyph unicode="&#xda;" horiz-adv-x="1211" d="M148 506v699h180v-694q0 -172 70 -260.5t206 -88.5q142 0 210.5 85.5t68.5 251.5v706h180v-703q0 -126 -30 -223.5t-89 -163.5t-145.5 -100t-197.5 -34q-112 0 -197 35t-141.5 102.5t-85.5 165t-29 222.5zM501 1256l184 275h241l-284 -275h-141z" />
<glyph unicode="&#xdb;" horiz-adv-x="1211" d="M148 506v699h180v-694q0 -172 70 -260.5t206 -88.5q142 0 210.5 85.5t68.5 251.5v706h180v-703q0 -126 -30 -223.5t-89 -163.5t-145.5 -100t-197.5 -34q-112 0 -197 35t-141.5 102.5t-85.5 165t-29 222.5zM302 1282l201 275h206l201 -275h-142l-164 151l-163 -151h-139z " />
<glyph unicode="&#xdc;" horiz-adv-x="1211" d="M148 506v699h180v-694q0 -172 70 -260.5t206 -88.5q142 0 210.5 85.5t68.5 251.5v706h180v-703q0 -126 -30 -223.5t-89 -163.5t-145.5 -100t-197.5 -34q-112 0 -197 35t-141.5 102.5t-85.5 165t-29 222.5zM322 1397q0 24 9.5 45t25.5 37t37 25.5t45 9.5q23 0 44 -9.5 t37 -25.5t25.5 -37t9.5 -45q0 -23 -9.5 -44t-25.5 -37t-37 -25t-44 -9q-24 0 -45 9t-37 25t-25.5 37t-9.5 44zM657 1397q0 24 9.5 45t26 37t37.5 25.5t45 9.5q23 0 44 -9.5t37 -25.5t25 -37t9 -45q0 -23 -9 -44t-25 -37t-37 -25t-44 -9q-24 0 -45 9t-37.5 25t-26 37t-9.5 44 z" />
<glyph unicode="&#xdd;" horiz-adv-x="1185" d="M71 1205h211l312 -552l313 552h208l-432 -729v-476h-181v476zM488 1256l184 275h241l-284 -275h-141z" />
<glyph unicode="&#xdf;" horiz-adv-x="999" d="M131 -332v1228q0 92 25 158.5t70 110t108.5 64t140.5 20.5q73 0 136 -22t109 -63t72.5 -100t26.5 -133q0 -95 -41.5 -155t-111.5 -85q43 -9 86.5 -29.5t79 -56.5t57.5 -89t22 -127q0 -103 -30 -176.5t-87 -121t-139.5 -69.5t-186.5 -22h-21v162h31q58 0 105 12t80 38.5 t51 67.5t18 99q0 56 -21 98t-57 69.5t-84.5 41t-103.5 13.5h-19v159h26q76 0 121.5 44t45.5 122q0 74 -45 116.5t-124 42.5t-121 -48t-42 -134v-1141z" />
<glyph unicode="&#xe0;" horiz-adv-x="945" d="M87 286q0 75 27.5 130t76 91t114 53.5t142.5 17.5q71 0 120 -9.5t81 -25.5v68q0 74 -43.5 113.5t-126.5 39.5q-70 0 -126 -13.5t-109 -43.5l-69 134q65 40 139 60.5t170 20.5q76 0 138.5 -18.5t107 -56t69 -94.5t24.5 -134v-619h-174v89q-34 -32 -56.5 -46.5t-47 -27.5 t-62 -23.5t-81.5 -10.5q-55 0 -111 16t-101 53t-73.5 94.5t-28.5 141.5zM256 291q0 -41 14.5 -69t36 -45.5t51.5 -26.5t72 -9q35 0 68 10t61.5 26.5t51 37t37.5 41.5v130q-25 11 -45 17.5t-42 11t-52.5 7.5t-66.5 3q-86 0 -136 -36t-50 -98zM164 1299h241l184 -275h-141z " />
<glyph unicode="&#xe1;" horiz-adv-x="945" d="M87 286q0 75 27.5 130t76 91t114 53.5t142.5 17.5q71 0 120 -9.5t81 -25.5v68q0 74 -43.5 113.5t-126.5 39.5q-70 0 -126 -13.5t-109 -43.5l-69 134q65 40 139 60.5t170 20.5q76 0 138.5 -18.5t107 -56t69 -94.5t24.5 -134v-619h-174v89q-34 -32 -56.5 -46.5t-47 -27.5 t-62 -23.5t-81.5 -10.5q-55 0 -111 16t-101 53t-73.5 94.5t-28.5 141.5zM256 291q0 -41 14.5 -69t36 -45.5t51.5 -26.5t72 -9q35 0 68 10t61.5 26.5t51 37t37.5 41.5v130q-25 11 -45 17.5t-42 11t-52.5 7.5t-66.5 3q-86 0 -136 -36t-50 -98zM373 1024l184 275h241l-284 -275 h-141z" />
<glyph unicode="&#xe2;" horiz-adv-x="945" d="M87 286q0 75 27.5 130t76 91t114 53.5t142.5 17.5q71 0 120 -9.5t81 -25.5v68q0 74 -43.5 113.5t-126.5 39.5q-70 0 -126 -13.5t-109 -43.5l-69 134q65 40 139 60.5t170 20.5q76 0 138.5 -18.5t107 -56t69 -94.5t24.5 -134v-619h-174v89q-34 -32 -56.5 -46.5t-47 -27.5 t-62 -23.5t-81.5 -10.5q-55 0 -111 16t-101 53t-73.5 94.5t-28.5 141.5zM256 291q0 -41 14.5 -69t36 -45.5t51.5 -26.5t72 -9q35 0 68 10t61.5 26.5t51 37t37.5 41.5v130q-25 11 -45 17.5t-42 11t-52.5 7.5t-66.5 3q-86 0 -136 -36t-50 -98zM174 1017l201 275h206l201 -275 h-142l-164 151l-163 -151h-139z" />
<glyph unicode="&#xe3;" horiz-adv-x="945" d="M87 286q0 75 27.5 130t76 91t114 53.5t142.5 17.5q71 0 120 -9.5t81 -25.5v68q0 74 -43.5 113.5t-126.5 39.5q-70 0 -126 -13.5t-109 -43.5l-69 134q65 40 139 60.5t170 20.5q76 0 138.5 -18.5t107 -56t69 -94.5t24.5 -134v-619h-174v89q-34 -32 -56.5 -46.5t-47 -27.5 t-62 -23.5t-81.5 -10.5q-55 0 -111 16t-101 53t-73.5 94.5t-28.5 141.5zM256 291q0 -41 14.5 -69t36 -45.5t51.5 -26.5t72 -9q35 0 68 10t61.5 26.5t51 37t37.5 41.5v130q-25 11 -45 17.5t-42 11t-52.5 7.5t-66.5 3q-86 0 -136 -36t-50 -98zM149 1024q0 57 14 100.5t38 73 t57 44.5t72 15q24 0 46.5 -4t46 -13t50 -23t60.5 -35q18 -10 35.5 -17t31.5 -7q29 0 45 21t22 73h122q0 -57 -14 -101t-37.5 -73.5t-57 -44.5t-71.5 -15q-25 0 -47 4t-45.5 13.5t-50.5 24t-61 35.5q-17 10 -35 16.5t-32 6.5q-28 0 -44 -20.5t-22 -73.5h-123z" />
<glyph unicode="&#xe4;" horiz-adv-x="945" d="M87 286q0 75 27.5 130t76 91t114 53.5t142.5 17.5q71 0 120 -9.5t81 -25.5v68q0 74 -43.5 113.5t-126.5 39.5q-70 0 -126 -13.5t-109 -43.5l-69 134q65 40 139 60.5t170 20.5q76 0 138.5 -18.5t107 -56t69 -94.5t24.5 -134v-619h-174v89q-34 -32 -56.5 -46.5t-47 -27.5 t-62 -23.5t-81.5 -10.5q-55 0 -111 16t-101 53t-73.5 94.5t-28.5 141.5zM256 291q0 -41 14.5 -69t36 -45.5t51.5 -26.5t72 -9q35 0 68 10t61.5 26.5t51 37t37.5 41.5v130q-25 11 -45 17.5t-42 11t-52.5 7.5t-66.5 3q-86 0 -136 -36t-50 -98zM194 1132q0 24 9.5 45t25.5 37 t37 25.5t45 9.5q23 0 44 -9.5t37 -25.5t25.5 -37t9.5 -45q0 -23 -9.5 -44t-25.5 -37t-37 -25t-44 -9q-24 0 -45 9t-37 25t-25.5 37t-9.5 44zM529 1132q0 24 9.5 45t26 37t37.5 25.5t45 9.5q23 0 44 -9.5t37 -25.5t25 -37t9 -45q0 -23 -9 -44t-25 -37t-37 -25t-44 -9 q-24 0 -45 9t-37.5 25t-26 37t-9.5 44z" />
<glyph unicode="&#xe5;" horiz-adv-x="945" d="M87 286q0 75 27.5 130t76 91t114 53.5t142.5 17.5q71 0 120 -9.5t81 -25.5v68q0 74 -43.5 113.5t-126.5 39.5q-70 0 -126 -13.5t-109 -43.5l-69 134q65 40 139 60.5t170 20.5q76 0 138.5 -18.5t107 -56t69 -94.5t24.5 -134v-619h-174v89q-34 -32 -56.5 -46.5t-47 -27.5 t-62 -23.5t-81.5 -10.5q-55 0 -111 16t-101 53t-73.5 94.5t-28.5 141.5zM256 291q0 -41 14.5 -69t36 -45.5t51.5 -26.5t72 -9q35 0 68 10t61.5 26.5t51 37t37.5 41.5v130q-25 11 -45 17.5t-42 11t-52.5 7.5t-66.5 3q-86 0 -136 -36t-50 -98zM261 1239q0 46 16.5 86t45.5 69 t69 45.5t86 16.5t86 -16.5t69 -45.5t45.5 -69t16.5 -86q0 -47 -16.5 -86t-45.5 -68t-69 -45t-86 -16t-86 16t-69 45t-45.5 68t-16.5 86zM373 1239q0 -24 8 -43t22 -33.5t33 -22.5t42 -8t42 8t33 22.5t22 33.5t8 43q0 23 -8 42.5t-22 34t-33 22.5t-42 8t-42 -8t-33 -22.5 t-22 -34t-8 -42.5z" />
<glyph unicode="&#xe6;" horiz-adv-x="1462" d="M87 286q0 74 28.5 129.5t77 92t115 54.5t143.5 18q61 0 104 -10t80 -27v64q0 72 -38 111t-119 39q-67 0 -122.5 -13.5t-107.5 -42.5l-71 136q66 41 139.5 63t166.5 22q100 0 163.5 -30.5t100.5 -95.5q48 62 111 94t148 32q91 0 158.5 -37t112.5 -99.5t67 -144.5t22 -173 q0 -24 -2 -45t-3 -36h-552q3 -60 20 -105.5t44 -75.5t62.5 -45t75.5 -15q29 0 52 4.5t43 14t38.5 23t40.5 30.5l109 -116q-30 -30 -59.5 -52t-64 -37.5t-76 -23.5t-93.5 -8q-88 0 -163 38.5t-126 114.5q-50 -70 -129 -111.5t-179 -41.5q-55 0 -110.5 16t-102 53t-75.5 94.5 t-29 141.5zM263 291q0 -66 41 -105.5t128 -39.5q35 0 65.5 9.5t56.5 25.5t46 36.5t35 40.5v66v60q-18 8 -36.5 15.5t-41.5 12.5t-50.5 8t-62.5 3q-84 0 -132.5 -36t-48.5 -96zM811 538h379q-2 46 -13 86t-33.5 69.5t-58 47.5t-87.5 18q-44 0 -77 -16t-56 -45t-36.5 -69.5 t-17.5 -90.5z" />
<glyph unicode="&#xe7;" horiz-adv-x="897" d="M87 449q0 112 31 200.5t84.5 148.5t126 92t154.5 32q100 0 178.5 -39t141.5 -114l-105 -126q-32 32 -54.5 50t-50 32.5t-55.5 21t-60 6.5q-48 0 -87 -21t-66.5 -59.5t-43 -94t-15.5 -124.5q0 -66 14.5 -122t41.5 -96.5t67.5 -63t93.5 -22.5q32 0 58 7t50 21t47 35t50 48 l113 -111q-27 -34 -57.5 -64.5t-69 -54t-87 -37t-109.5 -13.5q-82 0 -153.5 33.5t-124 95t-83 148t-30.5 191.5zM263 -270l38 57q75 -42 151 -42q58 0 84 19t26 49q0 26 -15 40t-39 14q-42 0 -69 -25l-62 24l31 155h88l-18 -98q16 6 35 10.5t48 4.5q22 0 44 -7t39.5 -21.5 t29 -37t11.5 -54.5q0 -41 -16.5 -69.5t-45.5 -46.5t-67 -26t-81 -8q-62 0 -113.5 16t-98.5 46z" />
<glyph unicode="&#xe8;" horiz-adv-x="953" d="M87 451q0 114 29 202.5t81 148t125.5 90t160.5 30.5q97 0 168 -36.5t118 -98t71 -144t24 -173.5q0 -25 -2 -46t-4 -35h-597q8 -66 29 -112.5t51 -76.5t68.5 -44.5t79.5 -14.5q29 0 55 5t50 15t42.5 20.5t48.5 31.5l105 -113q-34 -32 -64.5 -51.5t-66.5 -35.5t-81 -24 t-100 -8q-59 0 -110 16t-90.5 42.5t-71 60.5t-60 87.5t-44 119.5t-15.5 144zM265 535h420q-4 46 -17 87.5t-38.5 72.5t-64.5 49t-94 18q-47 0 -82 -15.5t-60.5 -44t-42 -70t-21.5 -97.5zM160 1299h241l184 -275h-141z" />
<glyph unicode="&#xe9;" horiz-adv-x="953" d="M87 451q0 114 29 202.5t81 148t125.5 90t160.5 30.5q97 0 168 -36.5t118 -98t71 -144t24 -173.5q0 -25 -2 -46t-4 -35h-597q8 -66 29 -112.5t51 -76.5t68.5 -44.5t79.5 -14.5q29 0 55 5t50 15t42.5 20.5t48.5 31.5l105 -113q-34 -32 -64.5 -51.5t-66.5 -35.5t-81 -24 t-100 -8q-59 0 -110 16t-90.5 42.5t-71 60.5t-60 87.5t-44 119.5t-15.5 144zM265 535h420q-4 46 -17 87.5t-38.5 72.5t-64.5 49t-94 18q-47 0 -82 -15.5t-60.5 -44t-42 -70t-21.5 -97.5zM370 1024l184 275h241l-284 -275h-141z" />
<glyph unicode="&#xea;" horiz-adv-x="953" d="M87 451q0 114 29 202.5t81 148t125.5 90t160.5 30.5q97 0 168 -36.5t118 -98t71 -144t24 -173.5q0 -25 -2 -46t-4 -35h-597q8 -66 29 -112.5t51 -76.5t68.5 -44.5t79.5 -14.5q29 0 55 5t50 15t42.5 20.5t48.5 31.5l105 -113q-34 -32 -64.5 -51.5t-66.5 -35.5t-81 -24 t-100 -8q-59 0 -110 16t-90.5 42.5t-71 60.5t-60 87.5t-44 119.5t-15.5 144zM265 535h420q-4 46 -17 87.5t-38.5 72.5t-64.5 49t-94 18q-47 0 -82 -15.5t-60.5 -44t-42 -70t-21.5 -97.5zM171 1009l201 275h206l201 -275h-142l-164 151l-163 -151h-139z" />
<glyph unicode="&#xeb;" horiz-adv-x="953" d="M87 451q0 114 29 202.5t81 148t125.5 90t160.5 30.5q97 0 168 -36.5t118 -98t71 -144t24 -173.5q0 -25 -2 -46t-4 -35h-597q8 -66 29 -112.5t51 -76.5t68.5 -44.5t79.5 -14.5q29 0 55 5t50 15t42.5 20.5t48.5 31.5l105 -113q-34 -32 -64.5 -51.5t-66.5 -35.5t-81 -24 t-100 -8q-59 0 -110 16t-90.5 42.5t-71 60.5t-60 87.5t-44 119.5t-15.5 144zM265 535h420q-4 46 -17 87.5t-38.5 72.5t-64.5 49t-94 18q-47 0 -82 -15.5t-60.5 -44t-42 -70t-21.5 -97.5zM191 1132q0 24 9.5 45t25.5 37t37 25.5t45 9.5q23 0 44 -9.5t37 -25.5t25.5 -37 t9.5 -45q0 -23 -9.5 -44t-25.5 -37t-37 -25t-44 -9q-24 0 -45 9t-37 25t-25.5 37t-9.5 44zM526 1132q0 24 9.5 45t26 37t37.5 25.5t45 9.5q23 0 44 -9.5t37 -25.5t25 -37t9 -45q0 -23 -9 -44t-25 -37t-37 -25t-44 -9q-24 0 -45 9t-37.5 25t-26 37t-9.5 44z" />
<glyph unicode="&#xec;" horiz-adv-x="456" d="M138 0v903h177v-903h-177zM-104 1299h241l184 -275h-141z" />
<glyph unicode="&#xed;" horiz-adv-x="456" d="M138 0v903h177v-903h-177zM145 1024l184 275h241l-284 -275h-141z" />
<glyph unicode="&#xee;" horiz-adv-x="456" d="M138 0v903h177v-903h-177zM-76 1000l201 275h206l201 -275h-142l-164 151l-163 -151h-139z" />
<glyph unicode="&#xef;" horiz-adv-x="456" d="M138 0v903h177v-903h-177zM-57 1124q0 24 9.5 45t25.5 37t37 25.5t45 9.5q23 0 44 -9.5t37 -25.5t25.5 -37t9.5 -45q0 -23 -9.5 -44t-25.5 -37t-37 -25t-44 -9q-24 0 -45 9t-37 25t-25.5 37t-9.5 44zM278 1124q0 24 9.5 45t26 37t37.5 25.5t45 9.5q23 0 44 -9.5t37 -25.5 t25 -37t9 -45q0 -23 -9 -44t-25 -37t-37 -25t-44 -9q-24 0 -45 9t-37.5 25t-26 37t-9.5 44z" />
<glyph unicode="&#xf1;" d="M131 0v903h177v-86q17 25 41.5 44.5t54 33t63 20.5t68.5 7q82 0 142 -26.5t99.5 -76t60 -125t20.5 -177.5v-517h-177v511q0 122 -44 185t-142 63q-43 0 -79 -15.5t-60.5 -47.5t-35.5 -75t-11 -93v-528h-177zM160 1024q0 57 14 100.5t38 73t57 44.5t72 15q24 0 46.5 -4 t46 -13t50 -23t60.5 -35q18 -10 35.5 -17t31.5 -7q29 0 45 21t22 73h122q0 -57 -14 -101t-37.5 -73.5t-57 -44.5t-71.5 -15q-25 0 -47 4t-45.5 13.5t-50.5 24t-61 35.5q-17 10 -35 16.5t-32 6.5q-28 0 -44 -20.5t-22 -73.5h-123z" />
<glyph unicode="&#xf2;" d="M87 451q0 111 31.5 198.5t85.5 148t127.5 92.5t159.5 32t159.5 -33t127.5 -94t84.5 -147t30.5 -192q0 -112 -31 -200.5t-85.5 -149.5t-129.5 -93t-161 -32t-158.5 33.5t-126 95t-84 148.5t-30.5 193zM266 456q0 -75 16.5 -132t46.5 -95.5t71.5 -58.5t91.5 -20 q51 0 91.5 23.5t69.5 64.5t45 96t16 117q0 69 -16 125t-46 95.5t-72.5 60.5t-96.5 21q-50 0 -90 -21t-68 -60t-43.5 -94t-15.5 -122zM170 1299h241l184 -275h-141z" />
<glyph unicode="&#xf3;" d="M87 451q0 111 31.5 198.5t85.5 148t127.5 92.5t159.5 32t159.5 -33t127.5 -94t84.5 -147t30.5 -192q0 -112 -31 -200.5t-85.5 -149.5t-129.5 -93t-161 -32t-158.5 33.5t-126 95t-84 148.5t-30.5 193zM266 456q0 -75 16.5 -132t46.5 -95.5t71.5 -58.5t91.5 -20 q51 0 91.5 23.5t69.5 64.5t45 96t16 117q0 69 -16 125t-46 95.5t-72.5 60.5t-96.5 21q-50 0 -90 -21t-68 -60t-43.5 -94t-15.5 -122zM380 1024l184 275h241l-284 -275h-141z" />
<glyph unicode="&#xf4;" d="M87 451q0 111 31.5 198.5t85.5 148t127.5 92.5t159.5 32t159.5 -33t127.5 -94t84.5 -147t30.5 -192q0 -112 -31 -200.5t-85.5 -149.5t-129.5 -93t-161 -32t-158.5 33.5t-126 95t-84 148.5t-30.5 193zM266 456q0 -75 16.5 -132t46.5 -95.5t71.5 -58.5t91.5 -20 q51 0 91.5 23.5t69.5 64.5t45 96t16 117q0 69 -16 125t-46 95.5t-72.5 60.5t-96.5 21q-50 0 -90 -21t-68 -60t-43.5 -94t-15.5 -122zM181 1009l201 275h206l201 -275h-142l-164 151l-163 -151h-139z" />
<glyph unicode="&#xf5;" d="M87 451q0 111 31.5 198.5t85.5 148t127.5 92.5t159.5 32t159.5 -33t127.5 -94t84.5 -147t30.5 -192q0 -112 -31 -200.5t-85.5 -149.5t-129.5 -93t-161 -32t-158.5 33.5t-126 95t-84 148.5t-30.5 193zM266 456q0 -75 16.5 -132t46.5 -95.5t71.5 -58.5t91.5 -20 q51 0 91.5 23.5t69.5 64.5t45 96t16 117q0 69 -16 125t-46 95.5t-72.5 60.5t-96.5 21q-50 0 -90 -21t-68 -60t-43.5 -94t-15.5 -122zM156 1024q0 57 14 100.5t38 73t57 44.5t72 15q24 0 46.5 -4t46 -13t50 -23t60.5 -35q18 -10 35.5 -17t31.5 -7q29 0 45 21t22 73h122 q0 -57 -14 -101t-37.5 -73.5t-57 -44.5t-71.5 -15q-25 0 -47 4t-45.5 13.5t-50.5 24t-61 35.5q-17 10 -35 16.5t-32 6.5q-28 0 -44 -20.5t-22 -73.5h-123z" />
<glyph unicode="&#xf6;" d="M87 451q0 111 31.5 198.5t85.5 148t127.5 92.5t159.5 32t159.5 -33t127.5 -94t84.5 -147t30.5 -192q0 -112 -31 -200.5t-85.5 -149.5t-129.5 -93t-161 -32t-158.5 33.5t-126 95t-84 148.5t-30.5 193zM266 456q0 -75 16.5 -132t46.5 -95.5t71.5 -58.5t91.5 -20 q51 0 91.5 23.5t69.5 64.5t45 96t16 117q0 69 -16 125t-46 95.5t-72.5 60.5t-96.5 21q-50 0 -90 -21t-68 -60t-43.5 -94t-15.5 -122zM201 1124q0 24 9.5 45t25.5 37t37 25.5t45 9.5q23 0 44 -9.5t37 -25.5t25.5 -37t9.5 -45q0 -23 -9.5 -44t-25.5 -37t-37 -25t-44 -9 q-24 0 -45 9t-37 25t-25.5 37t-9.5 44zM536 1124q0 24 9.5 45t26 37t37.5 25.5t45 9.5q23 0 44 -9.5t37 -25.5t25 -37t9 -45q0 -23 -9 -44t-25 -37t-37 -25t-44 -9q-24 0 -45 9t-37.5 25t-26 37t-9.5 44z" />
<glyph unicode="&#xf8;" d="M87 451q0 111 31.5 198.5t85.5 148t127.5 92.5t159.5 32q36 0 70.5 -6t66.5 -18l45 92h158l-83 -166q68 -60 106.5 -154.5t38.5 -213.5q0 -112 -31 -200.5t-85.5 -149.5t-129.5 -93t-161 -32q-65 0 -143 27l-49 -94h-158l86 173q-62 63 -98.5 154.5t-36.5 209.5zM265 456 q0 -68 10 -117.5t29 -87.5l252 502q-34 11 -73 11q-52 0 -93 -22t-68.5 -62.5t-42 -97t-14.5 -126.5zM413 153q41 -14 79 -14q53 0 94.5 24.5t70 67t44 99t15.5 121.5q0 73 -13 124.5t-34 88.5z" />
<glyph unicode="&#xf9;" d="M123 386v517h178v-511q0 -124 44 -186t142 -62q89 0 137.5 60.5t48.5 170.5v528h177v-903h-177v86q-34 -47 -94.5 -76t-133.5 -29q-158 0 -240 101.5t-82 303.5zM172 1299h241l184 -275h-141z" />
<glyph unicode="&#xfa;" d="M123 386v517h178v-511q0 -124 44 -186t142 -62q89 0 137.5 60.5t48.5 170.5v528h177v-903h-177v86q-34 -47 -94.5 -76t-133.5 -29q-158 0 -240 101.5t-82 303.5zM381 1024l184 275h241l-284 -275h-141z" />
<glyph unicode="&#xfb;" d="M123 386v517h178v-511q0 -124 44 -186t142 -62q89 0 137.5 60.5t48.5 170.5v528h177v-903h-177v86q-34 -47 -94.5 -76t-133.5 -29q-158 0 -240 101.5t-82 303.5zM183 1024l201 275h206l201 -275h-142l-164 151l-163 -151h-139z" />
<glyph unicode="&#xfc;" d="M123 386v517h178v-511q0 -124 44 -186t142 -62q89 0 137.5 60.5t48.5 170.5v528h177v-903h-177v86q-34 -47 -94.5 -76t-133.5 -29q-158 0 -240 101.5t-82 303.5zM203 1139q0 24 9.5 45t25.5 37t37 25.5t45 9.5q23 0 44 -9.5t37 -25.5t25.5 -37t9.5 -45q0 -23 -9.5 -44 t-25.5 -37t-37 -25t-44 -9q-24 0 -45 9t-37 25t-25.5 37t-9.5 44zM538 1139q0 24 9.5 45t26 37t37.5 25.5t45 9.5q23 0 44 -9.5t37 -25.5t25 -37t9 -45q0 -23 -9 -44t-25 -37t-37 -25t-44 -9q-24 0 -45 9t-37.5 25t-26 37t-9.5 44z" />
<glyph unicode="&#xfd;" horiz-adv-x="956" d="M57 903h194l227 -680l234 680h188l-455 -1221h-187l131 335zM371 1009l184 275h241l-284 -275h-141z" />
<glyph unicode="&#xff;" horiz-adv-x="956" d="M57 903h194l227 -680l234 680h188l-455 -1221h-187l131 335zM192 1124q0 24 9.5 45t25.5 37t37 25.5t45 9.5q23 0 44 -9.5t37 -25.5t25.5 -37t9.5 -45q0 -23 -9.5 -44t-25.5 -37t-37 -25t-44 -9q-24 0 -45 9t-37 25t-25.5 37t-9.5 44zM527 1124q0 24 9.5 45t26 37 t37.5 25.5t45 9.5q23 0 44 -9.5t37 -25.5t25 -37t9 -45q0 -23 -9 -44t-25 -37t-37 -25t-44 -9q-24 0 -45 9t-37.5 25t-26 37t-9.5 44z" />
<glyph unicode="&#x102;" horiz-adv-x="1224" d="M81 0l433 1205h192l438 -1205h-192l-102 286h-482l-100 -286h-187zM423 447h372l-188 537zM308 1557h127q10 -61 53.5 -95t125.5 -34q76 0 122.5 33t56.5 96h123q-5 -66 -28 -117t-62 -86.5t-93 -53.5t-123 -18q-65 0 -118 18t-92 53.5t-62.5 86.5t-29.5 117z" />
<glyph unicode="&#x103;" horiz-adv-x="945" d="M87 286q0 75 27.5 130t76 91t114 53.5t142.5 17.5q71 0 120 -9.5t81 -25.5v68q0 74 -43.5 113.5t-126.5 39.5q-70 0 -126 -13.5t-109 -43.5l-69 134q65 40 139 60.5t170 20.5q76 0 138.5 -18.5t107 -56t69 -94.5t24.5 -134v-619h-174v89q-34 -32 -56.5 -46.5t-47 -27.5 t-62 -23.5t-81.5 -10.5q-55 0 -111 16t-101 53t-73.5 94.5t-28.5 141.5zM256 291q0 -41 14.5 -69t36 -45.5t51.5 -26.5t72 -9q35 0 68 10t61.5 26.5t51 37t37.5 41.5v130q-25 11 -45 17.5t-42 11t-52.5 7.5t-66.5 3q-86 0 -136 -36t-50 -98zM169 1299h127q10 -61 53.5 -95 t125.5 -34q76 0 122.5 33t56.5 96h123q-5 -66 -28 -117t-62 -86.5t-93 -53.5t-123 -18q-65 0 -118 18t-92 53.5t-62.5 86.5t-29.5 117z" />
<glyph unicode="&#x104;" horiz-adv-x="1224" d="M81 0l433 1205h192l438 -1205h-192l-102 286h-482l-100 -286h-187zM423 447h372l-188 537zM793 -208q0 32 12 62t33 56.5t50 49t64 40.5h174q-42 -22 -77 -45.5t-56.5 -45.5t-30 -42t-8.5 -34q0 -24 13 -38.5t40 -14.5q17 0 33.5 6.5t28.5 17.5l56 -88q-35 -29 -76 -44.5 t-89 -15.5q-42 0 -73.5 11.5t-52.5 30.5t-31 43.5t-10 50.5z" />
<glyph unicode="&#x105;" horiz-adv-x="945" d="M87 286q0 75 27.5 130t76 91t114 53.5t142.5 17.5q71 0 120 -9.5t81 -25.5v68q0 74 -43.5 113.5t-126.5 39.5q-70 0 -126 -13.5t-109 -43.5l-69 134q65 40 139 60.5t170 20.5q76 0 138.5 -18.5t107 -56t69 -94.5t24.5 -134v-619h-174v89q-34 -32 -56.5 -46.5t-47 -27.5 t-62 -23.5t-81.5 -10.5q-55 0 -111 16t-101 53t-73.5 94.5t-28.5 141.5zM256 291q0 -41 14.5 -69t36 -45.5t51.5 -26.5t72 -9q35 0 68 10t61.5 26.5t51 37t37.5 41.5v130q-25 11 -45 17.5t-42 11t-52.5 7.5t-66.5 3q-86 0 -136 -36t-50 -98zM489 -208q0 32 12 62t33 56.5 t50 49t64 40.5h174q-42 -22 -77 -45.5t-56.5 -45.5t-30 -42t-8.5 -34q0 -24 13 -38.5t40 -14.5q17 0 33.5 6.5t28.5 17.5l56 -88q-35 -29 -76 -44.5t-89 -15.5q-42 0 -73.5 11.5t-52.5 30.5t-31 43.5t-10 50.5z" />
<glyph unicode="&#x106;" horiz-adv-x="1126" d="M100 602q0 137 35.5 251t102 196t160.5 128t211 46q147 0 247 -58t162 -167l-160 -100q-23 37 -47.5 64.5t-54 45t-65.5 26t-82 8.5q-79 0 -139.5 -30.5t-101 -88t-61.5 -139t-21 -182.5t21 -182.5t61.5 -139t101 -88t139.5 -30.5q94 0 156 38t109 112l150 -100 q-42 -68 -79.5 -103.5t-84 -63.5t-109 -46t-142.5 -18q-86 0 -154.5 22.5t-123.5 62t-100 98.5t-72 123t-43 143t-16 172zM465 1282l184 275h241l-284 -275h-141z" />
<glyph unicode="&#x107;" horiz-adv-x="897" d="M87 449q0 112 31 200.5t84.5 148.5t126 92t154.5 32q100 0 178.5 -39t141.5 -114l-105 -126q-32 32 -54.5 50t-50 32.5t-55.5 21t-60 6.5q-48 0 -87 -21t-66.5 -59.5t-43 -94t-15.5 -124.5q0 -66 14.5 -122t41.5 -96.5t67.5 -63t93.5 -22.5q32 0 58 7t50 21t47 35t50 48 l113 -111q-27 -34 -57.5 -64.5t-69 -54t-87 -37t-109.5 -13.5q-82 0 -153.5 33.5t-124 95t-83 148t-30.5 191.5zM407 1024l184 275h241l-284 -275h-141z" />
<glyph unicode="&#x10c;" horiz-adv-x="1126" d="M100 602q0 137 35.5 251t102 196t160.5 128t211 46q147 0 247 -58t162 -167l-160 -100q-23 37 -47.5 64.5t-54 45t-65.5 26t-82 8.5q-79 0 -139.5 -30.5t-101 -88t-61.5 -139t-21 -182.5t21 -182.5t61.5 -139t101 -88t139.5 -30.5q94 0 156 38t109 112l150 -100 q-42 -68 -79.5 -103.5t-84 -63.5t-109 -46t-142.5 -18q-86 0 -154.5 22.5t-123.5 62t-100 98.5t-72 123t-43 143t-16 172zM297 1548h142l164 -152l164 152h138l-201 -275h-206z" />
<glyph unicode="&#x10d;" horiz-adv-x="897" d="M87 449q0 112 31 200.5t84.5 148.5t126 92t154.5 32q100 0 178.5 -39t141.5 -114l-105 -126q-32 32 -54.5 50t-50 32.5t-55.5 21t-60 6.5q-48 0 -87 -21t-66.5 -59.5t-43 -94t-15.5 -124.5q0 -66 14.5 -122t41.5 -96.5t67.5 -63t93.5 -22.5q32 0 58 7t50 21t47 35t50 48 l113 -111q-27 -34 -57.5 -64.5t-69 -54t-87 -37t-109.5 -13.5q-82 0 -153.5 33.5t-124 95t-83 148t-30.5 191.5zM145 1299h142l164 -152l164 152h138l-201 -275h-206z" />
<glyph unicode="&#x10e;" horiz-adv-x="1168" d="M156 0v1205h330q120 0 227.5 -34.5t186.5 -107.5t125.5 -187t46.5 -274q0 -106 -21.5 -192t-60.5 -152.5t-93 -115.5t-119.5 -80.5t-139.5 -46.5t-152 -15h-330zM337 176h149q106 0 182.5 31t125.5 87t71.5 134.5t22.5 173.5t-22.5 173.5t-71.5 135t-125.5 87.5 t-182.5 31h-149v-853zM264 1548h142l164 -152l164 152h138l-201 -275h-206z" />
<glyph unicode="&#x10f;" horiz-adv-x="1089" d="M92 466q0 116 29 202t78 142.5t113 84t135 27.5q34 0 67 -8t62.5 -22.5t54 -33.5t44.5 -39v344l175 91v-1254h-175v86q-26 -23 -52.5 -42.5t-58 -34.5t-62.5 -21.5t-64 -6.5q-73 0 -136 27t-110 86t-73.5 151t-26.5 221zM268 471q0 -85 13.5 -146.5t39.5 -101.5t64 -59.5 t86 -19.5q32 0 61.5 10t55.5 26.5t48.5 37t39.5 42.5v380q-15 20 -37 41t-50 38.5t-59.5 28.5t-64.5 11q-97 0 -147 -72t-50 -216zM941 773l24 432h225l-131 -432h-118z" />
<glyph unicode="&#x110;" horiz-adv-x="1193" d="M69 543v173h113v489h329q121 0 228 -34.5t186.5 -107.5t126 -187t46.5 -274q0 -159 -47.5 -273t-128 -187t-187 -107.5t-224.5 -34.5h-329v543h-113zM358 177h153q106 0 182.5 31t125.5 87t71.5 134t22.5 173t-22.5 173t-71.5 134.5t-125.5 87t-182.5 30.5h-153v-311h218 v-173h-218v-366z" />
<glyph unicode="&#x111;" d="M92 466q0 116 29 202t78 142.5t113 84t135 27.5q34 0 67 -8t62.5 -22.5t54 -33.5t44.5 -39v150h-153v118h153v76l175 91v-167h153v-118h-153v-969h-175v86q-50 -46 -107.5 -75.5t-129.5 -29.5q-73 0 -136 27t-110 86t-73.5 151t-26.5 221zM268 471q0 -85 13.5 -146.5 t39.5 -101.5t64 -59.5t86 -19.5q32 0 61.5 10t55.5 26.5t48.5 37t39.5 42.5v380q-15 20 -37 41t-50 38.5t-59.5 28.5t-64.5 11q-97 0 -147 -72t-50 -216z" />
<glyph unicode="&#x118;" horiz-adv-x="1058" d="M156 0v1205h776v-176h-595v-298h484v-175h-484v-380h621v-176h-802zM625 -208q0 32 12 62t33 56.5t50 49t64 40.5h174q-42 -22 -77 -45.5t-56.5 -45.5t-30 -42t-8.5 -34q0 -24 13 -38.5t40 -14.5q17 0 33.5 6.5t28.5 17.5l56 -88q-35 -29 -76 -44.5t-89 -15.5 q-42 0 -73.5 11.5t-52.5 30.5t-31 43.5t-10 50.5z" />
<glyph unicode="&#x119;" horiz-adv-x="953" d="M87 451q0 114 29 202.5t81 148t125.5 90t160.5 30.5q97 0 168 -36.5t118 -98t71 -144t24 -173.5q0 -25 -2 -46t-4 -35h-597q8 -66 29 -112.5t51 -76.5t68.5 -44.5t79.5 -14.5q57 0 103.5 19.5t92.5 52.5l105 -113q-30 -29 -66.5 -52t-74 -42.5t-73.5 -38t-63.5 -38.5 t-44.5 -43.5t-17 -52.5q0 -24 13 -38.5t40 -14.5q14 0 29.5 5t32.5 19l56 -88q-31 -27 -72 -43.5t-92 -16.5q-43 0 -74.5 11.5t-52 30.5t-30.5 43.5t-10 50.5q0 59 36.5 108.5t95.5 84.5q-70 10 -131.5 45.5t-107 95.5t-71.5 141.5t-26 183.5zM265 535h420q-4 46 -17 87.5 t-38.5 72.5t-64.5 49t-94 18q-43 0 -80 -15.5t-63 -46.5t-42 -71.5t-21 -93.5z" />
<glyph unicode="&#x11a;" horiz-adv-x="1058" d="M156 0v1205h776v-176h-595v-298h484v-175h-484v-380h621v-176h-802zM231 1548h142l164 -152l164 152h138l-201 -275h-206z" />
<glyph unicode="&#x11b;" horiz-adv-x="953" d="M87 451q0 114 29 202.5t81 148t125.5 90t160.5 30.5q97 0 168 -36.5t118 -98t71 -144t24 -173.5q0 -25 -2 -46t-4 -35h-597q8 -66 29 -112.5t51 -76.5t68.5 -44.5t79.5 -14.5q29 0 55 5t50 15t42.5 20.5t48.5 31.5l105 -113q-34 -32 -64.5 -51.5t-66.5 -35.5t-81 -24 t-100 -8q-59 0 -110 16t-90.5 42.5t-71 60.5t-60 87.5t-44 119.5t-15.5 144zM265 535h420q-4 46 -17 87.5t-38.5 72.5t-64.5 49t-94 18q-47 0 -82 -15.5t-60.5 -44t-42 -70t-21.5 -97.5zM172 1299h142l164 -152l164 152h138l-201 -275h-206z" />
<glyph unicode="&#x11e;" horiz-adv-x="1166" d="M100 602q0 137 35.5 251t102 196t160.5 128t211 46q147 0 247 -58t162 -167l-158 -98q-23 37 -48 63.5t-54.5 44.5t-66 26t-82.5 8q-79 0 -139.5 -30.5t-101.5 -88t-62.5 -139t-21.5 -182.5t21.5 -182.5t62.5 -139t101.5 -88t139.5 -30.5q129 0 201.5 72.5t72.5 197.5v5 h-197v174h381v-140q0 -116 -34 -207t-94.5 -154t-144.5 -96t-185 -33q-117 0 -211 45.5t-160.5 128t-102 196.5t-35.5 251zM276 1557h127q10 -61 53.5 -95t125.5 -34q76 0 122.5 33t56.5 96h123q-5 -66 -28 -117t-62 -86.5t-93 -53.5t-123 -18q-65 0 -118 18t-92 53.5 t-62.5 86.5t-29.5 117z" />
<glyph unicode="&#x11f;" d="M92 466q0 116 29 202t78.5 142.5t113.5 84t134 27.5q34 0 67 -8t62 -22.5t53.5 -33.5t43.5 -39v84h177v-817q0 -94 -19 -165t-62 -123q-52 -63 -144 -95.5t-233 -35.5l-51 144q103 3 179 22.5t107 54.5q27 30 36.5 75t9.5 108v15q-25 -23 -51 -42t-55 -33t-61 -22t-68 -8 q-72 0 -135 27t-110 86t-74 151t-27 221zM268 471q0 -159 50 -243t153 -84q57 0 109 31.5t96 84.5v380q-15 20 -37 41t-50 38.5t-59.5 28.5t-64.5 11q-97 0 -147 -72t-50 -216zM169 1299h127q10 -61 53.5 -95t125.5 -34q76 0 122.5 33t56.5 96h123q-5 -66 -28 -117 t-62 -86.5t-93 -53.5t-123 -18q-65 0 -118 18t-92 53.5t-62.5 86.5t-29.5 117z" />
<glyph unicode="&#x130;" horiz-adv-x="510" d="M165 0v1205h181v-1205h-181zM141 1397q0 24 9.5 45t25.5 37t37 25.5t45 9.5t44.5 -9.5t36.5 -25.5t25 -37t9 -45q0 -23 -9 -44t-25 -37t-36.5 -25t-44.5 -9t-45 9t-37 25t-25.5 37t-9.5 44z" />
<glyph unicode="&#x131;" horiz-adv-x="456" d="M138 0v903h177v-903h-177z" />
<glyph unicode="&#x139;" horiz-adv-x="1023" d="M156 0v1205h181v-1028h600v-177h-781zM168 1282l184 275h241l-284 -275h-141z" />
<glyph unicode="&#x13a;" horiz-adv-x="456" d="M139 0v1161l178 93v-1254h-178zM148 1316l184 275h241l-284 -275h-141z" />
<glyph unicode="&#x13d;" horiz-adv-x="1023" d="M156 0v1205h181v-1028h600v-177h-781zM508 945l24 432h225l-131 -432h-118z" />
<glyph unicode="&#x13e;" horiz-adv-x="556" d="M139 0v1161l178 93v-1254h-178zM408 773l24 432h225l-131 -432h-118z" />
<glyph unicode="&#x141;" horiz-adv-x="1049" d="M69 313v198l113 90v604h178v-481l241 198v-198l-241 -197v-350h603v-177h-781v402z" />
<glyph unicode="&#x142;" horiz-adv-x="490" d="M69 343v197l89 69v554l174 91v-517l90 75v-198l-90 -77v-537h-174v409z" />
<glyph unicode="&#x143;" horiz-adv-x="1228" d="M156 0v1205h185l555 -893v893h176v-1205h-172l-568 892v-892h-176zM516 1282l184 275h241l-284 -275h-141z" />
<glyph unicode="&#x144;" d="M131 0v903h177v-86q17 25 41.5 44.5t54 33t63 20.5t68.5 7q82 0 142 -26.5t99.5 -76t60 -125t20.5 -177.5v-517h-177v511q0 122 -44 185t-142 63q-43 0 -79 -15.5t-60.5 -47.5t-35.5 -75t-11 -93v-528h-177zM378 1024l184 275h241l-284 -275h-141z" />
<glyph unicode="&#x147;" horiz-adv-x="1228" d="M156 0v1205h185l555 -893v893h176v-1205h-172l-568 892v-892h-176zM310 1557h142l164 -152l164 152h138l-201 -275h-206z" />
<glyph unicode="&#x148;" d="M131 0v903h177v-86q17 25 41.5 44.5t54 33t63 20.5t68.5 7q82 0 142 -26.5t99.5 -76t60 -125t20.5 -177.5v-517h-177v511q0 122 -44 185t-142 63q-43 0 -79 -15.5t-60.5 -47.5t-35.5 -75t-11 -93v-528h-177zM186 1299h142l164 -152l164 152h138l-201 -275h-206z" />
<glyph unicode="&#x150;" horiz-adv-x="1223" d="M98 601q0 140 37.5 255t105.5 196.5t162.5 126t208.5 44.5q115 0 209.5 -44t162 -125t104.5 -195.5t37 -254.5q0 -141 -37.5 -255.5t-105.5 -196.5t-163 -126.5t-210 -44.5q-114 0 -208 44t-161.5 125t-104.5 195t-37 256zM282 604q0 -103 25 -185t69 -139.5t105 -88.5 t133 -31q71 0 131.5 30t103.5 87t67.5 139t24.5 185q0 102 -25.5 184t-70 139.5t-105 88.5t-133.5 31q-71 0 -130.5 -30t-103 -87.5t-67.5 -139t-24 -183.5zM335 1282l184 275h241l-284 -275h-141zM687 1282l184 275h242l-284 -275h-142z" />
<glyph unicode="&#x151;" d="M87 451q0 111 31.5 198.5t85.5 148t127.5 92.5t159.5 32t159.5 -33t127.5 -94t84.5 -147t30.5 -192q0 -112 -31 -200.5t-85.5 -149.5t-129.5 -93t-161 -32t-158.5 33.5t-126 95t-84 148.5t-30.5 193zM266 456q0 -75 16.5 -132t46.5 -95.5t71.5 -58.5t91.5 -20 q51 0 91.5 23.5t69.5 64.5t45 96t16 117q0 69 -16 125t-46 95.5t-72.5 60.5t-96.5 21q-50 0 -90 -21t-68 -60t-43.5 -94t-15.5 -122zM227 1024l184 275h241l-284 -275h-141zM579 1024l184 275h242l-284 -275h-142z" />
<glyph unicode="&#x152;" horiz-adv-x="1821" d="M100 602q0 137 35.5 251t102 196t160.5 128t211 46q51 0 101 -11.5t93.5 -32.5t79 -51t58.5 -66v143h755v-176h-595v-298h482v-175h-482v-380h621v-176h-781v143q-28 -41 -66 -71.5t-81 -50.5t-90.5 -30t-94.5 -10q-117 0 -211 45.5t-160.5 128t-102 196.5t-35.5 251z M284 602q0 -101 21.5 -182.5t62.5 -139t101.5 -88t139.5 -30.5t140.5 30.5t102.5 88t62.5 139t21.5 182.5t-21.5 182.5t-62.5 139t-102.5 88t-140.5 30.5t-139.5 -30.5t-101.5 -88t-62.5 -139t-21.5 -182.5z" />
<glyph unicode="&#x153;" horiz-adv-x="1575" d="M87 451q0 111 31.5 198.5t85.5 148t127.5 92.5t159.5 32q47 0 91.5 -12t84 -34.5t72.5 -54t56 -69.5q49 81 128.5 125.5t176.5 44.5q95 0 166.5 -37t119 -100t70.5 -146t23 -174q0 -25 -1.5 -44t-3.5 -34h-593q7 -64 27.5 -109.5t51 -74.5t67.5 -43t78 -14 q58 0 104.5 18.5t89.5 53.5l108 -120q-60 -58 -134 -87.5t-178 -29.5q-45 0 -88.5 11.5t-82.5 34t-72 54.5t-56 72q-25 -40 -59 -72t-74 -54.5t-85 -34t-92 -11.5q-86 0 -158.5 33.5t-126 95t-84 148.5t-30.5 193zM266 456q0 -75 16.5 -132t46.5 -95.5t71.5 -58.5t91.5 -20 q51 0 91.5 23.5t69.5 64.5t45 96t16 117q0 69 -16 125t-46 95.5t-72.5 60.5t-96.5 21q-50 0 -90 -21t-68 -60t-43.5 -94t-15.5 -122zM883 538h412q-2 46 -15.5 86t-39 69.5t-63.5 47.5t-90 18q-88 0 -139 -56.5t-65 -164.5z" />
<glyph unicode="&#x154;" horiz-adv-x="1193" d="M156 0v1205h529q79 0 149 -21.5t123 -65.5t84 -112.5t31 -160.5q0 -72 -18.5 -130.5t-53 -102.5t-83 -74.5t-110.5 -45.5l246 -492h-208l-239 476h-273v-476h-177zM333 647h352q45 0 82.5 11.5t64.5 35.5t42.5 60t15.5 85q0 47 -15 83.5t-42 61.5t-64.5 37.5t-83.5 12.5 h-352v-387zM430 1282l184 275h241l-284 -275h-141z" />
<glyph unicode="&#x155;" horiz-adv-x="719" d="M131 0v903h177v-86q15 23 37 42t48.5 33t56.5 22t64 8q55 0 91 -10t63 -27l-47 -169q-29 16 -60.5 24t-74.5 8q-85 0 -131.5 -58t-46.5 -174v-516h-177zM309 1024l184 275h241l-284 -275h-141z" />
<glyph unicode="&#x158;" horiz-adv-x="1193" d="M156 0v1205h529q79 0 149 -21.5t123 -65.5t84 -112.5t31 -160.5q0 -72 -18.5 -130.5t-53 -102.5t-83 -74.5t-110.5 -45.5l246 -492h-208l-239 476h-273v-476h-177zM333 647h352q45 0 82.5 11.5t64.5 35.5t42.5 60t15.5 85q0 47 -15 83.5t-42 61.5t-64.5 37.5t-83.5 12.5 h-352v-387zM293 1557h142l164 -152l164 152h138l-201 -275h-206z" />
<glyph unicode="&#x159;" horiz-adv-x="719" d="M131 0v903h177v-86q15 23 37 42t48.5 33t56.5 22t64 8q55 0 91 -10t63 -27l-47 -169q-29 16 -60.5 24t-74.5 8q-85 0 -131.5 -58t-46.5 -174v-516h-177zM57 1299h142l164 -152l164 152h138l-201 -275h-206z" />
<glyph unicode="&#x15a;" horiz-adv-x="1076" d="M89 176l129 125q31 -33 68 -59.5t77 -45t83 -28.5t86 -10q127 0 188 43.5t61 131.5q0 36 -14 63t-46 50t-84 44t-128 43q-96 29 -166.5 57.5t-117 67.5t-69.5 94t-23 136q0 78 31 140t84.5 105.5t126 66.5t155.5 23q69 -1 121.5 -12t101.5 -33.5t88.5 -50t82.5 -67.5 l-128 -129q-34 34 -62 52.5t-57.5 32t-69.5 22t-91 8.5q-53 0 -91 -12.5t-62.5 -32.5t-36 -47t-11.5 -58q0 -32 12 -56t41.5 -45.5t80.5 -42t129 -43.5q89 -27 160.5 -57t121.5 -71t76.5 -97.5t26.5 -137.5t-26 -148.5t-81 -115.5t-139 -74.5t-200 -26.5q-65 0 -126 13.5 t-115 39t-101.5 61.5t-85.5 81zM440 1282l184 275h241l-284 -275h-141z" />
<glyph unicode="&#x15b;" horiz-adv-x="858" d="M77 97l81 133q64 -44 132 -66.5t132 -22.5q84 0 124 26t40 74q0 26 -14 46t-41.5 37t-66 33.5t-87.5 34.5q-73 29 -124 56.5t-82.5 60.5t-45 73t-13.5 94q0 61 22.5 107t63.5 76.5t97.5 46.5t124.5 16q86 0 165.5 -27.5t140.5 -72.5l-78 -136q-55 40 -111.5 59t-121.5 19 q-66 0 -95 -23.5t-29 -59.5q0 -17 7 -32t25.5 -30t51 -32t83.5 -37q75 -29 132 -56t95 -60t57.5 -77.5t19.5 -108.5q0 -75 -28 -126t-75 -82.5t-108 -45t-128 -13.5q-85 0 -179.5 31.5t-166.5 84.5zM330 1024l184 275h241l-284 -275h-141z" />
<glyph unicode="&#x15e;" horiz-adv-x="1076" d="M89 176l129 125q31 -33 68 -59.5t77 -45t83 -28.5t86 -10q127 0 188 43.5t61 131.5q0 36 -14 63t-46 50t-84 44t-128 43q-96 29 -166.5 57.5t-117 67.5t-69.5 94t-23 136q0 78 31 140t84.5 105.5t126 66.5t155.5 23q69 -1 121.5 -12t101.5 -33.5t88.5 -50t82.5 -67.5 l-128 -129q-34 34 -62 52.5t-57.5 32t-69.5 22t-91 8.5q-53 0 -91 -12.5t-62.5 -32.5t-36 -47t-11.5 -58q0 -32 12 -56t41.5 -45.5t80.5 -42t129 -43.5q89 -27 160.5 -57t121.5 -71t76.5 -97.5t26.5 -137.5t-26 -148.5t-81 -115.5t-139 -74.5t-200 -26.5q-65 0 -126 13.5 t-115 39t-101.5 61.5t-85.5 81zM339 -270l38 57q75 -42 151 -42q58 0 84 19t26 49q0 26 -15 40t-39 14q-42 0 -69 -25l-62 24l31 155h88l-18 -98q16 6 35 10.5t48 4.5q22 0 44 -7t39.5 -21.5t29 -37t11.5 -54.5q0 -41 -16.5 -69.5t-45.5 -46.5t-67 -26t-81 -8 q-62 0 -113.5 16t-98.5 46z" />
<glyph unicode="&#x15f;" horiz-adv-x="858" d="M77 97l81 133q64 -44 132 -66.5t132 -22.5q84 0 124 26t40 74q0 26 -14 46t-41.5 37t-66 33.5t-87.5 34.5q-73 29 -124 56.5t-82.5 60.5t-45 73t-13.5 94q0 61 22.5 107t63.5 76.5t97.5 46.5t124.5 16q86 0 165.5 -27.5t140.5 -72.5l-78 -136q-55 40 -111.5 59t-121.5 19 q-66 0 -95 -23.5t-29 -59.5q0 -17 7 -32t25.5 -30t51 -32t83.5 -37q75 -29 132 -56t95 -60t57.5 -77.5t19.5 -108.5q0 -75 -28 -126t-75 -82.5t-108 -45t-128 -13.5q-85 0 -179.5 31.5t-166.5 84.5zM237 -270l38 57q75 -42 151 -42q58 0 84 19t26 49q0 26 -15 40t-39 14 q-42 0 -69 -25l-62 24l31 155h88l-18 -98q16 6 35 10.5t48 4.5q22 0 44 -7t39.5 -21.5t29 -37t11.5 -54.5q0 -41 -16.5 -69.5t-45.5 -46.5t-67 -26t-81 -8q-62 0 -113.5 16t-98.5 46z" />
<glyph unicode="&#x160;" horiz-adv-x="1076" d="M89 176l129 125q31 -33 68 -59.5t77 -45t83 -28.5t86 -10q127 0 188 43.5t61 131.5q0 36 -14 63t-46 50t-84 44t-128 43q-96 29 -166.5 57.5t-117 67.5t-69.5 94t-23 136q0 78 31 140t84.5 105.5t126 66.5t155.5 23q69 -1 121.5 -12t101.5 -33.5t88.5 -50t82.5 -67.5 l-128 -129q-34 34 -62 52.5t-57.5 32t-69.5 22t-91 8.5q-53 0 -91 -12.5t-62.5 -32.5t-36 -47t-11.5 -58q0 -32 12 -56t41.5 -45.5t80.5 -42t129 -43.5q89 -27 160.5 -57t121.5 -71t76.5 -97.5t26.5 -137.5t-26 -148.5t-81 -115.5t-139 -74.5t-200 -26.5q-65 0 -126 13.5 t-115 39t-101.5 61.5t-85.5 81zM219 1569h142l164 -152l164 152h138l-201 -275h-206z" />
<glyph unicode="&#x161;" horiz-adv-x="858" d="M77 97l81 133q64 -44 132 -66.5t132 -22.5q84 0 124 26t40 74q0 26 -14 46t-41.5 37t-66 33.5t-87.5 34.5q-73 29 -124 56.5t-82.5 60.5t-45 73t-13.5 94q0 61 22.5 107t63.5 76.5t97.5 46.5t124.5 16q86 0 165.5 -27.5t140.5 -72.5l-78 -136q-55 40 -111.5 59t-121.5 19 q-66 0 -95 -23.5t-29 -59.5q0 -17 7 -32t25.5 -30t51 -32t83.5 -37q75 -29 132 -56t95 -60t57.5 -77.5t19.5 -108.5q0 -75 -28 -126t-75 -82.5t-108 -45t-128 -13.5q-85 0 -179.5 31.5t-166.5 84.5zM113 1299h142l164 -152l164 152h138l-201 -275h-206z" />
<glyph unicode="&#x162;" horiz-adv-x="1044" d="M81 1027v178h882v-178h-351v-1027h-180v1027h-351zM333 -270l38 57q75 -42 151 -42q58 0 84 19t26 49q0 26 -15 40t-39 14q-42 0 -69 -25l-62 24l31 155h88l-18 -98q16 6 35 10.5t48 4.5q22 0 44 -7t39.5 -21.5t29 -37t11.5 -54.5q0 -41 -16.5 -69.5t-45.5 -46.5t-67 -26 t-81 -8q-62 0 -113.5 16t-98.5 46z" />
<glyph unicode="&#x163;" horiz-adv-x="693" d="M57 742v161h129v258l174 93v-351h223v-161h-223v-491q0 -32 5 -52.5t16.5 -33t29 -17.5t42.5 -5q34 0 70 11t60 25l-20 -156q-33 -19 -77 -30.5t-97 -11.5q-46 0 -81 13t-63.5 41t-43.5 74t-15 111v522h-129zM182 -270l38 57q75 -42 151 -42q58 0 84 19t26 49 q0 26 -15 40t-39 14q-42 0 -69 -25l-62 24l31 155h88l-18 -98q16 6 35 10.5t48 4.5q22 0 44 -7t39.5 -21.5t29 -37t11.5 -54.5q0 -41 -16.5 -69.5t-45.5 -46.5t-67 -26t-81 -8q-62 0 -113.5 16t-98.5 46z" />
<glyph unicode="&#x164;" horiz-adv-x="1044" d="M81 1027v178h882v-178h-351v-1027h-180v1027h-351zM218 1557h142l164 -152l164 152h138l-201 -275h-206z" />
<glyph unicode="&#x165;" horiz-adv-x="679" d="M57 742v161h129v258l174 93v-351h223v-161h-223v-491q0 -32 5 -52.5t16.5 -33t29 -17.5t42.5 -5q34 0 70 11t60 25l-20 -156q-33 -19 -77 -30.5t-97 -11.5q-46 0 -81 13t-63.5 41t-43.5 74t-15 111v522h-129zM487 998l19 349h182l-105 -349h-96z" />
<glyph unicode="&#x16e;" horiz-adv-x="1211" d="M148 506v699h180v-694q0 -172 70 -260.5t206 -88.5q142 0 210.5 85.5t68.5 251.5v706h180v-703q0 -126 -30 -223.5t-89 -163.5t-145.5 -100t-197.5 -34q-112 0 -197 35t-141.5 102.5t-85.5 165t-29 222.5zM389 1434q0 46 16.5 86t45.5 69t69 45.5t86 16.5t86 -16.5 t69 -45.5t45.5 -69t16.5 -86q0 -47 -16.5 -86t-45.5 -68t-69 -45t-86 -16t-86 16t-69 45t-45.5 68t-16.5 86zM501 1434q0 -24 8 -43t22 -33.5t33 -22.5t42 -8t42 8t33 22.5t22 33.5t8 43q0 23 -8 42.5t-22 34t-33 22.5t-42 8t-42 -8t-33 -22.5t-22 -34t-8 -42.5z" />
<glyph unicode="&#x16f;" d="M123 386v517h178v-511q0 -124 44 -186t142 -62q89 0 137.5 60.5t48.5 170.5v528h177v-903h-177v86q-34 -47 -94.5 -76t-133.5 -29q-158 0 -240 101.5t-82 303.5zM273 1239q0 46 16.5 86t45.5 69t69 45.5t86 16.5t86 -16.5t69 -45.5t45.5 -69t16.5 -86q0 -47 -16.5 -86 t-45.5 -68t-69 -45t-86 -16t-86 16t-69 45t-45.5 68t-16.5 86zM385 1239q0 -24 8 -43t22 -33.5t33 -22.5t42 -8t42 8t33 22.5t22 33.5t8 43q0 23 -8 42.5t-22 34t-33 22.5t-42 8t-42 -8t-33 -22.5t-22 -34t-8 -42.5z" />
<glyph unicode="&#x170;" horiz-adv-x="1211" d="M148 506v699h180v-694q0 -172 70 -260.5t206 -88.5q142 0 210.5 85.5t68.5 251.5v706h180v-703q0 -126 -30 -223.5t-89 -163.5t-145.5 -100t-197.5 -34q-112 0 -197 35t-141.5 102.5t-85.5 165t-29 222.5zM356 1282l184 275h241l-284 -275h-141zM708 1282l184 275h242 l-284 -275h-142z" />
<glyph unicode="&#x171;" d="M123 386v517h178v-511q0 -124 44 -186t142 -62q89 0 137.5 60.5t48.5 170.5v528h177v-903h-177v86q-34 -47 -94.5 -76t-133.5 -29q-158 0 -240 101.5t-82 303.5zM219 1024l184 275h241l-284 -275h-141zM571 1024l184 275h242l-284 -275h-142z" />
<glyph unicode="&#x178;" horiz-adv-x="1185" d="M71 1205h211l312 -552l313 552h208l-432 -729v-476h-181v476zM310 1380q0 24 9.5 45t25.5 37t37 25.5t45 9.5q23 0 44 -9.5t37 -25.5t25.5 -37t9.5 -45q0 -23 -9.5 -44t-25.5 -37t-37 -25t-44 -9q-24 0 -45 9t-37 25t-25.5 37t-9.5 44zM645 1380q0 24 9.5 45t26 37 t37.5 25.5t45 9.5q23 0 44 -9.5t37 -25.5t25 -37t9 -45q0 -23 -9 -44t-25 -37t-37 -25t-44 -9q-24 0 -45 9t-37.5 25t-26 37t-9.5 44z" />
<glyph unicode="&#x179;" horiz-adv-x="1142" d="M103 0v176l714 861h-679v168h880v-176l-706 -862h706v-167h-915zM473 1282l184 275h241l-284 -275h-141z" />
<glyph unicode="&#x17a;" horiz-adv-x="906" d="M100 0v144l494 604h-460v155h662v-143l-484 -605h484v-155h-696zM355 1024l184 275h241l-284 -275h-141z" />
<glyph unicode="&#x17b;" horiz-adv-x="1142" d="M103 0v176l714 861h-679v168h880v-176l-706 -862h706v-167h-915zM454 1397q0 24 9.5 45t25.5 37t37 25.5t45 9.5t44.5 -9.5t36.5 -25.5t25 -37t9 -45q0 -23 -9 -44t-25 -37t-36.5 -25t-44.5 -9t-45 9t-37 25t-25.5 37t-9.5 44z" />
<glyph unicode="&#x17c;" horiz-adv-x="906" d="M100 0v144l494 604h-460v155h662v-143l-484 -605h484v-155h-696zM336 1139q0 24 9.5 45t25.5 37t37 25.5t45 9.5t44.5 -9.5t36.5 -25.5t25 -37t9 -45q0 -23 -9 -44t-25 -37t-36.5 -25t-44.5 -9t-45 9t-37 25t-25.5 37t-9.5 44z" />
<glyph unicode="&#x17d;" horiz-adv-x="1142" d="M103 0v176l714 861h-679v168h880v-176l-706 -862h706v-167h-915zM262 1557h142l164 -152l164 152h138l-201 -275h-206z" />
<glyph unicode="&#x17e;" horiz-adv-x="906" d="M100 0v144l494 604h-460v155h662v-143l-484 -605h484v-155h-696zM155 1299h142l164 -152l164 152h138l-201 -275h-206z" />
<glyph unicode="&#x218;" horiz-adv-x="1076" d="M89 176l129 125q31 -33 68 -59.5t77 -45t83 -28.5t86 -10q127 0 188 43.5t61 131.5q0 36 -14 63t-46 50t-84 44t-128 43q-96 29 -166.5 57.5t-117 67.5t-69.5 94t-23 136q0 78 31 140t84.5 105.5t126 66.5t155.5 23q69 -1 121.5 -12t101.5 -33.5t88.5 -50t82.5 -67.5 l-128 -129q-34 34 -62 52.5t-57.5 32t-69.5 22t-91 8.5q-53 0 -91 -12.5t-62.5 -32.5t-36 -47t-11.5 -58q0 -32 12 -56t41.5 -45.5t80.5 -42t129 -43.5q89 -27 160.5 -57t121.5 -71t76.5 -97.5t26.5 -137.5t-26 -148.5t-81 -115.5t-139 -74.5t-200 -26.5q-65 0 -126 13.5 t-115 39t-101.5 61.5t-85.5 81zM430 -412l14 331h183l-97 -331h-100z" />
<glyph unicode="&#x219;" horiz-adv-x="858" d="M77 97l81 133q64 -44 132 -66.5t132 -22.5q84 0 124 26t40 74q0 26 -14 46t-41.5 37t-66 33.5t-87.5 34.5q-73 29 -124 56.5t-82.5 60.5t-45 73t-13.5 94q0 61 22.5 107t63.5 76.5t97.5 46.5t124.5 16q86 0 165.5 -27.5t140.5 -72.5l-78 -136q-55 40 -111.5 59t-121.5 19 q-66 0 -95 -23.5t-29 -59.5q0 -17 7 -32t25.5 -30t51 -32t83.5 -37q75 -29 132 -56t95 -60t57.5 -77.5t19.5 -108.5q0 -75 -28 -126t-75 -82.5t-108 -45t-128 -13.5q-85 0 -179.5 31.5t-166.5 84.5zM327 -412l14 331h183l-97 -331h-100z" />
<glyph unicode="&#x21a;" horiz-adv-x="1044" d="M81 1027v178h882v-178h-351v-1027h-180v1027h-351zM417 -412l14 331h183l-97 -331h-100z" />
<glyph unicode="&#x21b;" horiz-adv-x="693" d="M57 742v161h129v258l174 93v-351h223v-161h-223v-491q0 -32 5 -52.5t16.5 -33t29 -17.5t42.5 -5q34 0 70 11t60 25l-20 -156q-33 -19 -77 -30.5t-97 -11.5q-46 0 -81 13t-63.5 41t-43.5 74t-15 111v522h-129zM249 -412l14 331h183l-97 -331h-100z" />
<glyph unicode="&#x2c6;" horiz-adv-x="860" d="M126 1024l201 275h206l201 -275h-142l-164 151l-163 -151h-139z" />
<glyph unicode="&#x2c7;" horiz-adv-x="860" d="M126 1299h142l164 -152l164 152h138l-201 -275h-206z" />
<glyph unicode="&#x2d8;" horiz-adv-x="860" d="M126 1299h127q10 -61 53.5 -95t125.5 -34q76 0 122.5 33t56.5 96h123q-5 -66 -28 -117t-62 -86.5t-93 -53.5t-123 -18q-65 0 -118 18t-92 53.5t-62.5 86.5t-29.5 117z" />
<glyph unicode="&#x2d9;" horiz-adv-x="860" d="M313 1139q0 24 9.5 45t25.5 37t37 25.5t45 9.5t44.5 -9.5t36.5 -25.5t25 -37t9 -45q0 -23 -9 -44t-25 -37t-36.5 -25t-44.5 -9t-45 9t-37 25t-25.5 37t-9.5 44z" />
<glyph unicode="&#x2da;" horiz-adv-x="860" d="M213 1239q0 46 16.5 86t45.5 69t69 45.5t86 16.5t86 -16.5t69 -45.5t45.5 -69t16.5 -86q0 -47 -16.5 -86t-45.5 -68t-69 -45t-86 -16t-86 16t-69 45t-45.5 68t-16.5 86zM325 1239q0 -24 8 -43t22 -33.5t33 -22.5t42 -8t42 8t33 22.5t22 33.5t8 43q0 23 -8 42.5t-22 34 t-33 22.5t-42 8t-42 -8t-33 -22.5t-22 -34t-8 -42.5z" />
<glyph unicode="&#x2db;" horiz-adv-x="860" d="M250 -208q0 32 12 62t33 56.5t50 49t64 40.5h174q-42 -22 -77 -45.5t-56.5 -45.5t-30 -42t-8.5 -34q0 -24 13 -38.5t40 -14.5q17 0 33.5 6.5t28.5 17.5l56 -88q-35 -29 -76 -44.5t-89 -15.5q-42 0 -73.5 11.5t-52.5 30.5t-31 43.5t-10 50.5z" />
<glyph unicode="&#x2dc;" horiz-adv-x="860" d="M115 1024q0 57 14 100.5t38 73t57 44.5t72 15q24 0 46.5 -4t46 -13t50 -23t60.5 -35q18 -10 35.5 -17t31.5 -7q29 0 45 21t22 73h122q0 -57 -14 -101t-37.5 -73.5t-57 -44.5t-71.5 -15q-25 0 -47 4t-45.5 13.5t-50.5 24t-61 35.5q-17 10 -35 16.5t-32 6.5 q-28 0 -44 -20.5t-22 -73.5h-123z" />
<glyph unicode="&#x2dd;" horiz-adv-x="860" d="M86 1024l184 275h241l-284 -275h-141zM438 1024l184 275h242l-284 -275h-142z" />
<glyph unicode="&#x384;" horiz-adv-x="868" d="M274 1024l168 275h243l-274 -275h-137z" />
<glyph unicode="&#x398;" horiz-adv-x="1250" d="M95 601q0 139 38 254t108 196.5t168 126.5t217 45t217 -45t167 -126.5t107.5 -196.5t38.5 -254q0 -141 -38.5 -255t-109.5 -195.5t-169 -125.5t-217 -44t-216.5 44t-166 125.5t-106.5 195.5t-38 255zM279 604q0 -103 25.5 -184.5t72 -139.5t110.5 -89t141 -31 q76 0 139.5 30.5t108.5 87.5t70.5 138.5t25.5 184.5q0 100 -25.5 182t-72.5 140t-111 89.5t-141 31.5t-140.5 -30.5t-108.5 -87.5t-69.5 -138.5t-24.5 -183.5zM433 545v176h384v-176h-384z" />
<glyph unicode="&#x3a8;" horiz-adv-x="1278" d="M100 743v462h181v-460q0 -123 71 -198t197 -88v746h180v-746q127 11 198 82.5t71 201.5v462h181v-460q0 -101 -31.5 -181t-90 -137.5t-142 -91.5t-186.5 -43v-292h-180v292q-108 5 -191 38t-140.5 90.5t-87.5 139t-30 183.5z" />
<glyph unicode="&#x3b8;" horiz-adv-x="986" d="M112 612q0 138 20 255t64.5 201.5t117 132.5t177.5 48q103 0 176 -48t119 -132.5t67 -201t21 -253.5q0 -139 -21.5 -255.5t-68 -200.5t-120 -130.5t-177.5 -46.5t-175.5 46.5t-116 130.5t-64 200t-19.5 254zM291 543q1 -86 11 -160.5t32.5 -129.5t60.5 -86t99 -31 q60 0 99 31.5t61 86.5t31.5 129.5t10.5 159.5h-405zM291 706h405q-4 82 -15 153t-34.5 123.5t-61.5 82.5t-96 30q-59 0 -96 -30.5t-58.5 -82.5t-31 -123.5t-12.5 -152.5z" />
<glyph unicode="&#x3c8;" horiz-adv-x="1242" d="M117 417v486h177v-486q0 -115 58 -185t181 -86v938l176 91v-1029q123 17 181 86.5t58 184.5v486h177v-481q0 -100 -28 -178t-81 -133t-130.5 -87t-176.5 -39v-226l-176 -91v317q-102 8 -177 38t-128 83t-82 129.5t-29 181.5z" />
<glyph unicode="&#x400;" horiz-adv-x="1058" d="M190 1601h241l184 -275h-141zM156 0v1205h776v-176h-595v-298h484v-175h-484v-380h621v-176h-802z" />
<glyph unicode="&#x401;" horiz-adv-x="1058" d="M156 0v1205h776v-176h-595v-298h484v-175h-484v-380h621v-176h-802zM251 1397q0 24 9.5 45t25.5 37t37 25.5t45 9.5q23 0 44 -9.5t37 -25.5t25.5 -37t9.5 -45q0 -23 -9.5 -44t-25.5 -37t-37 -25t-44 -9q-24 0 -45 9t-37 25t-25.5 37t-9.5 44zM586 1397q0 24 9.5 45t26 37 t37.5 25.5t45 9.5q23 0 44 -9.5t37 -25.5t25 -37t9 -45q0 -23 -9 -44t-25 -37t-37 -25t-44 -9q-24 0 -45 9t-37.5 25t-26 37t-9.5 44z" />
<glyph unicode="&#x402;" horiz-adv-x="1454" d="M81 1027v178h882v-178h-351v-268q22 25 53.5 44.5t69.5 33.5t80.5 21t85.5 7q107 0 183 -32.5t127.5 -95.5t76.5 -154t25 -215v-124q0 -168 -76.5 -271t-225.5 -149l-51 176q87 34 129.5 92.5t42.5 156.5v119q0 89 -17.5 150.5t-51 99.5t-82 55t-109.5 17 q-81 0 -150.5 -33.5t-109.5 -95.5v-561h-180v1027h-351z" />
<glyph unicode="&#x403;" horiz-adv-x="1001" d="M156 0v1205h776v-178h-595v-1027h-181zM337 1282l184 275h241l-284 -275h-141z" />
<glyph unicode="&#x404;" horiz-adv-x="1126" d="M100 602q0 137 35.5 251t102 196t160.5 128t211 46q147 0 247 -58t162 -167l-154 -97q-46 74 -105.5 110t-151.5 36q-68 0 -123 -23t-95 -66t-66 -105.5t-36 -140.5h547v-175h-552q6 -88 30.5 -158.5t65.5 -120t98.5 -76t130.5 -26.5q94 0 158 39t110 115l149 -98 q-33 -55 -74.5 -98t-95 -73t-114.5 -45t-131 -15q-117 0 -211 45.5t-160.5 128t-102 196.5t-35.5 251z" />
<glyph unicode="&#x405;" horiz-adv-x="1076" d="M89 176l129 125q31 -33 68 -59.5t77 -45t83 -28.5t86 -10q127 0 188 43.5t61 131.5q0 36 -14 63t-46 50t-84 44t-128 43q-96 29 -166.5 57.5t-117 67.5t-69.5 94t-23 136q0 78 31 140t84.5 105.5t126 66.5t155.5 23q69 -1 121.5 -12t101.5 -33.5t88.5 -50t82.5 -67.5 l-128 -129q-34 34 -62 52.5t-57.5 32t-69.5 22t-91 8.5q-53 0 -91 -12.5t-62.5 -32.5t-36 -47t-11.5 -58q0 -32 12 -56t41.5 -45.5t80.5 -42t129 -43.5q89 -27 160.5 -57t121.5 -71t76.5 -97.5t26.5 -137.5t-26 -148.5t-81 -115.5t-139 -74.5t-200 -26.5q-65 0 -126 13.5 t-115 39t-101.5 61.5t-85.5 81z" />
<glyph unicode="&#x406;" horiz-adv-x="510" d="M165 0v1205h181v-1205h-181z" />
<glyph unicode="&#x407;" horiz-adv-x="510" d="M165 0v1205h181v-1205h-181zM-26 1397q0 24 9.5 45t25.5 37t37 25.5t45 9.5q23 0 44 -9.5t37 -25.5t25.5 -37t9.5 -45q0 -23 -9.5 -44t-25.5 -37t-37 -25t-44 -9q-24 0 -45 9t-37 25t-25.5 37t-9.5 44zM309 1397q0 24 9.5 45t26 37t37.5 25.5t45 9.5q23 0 44 -9.5 t37 -25.5t25 -37t9 -45q0 -23 -9 -44t-25 -37t-37 -25t-44 -9q-24 0 -45 9t-37.5 25t-26 37t-9.5 44z" />
<glyph unicode="&#x408;" horiz-adv-x="1037" d="M41 301l176 52q17 -45 38 -78.5t49 -58.5t68 -39.5t94 -14.5q66 0 111.5 19t75 58.5t43 101.5t13.5 148v716h181v-730q0 -243 -105.5 -368.5t-323.5 -125.5q-85 0 -152.5 21.5t-119 63t-88.5 100.5t-60 135z" />
<glyph unicode="&#x409;" horiz-adv-x="1792" d="M5 156q76 36 119.5 94t57.5 156l114 799h712v-450h313q83 0 154 -23.5t123 -71t81.5 -118t29.5 -163.5t-29.5 -164t-82.5 -118.5t-126.5 -72t-160.5 -24.5h-483v1029h-376l-90 -628q-24 -169 -101 -272t-203 -148zM1008 171h310q104 0 155.5 55t51.5 153q0 94 -55 150 t-152 56h-310v-414z" />
<glyph unicode="&#x40a;" horiz-adv-x="1835" d="M156 0v1205h181v-450h520v450h180v-450h314q83 0 153.5 -23.5t122 -71t81 -118t29.5 -163.5t-29.5 -164t-82.5 -118.5t-126 -72t-161 -24.5h-481v585h-520v-585h-181zM1037 171h310q104 0 155 55t51 153q0 94 -54 150t-152 56h-310v-414z" />
<glyph unicode="&#x40b;" horiz-adv-x="1454" d="M81 1027v178h882v-178h-351v-249q22 25 53.5 45t69.5 33.5t80.5 21t85.5 7.5q105 0 181.5 -32.5t129 -97.5t77 -158t24.5 -210v-387h-181v387q0 89 -17.5 150.5t-51 99.5t-82 55t-109.5 17q-81 0 -150.5 -33.5t-109.5 -95.5v-580h-180v1027h-351z" />
<glyph unicode="&#x40c;" horiz-adv-x="1178" d="M156 0v1205h176v-615l492 615h205l-353 -438l430 -767h-205l-345 617l-224 -269v-348h-176zM414 1281l184 275h241l-284 -275h-141z" />
<glyph unicode="&#x40d;" horiz-adv-x="1228" d="M259 1601h241l184 -275h-141zM156 0v1205h181v-903l556 903h179v-1205h-181v902l-556 -902h-179z" />
<glyph unicode="&#x40e;" horiz-adv-x="1128" d="M41 1205h212l311 -641l313 641h203l-602 -1205h-191l186 363zM230 1520h131q5 -24 22 -44.5t43.5 -35.5t61 -23t76.5 -8t76.5 8t61 23t43.5 35.5t22 44.5h131q-4 -52 -30.5 -95.5t-70.5 -75.5t-103.5 -49.5t-129.5 -17.5q-69 0 -128.5 17.5t-103.5 49.5t-70.5 75.5 t-31.5 95.5z" />
<glyph unicode="&#x40f;" horiz-adv-x="1228" d="M156 0v1205h181v-1029h554v1029h181v-1205h-365l-12 -296h-172v296h-367z" />
<glyph unicode="&#x410;" horiz-adv-x="1224" d="M81 0l433 1205h192l438 -1205h-192l-102 286h-482l-100 -286h-187zM423 447h372l-188 537z" />
<glyph unicode="&#x411;" horiz-adv-x="1178" d="M156 0v1205h824v-176h-647v-291h327q94 0 167.5 -25t124 -73t76.5 -116.5t26 -153.5q0 -89 -24.5 -156.5t-77.5 -115.5t-129 -73t-181 -25h-486zM333 165h317q112 0 168 51t56 154q0 96 -57 150.5t-162 54.5h-322v-410z" />
<glyph unicode="&#x412;" horiz-adv-x="1160" d="M156 0v1205h496q79 0 142.5 -21t109 -60.5t70 -97.5t24.5 -135q0 -46 -12 -83.5t-32 -67t-48 -52t-61 -38.5q35 -10 71.5 -31.5t65.5 -56t47 -82t18 -110.5q0 -184 -107.5 -277t-304.5 -93h-479zM327 165h321q61 0 102.5 14.5t67 41t37.5 63t12 81.5q0 44 -12 78 t-37.5 62t-65 43.5t-98.5 15.5h-327v-399zM327 727h323q45 0 76.5 13t51.5 34t29.5 49t9.5 58q0 34 -9 62.5t-29 50t-51.5 33.5t-77.5 12h-323v-312z" />
<glyph unicode="&#x413;" horiz-adv-x="1001" d="M156 0v1205h776v-178h-595v-1027h-181z" />
<glyph unicode="&#x414;" horiz-adv-x="1190" d="M48 176h85q15 44 29 88t27.5 104t28 143.5t31.5 205.5l69 488h718v-1029h111v-472h-172l-12 296h-731l-12 -296h-172v472zM313 176h542v853h-382l-43 -312q-11 -81 -21 -145t-19.5 -114.5t-19 -89.5t-18.5 -72t-19 -62z" />
<glyph unicode="&#x415;" horiz-adv-x="1058" d="M156 0v1205h776v-176h-595v-298h484v-175h-484v-380h621v-176h-802z" />
<glyph unicode="&#x416;" horiz-adv-x="1811" d="M72 0l425 760l-358 445h210l467 -584v584h175v-584l466 584h205l-352 -438l430 -767h-205l-346 617l-198 -238v-379h-175v371l-204 246l-340 -617h-200z" />
<glyph unicode="&#x417;" horiz-adv-x="1030" d="M50 176l126 121q58 -65 144 -105.5t172 -40.5q66 0 113.5 16.5t78 44t45 64t14.5 77.5q0 37 -11.5 71.5t-36.5 61t-64 42t-93 15.5h-239v164h223q48 0 82 14.5t55.5 38t32 53.5t10.5 62q0 36 -11.5 68t-36.5 56.5t-63 39t-92 14.5q-91 0 -159 -29.5t-125 -89.5l-123 126 q80 77 176 120t219 43q104 0 179 -27t123.5 -72t72 -105.5t23.5 -128.5q0 -89 -42.5 -152t-120.5 -100q36 -10 72 -31.5t65.5 -57.5t48 -85t18.5 -113q0 -75 -26 -142t-81 -118t-139.5 -80.5t-201.5 -29.5q-131 0 -245.5 54.5t-182.5 140.5z" />
<glyph unicode="&#x418;" horiz-adv-x="1228" d="M156 0v1205h181v-903l556 903h179v-1205h-181v902l-556 -902h-179z" />
<glyph unicode="&#x419;" horiz-adv-x="1228" d="M156 0v1205h181v-903l556 903h179v-1205h-181v902l-556 -902h-179zM280 1520h131q5 -24 22 -44.5t43.5 -35.5t61 -23t76.5 -8t76.5 8t61 23t43.5 35.5t22 44.5h131q-4 -52 -30.5 -95.5t-70.5 -75.5t-103.5 -49.5t-129.5 -17.5q-69 0 -128.5 17.5t-103.5 49.5t-70.5 75.5 t-31.5 95.5z" />
<glyph unicode="&#x41a;" horiz-adv-x="1178" d="M156 0v1205h176v-615l492 615h205l-353 -438l430 -767h-205l-345 617l-224 -269v-348h-176z" />
<glyph unicode="&#x41b;" horiz-adv-x="1160" d="M2 156q39 19 69 42.5t51.5 53.5t35 65.5t21.5 88.5l113 799h714v-1205h-180v1029h-379l-89 -628q-13 -85 -37.5 -152.5t-63.5 -119t-89 -88.5t-115 -60z" />
<glyph unicode="&#x41c;" horiz-adv-x="1390" d="M156 0v1205h187l353 -839l345 839h192v-1205h-177v832l-366 -851l-363 851v-832h-171z" />
<glyph unicode="&#x41d;" horiz-adv-x="1228" d="M156 0v1205h181v-488h554v488h181v-1205h-181v537h-554v-537h-181z" />
<glyph unicode="&#x41e;" horiz-adv-x="1223" d="M98 601q0 140 37.5 255t105.5 196.5t162.5 126t208.5 44.5q115 0 209.5 -44t162 -125t104.5 -195.5t37 -254.5q0 -141 -37.5 -255.5t-105.5 -196.5t-163 -126.5t-210 -44.5q-114 0 -208 44t-161.5 125t-104.5 195t-37 256zM282 604q0 -103 25 -185t69 -139.5t105 -88.5 t133 -31q71 0 131.5 30t103.5 87t67.5 139t24.5 185q0 102 -25.5 184t-70 139.5t-105 88.5t-133.5 31q-71 0 -130.5 -30t-103 -87.5t-67.5 -139t-24 -183.5z" />
<glyph unicode="&#x41f;" horiz-adv-x="1228" d="M156 0v1205h916v-1205h-181v1029h-554v-1029h-181z" />
<glyph unicode="&#x420;" horiz-adv-x="1123" d="M156 0v1205h504q83 0 154 -24t123 -71t81 -118t29 -165q0 -93 -29 -163.5t-82 -118t-126 -72t-162 -24.5h-315v-449h-177zM333 619h324q104 0 155.5 55.5t51.5 152.5q0 50 -15 88.5t-42 65t-65 40t-85 13.5h-324v-415z" />
<glyph unicode="&#x421;" horiz-adv-x="1126" d="M100 602q0 137 35.5 251t102 196t160.5 128t211 46q147 0 247 -58t162 -167l-160 -100q-23 37 -47.5 64.5t-54 45t-65.5 26t-82 8.5q-79 0 -139.5 -30.5t-101 -88t-61.5 -139t-21 -182.5t21 -182.5t61.5 -139t101 -88t139.5 -30.5q94 0 156 38t109 112l150 -100 q-42 -68 -79.5 -103.5t-84 -63.5t-109 -46t-142.5 -18q-86 0 -154.5 22.5t-123.5 62t-100 98.5t-72 123t-43 143t-16 172z" />
<glyph unicode="&#x422;" horiz-adv-x="1044" d="M81 1027v178h882v-178h-351v-1027h-180v1027h-351z" />
<glyph unicode="&#x423;" horiz-adv-x="1128" d="M41 1205h212l311 -641l313 641h203l-602 -1205h-191l186 363z" />
<glyph unicode="&#x424;" horiz-adv-x="1546" d="M98 602q0 149 46.5 256t125.5 175.5t186.5 101t228.5 32.5v96h177v-96q121 0 228 -32.5t186.5 -101t125.5 -175.5t46 -256q0 -148 -47.5 -255.5t-127.5 -176t-186.5 -100.5t-224.5 -32v-98h-177v98q-119 0 -225 32t-186.5 100.5t-128 176t-47.5 255.5zM282 602 q0 -88 23 -160t71.5 -124.5t124.5 -81t184 -28.5v788q-108 0 -184 -28.5t-124.5 -80.5t-71.5 -124.5t-23 -160.5zM862 208q107 0 183 28.5t125 81t71.5 124.5t22.5 160t-22.5 160.5t-71.5 124.5t-125 80.5t-183 28.5v-788z" />
<glyph unicode="&#x425;" horiz-adv-x="1134" d="M95 0l373 622l-350 583h215l243 -428l245 428h211l-349 -582l374 -623h-216l-268 465l-266 -465h-212z" />
<glyph unicode="&#x426;" horiz-adv-x="1228" d="M156 0v1205h181v-1029h554v1029h181v-1029h112v-472h-173l-11 296h-844z" />
<glyph unicode="&#x427;" horiz-adv-x="1144" d="M107 942v263h180v-263q0 -89 18 -150t51 -99.5t81.5 -55t109.5 -16.5q40 0 78.5 8.5t72.5 25t62 40.5t47 55v455h181v-1205h-181v552q-22 -25 -53.5 -45t-69 -34t-80.5 -21t-87 -7q-106 0 -181.5 33.5t-128 98.5t-76.5 159t-24 206z" />
<glyph unicode="&#x428;" horiz-adv-x="1663" d="M156 0v1205h181v-1029h405v1029h180v-1029h404v1029h181v-1205h-1351z" />
<glyph unicode="&#x429;" horiz-adv-x="1663" d="M156 0v1205h181v-1029h405v1029h180v-1029h404v1029h181v-1029h112v-472h-173l-11 296h-1279z" />
<glyph unicode="&#x42a;" horiz-adv-x="1276" d="M0 1029v176h449v-450h313q83 0 154 -23.5t122.5 -71t81 -118t29.5 -163.5t-29.5 -164t-82.5 -118.5t-126.5 -72t-160.5 -24.5h-482v1029h-268zM449 171h310q104 0 155 55t51 153q0 94 -54 150t-152 56h-310v-414z" />
<glyph unicode="&#x42b;" horiz-adv-x="1575" d="M156 0v1205h181v-450h313q83 0 154 -23.5t123 -71t81 -118t29 -163.5t-29 -164t-82 -118.5t-126.5 -72t-161.5 -24.5h-482zM337 171h310q104 0 155 55t51 153q0 96 -55 151t-151 55h-310v-414zM1239 0v1205h181v-1205h-181z" />
<glyph unicode="&#x42c;" horiz-adv-x="1164" d="M156 0v1205h181v-450h313q83 0 154 -23.5t123 -71t81 -118t29 -163.5t-29 -164t-82 -118.5t-126.5 -72t-161.5 -24.5h-482zM337 171h310q104 0 155 55t51 153q0 96 -55 151t-151 55h-310v-414z" />
<glyph unicode="&#x42d;" horiz-adv-x="1126" d="M103 212l148 98q47 -76 110.5 -115t157.5 -39q73 0 130.5 26.5t99 76t65.5 120t31 158.5h-553v175h547q-11 78 -36.5 140.5t-66 105.5t-95 66t-122.5 23q-92 0 -152 -36.5t-104 -109.5l-155 97q33 54 71 94t92 71t117.5 45.5t138.5 14.5q119 0 212 -46t157 -128 t97.5 -196t33.5 -251t-35.5 -251t-102 -196.5t-161 -128t-211.5 -45.5q-71 0 -127.5 13.5t-112 44t-98.5 73.5t-76 100z" />
<glyph unicode="&#x42e;" horiz-adv-x="1680" d="M156 0v1205h181v-488h226q15 116 58 209.5t108.5 159.5t152 101.5t188.5 35.5q114 0 208.5 -44t162.5 -125t105 -195.5t37 -254.5q0 -141 -38 -255.5t-106 -196.5t-163 -126.5t-209 -44.5q-108 0 -197.5 39.5t-156.5 111.5t-107 175t-48 230h-221v-537h-181zM740 604 q0 -103 25 -185t69 -139.5t105 -88.5t133 -31q71 0 131 30t103.5 87t68 139t24.5 185q0 102 -25.5 184t-70 139.5t-105.5 88.5t-133 31t-131.5 -30t-102.5 -87.5t-67 -139t-24 -183.5z" />
<glyph unicode="&#x42f;" horiz-adv-x="1178" d="M74 0l256 516q-88 40 -138.5 121.5t-50.5 203.5q0 91 28 159t78 113t118.5 68.5t148.5 23.5h504v-1205h-177v476h-332l-235 -476h-200zM325 837q0 -91 49 -144t148 -53h319v394h-319q-45 0 -81.5 -13t-62 -38t-39.5 -61.5t-14 -84.5z" />
<glyph unicode="&#x430;" horiz-adv-x="945" d="M87 286q0 75 27.5 130t76 91t114 53.5t142.5 17.5q71 0 120 -9.5t81 -25.5v68q0 74 -43.5 113.5t-126.5 39.5q-70 0 -126 -13.5t-109 -43.5l-69 134q65 40 139 60.5t170 20.5q76 0 138.5 -18.5t107 -56t69 -94.5t24.5 -134v-619h-174v89q-34 -32 -56.5 -46.5t-47 -27.5 t-62 -23.5t-81.5 -10.5q-55 0 -111 16t-101 53t-73.5 94.5t-28.5 141.5zM256 291q0 -41 14.5 -69t36 -45.5t51.5 -26.5t72 -9q35 0 68 10t61.5 26.5t51 37t37.5 41.5v130q-25 11 -45 17.5t-42 11t-52.5 7.5t-66.5 3q-86 0 -136 -36t-50 -98z" />
<glyph unicode="&#x431;" horiz-adv-x="999" d="M131 442v318q0 117 42 209t115.5 155.5t174 96.5t217.5 33q37 0 77.5 4t90.5 13v-155q-37 -7 -80 -11.5t-88 -4.5q-87 0 -157.5 -26.5t-120.5 -71t-77.5 -104t-27.5 -125.5q45 64 102.5 97t133.5 33q85 0 155 -33t119.5 -92.5t76.5 -144t27 -188.5q0 -110 -30 -196 t-83 -145.5t-125 -91t-157 -31.5q-83 0 -153.5 33t-122 93.5t-80.5 146t-29 188.5zM304 447q0 -73 16 -129.5t44.5 -94.5t68.5 -58.5t89 -20.5q48 0 87 24t67 64t43 94t15 114q0 68 -15 123.5t-44 94.5t-70 60.5t-93 21.5q-47 0 -86 -21t-66 -59.5t-41.5 -93t-14.5 -119.5z " />
<glyph unicode="&#x432;" horiz-adv-x="932" d="M131 0v903h440q59 0 107 -15t82 -45t52.5 -74t18.5 -101q0 -61 -30 -107t-90 -74q26 -7 52 -23t47 -42t34 -62t13 -83q0 -63 -17.5 -113.5t-57 -87.5t-97 -56.5t-138.5 -19.5h-416zM304 146h234q73 0 107.5 33t34.5 95q0 59 -36 93.5t-102 34.5h-238v-256zM304 549h236 q53 0 82.5 28.5t29.5 74.5q0 48 -28 76.5t-84 28.5h-236v-208z" />
<glyph unicode="&#x433;" horiz-adv-x="745" d="M131 0v903h607v-155h-430v-748h-177z" />
<glyph unicode="&#x434;" horiz-adv-x="942" d="M12 146h65q11 35 21.5 68.5t21 79t22 108.5t23.5 156l48 345h606v-757h84v-387h-169l-10 241h-533l-10 -241h-169v387zM249 146h393v611h-277l-28 -199q-14 -93 -24.5 -156t-21 -108.5t-20.5 -79t-22 -68.5z" />
<glyph unicode="&#x435;" horiz-adv-x="953" d="M87 451q0 114 29 202.5t81 148t125.5 90t160.5 30.5q97 0 168 -36.5t118 -98t71 -144t24 -173.5q0 -25 -2 -46t-4 -35h-597q8 -66 29 -112.5t51 -76.5t68.5 -44.5t79.5 -14.5q29 0 55 5t50 15t42.5 20.5t48.5 31.5l105 -113q-34 -32 -64.5 -51.5t-66.5 -35.5t-81 -24 t-100 -8q-59 0 -110 16t-90.5 42.5t-71 60.5t-60 87.5t-44 119.5t-15.5 144zM265 535h420q-4 46 -17 87.5t-38.5 72.5t-64.5 49t-94 18q-47 0 -82 -15.5t-60.5 -44t-42 -70t-21.5 -97.5z" />
<glyph unicode="&#x436;" horiz-adv-x="1379" d="M74 0l269 596l-233 307h205l287 -401v401l176 93v-494l285 401h201l-228 -302l271 -601h-192l-199 449l-138 -183v-266h-177v266l-142 183l-196 -449h-189z" />
<glyph unicode="&#x437;" horiz-adv-x="801" d="M28 97l79 133q62 -48 128.5 -72t129.5 -24q48 0 83 11t57.5 30t33 44t10.5 53q0 25 -9 48.5t-28 42t-48.5 29t-69.5 10.5h-181v147h173q36 0 62.5 9t43.5 24t25 34t8 39q0 23 -9 43.5t-27.5 36t-47.5 25t-70 9.5q-65 0 -122 -20.5t-115 -62.5l-77 136q61 45 140.5 72.5 t165.5 27.5q88 0 151 -20t104 -54.5t60.5 -80.5t19.5 -98q0 -36 -11 -65t-30 -52.5t-45.5 -41.5t-57.5 -30q30 -7 60.5 -24t55.5 -44t40.5 -64.5t15.5 -86.5q0 -57 -22 -108t-67.5 -89t-115 -60.5t-165.5 -22.5q-92 0 -184 36.5t-144 79.5z" />
<glyph unicode="&#x438;" d="M131 0v903h177v-611l372 611h177v-903h-177v610l-372 -610h-177z" />
<glyph unicode="&#x439;" d="M131 0v903h177v-611l372 611h177v-903h-177v610l-372 -610h-177zM192 1205h119q5 -22 20 -41t38.5 -32.5t55 -21t68.5 -7.5q39 0 69.5 7.5t54.5 21t38.5 32t19.5 41.5h120q-6 -47 -29.5 -86.5t-63.5 -68.5t-93 -44.5t-116 -15.5q-62 0 -115.5 15.5t-93 44.5t-64 68.5 t-28.5 86.5z" />
<glyph unicode="&#x43a;" horiz-adv-x="909" d="M131 0v903l177 93v-494l286 401h201l-229 -302l271 -601h-192l-200 449l-137 -183v-266h-177z" />
<glyph unicode="&#x43b;" horiz-adv-x="965" d="M13 136q58 22 94.5 62.5t45.5 105.5l83 599h605v-903h-177v748h-275l-64 -447q-18 -130 -87 -208t-179 -112z" />
<glyph unicode="&#x43c;" horiz-adv-x="1154" d="M131 0v903h225l227 -538l222 538h226v-903h-178v618l-273 -631l-272 631v-618h-177z" />
<glyph unicode="&#x43d;" d="M131 0v903h177v-345h372v345h177v-903h-177v402h-372v-402h-177z" />
<glyph unicode="&#x43e;" d="M87 451q0 111 31.5 198.5t85.5 148t127.5 92.5t159.5 32t159.5 -33t127.5 -94t84.5 -147t30.5 -192q0 -112 -31 -200.5t-85.5 -149.5t-129.5 -93t-161 -32t-158.5 33.5t-126 95t-84 148.5t-30.5 193zM266 456q0 -75 16.5 -132t46.5 -95.5t71.5 -58.5t91.5 -20 q51 0 91.5 23.5t69.5 64.5t45 96t16 117q0 69 -16 125t-46 95.5t-72.5 60.5t-96.5 21q-50 0 -90 -21t-68 -60t-43.5 -94t-15.5 -122z" />
<glyph unicode="&#x43f;" d="M131 0v903h726v-903h-177v748h-372v-748h-177z" />
<glyph unicode="&#x440;" d="M131 -332v1235h176v-86q48 46 105.5 75.5t129.5 29.5q73 0 136.5 -27t110.5 -86t74 -151t27 -221q0 -116 -29.5 -201.5t-79 -142.5t-113.5 -84.5t-135 -27.5q-59 0 -118.5 26t-107.5 77v-325zM304 263q15 -20 37.5 -41t50 -38.5t59 -28.5t65.5 -11q96 0 146 72t50 216 q0 169 -52.5 248t-150.5 79q-55 0 -108.5 -31t-96.5 -85v-380z" />
<glyph unicode="&#x441;" horiz-adv-x="897" d="M87 449q0 112 31 200.5t84.5 148.5t126 92t154.5 32q100 0 178.5 -39t141.5 -114l-105 -126q-32 32 -54.5 50t-50 32.5t-55.5 21t-60 6.5q-48 0 -87 -21t-66.5 -59.5t-43 -94t-15.5 -124.5q0 -66 14.5 -122t41.5 -96.5t67.5 -63t93.5 -22.5q32 0 58 7t50 21t47 35t50 48 l113 -111q-27 -34 -57.5 -64.5t-69 -54t-87 -37t-109.5 -13.5q-82 0 -153.5 33.5t-124 95t-83 148t-30.5 191.5z" />
<glyph unicode="&#x442;" horiz-adv-x="756" d="M23 748v155h725v-155h-275v-748h-177v748h-273z" />
<glyph unicode="&#x443;" horiz-adv-x="956" d="M57 903h194l227 -680l234 680h188l-455 -1221h-187l131 335z" />
<glyph unicode="&#x444;" horiz-adv-x="1408" d="M92 437q0 129 23.5 221t66 151t100 86t122.5 27q64 0 116 -29.5t96 -75.5v344l177 93v-437q44 46 96.5 75.5t115.5 29.5q65 0 122.5 -27t99.5 -86t66.5 -151t24.5 -221q0 -116 -26.5 -201.5t-70.5 -142.5t-102 -84.5t-121 -27.5q-54 0 -107.5 26.5t-97.5 76.5v-325 l-177 -91v416q-39 -47 -94 -75t-111 -28q-63 0 -121 27.5t-102 84.5t-70 142.5t-26 201.5zM268 432q0 -144 43 -216t126 -72q49 0 98.5 34.5t81.5 84.5v380q-37 53 -81.5 84.5t-93.5 31.5q-39 0 -71 -17.5t-55.5 -57t-35.5 -99t-12 -153.5zM791 263q29 -46 80 -82.5 t101 -36.5q83 0 126 72t43 216q0 105 -10.5 155.5t-34.5 92t-56.5 60.5t-72.5 19q-51 0 -96.5 -32.5t-79.5 -83.5v-380z" />
<glyph unicode="&#x445;" horiz-adv-x="913" d="M69 0l284 468l-266 435h205l166 -299l164 299h204l-267 -435l286 -468h-210l-181 327l-186 -327h-199z" />
<glyph unicode="&#x446;" d="M131 0v903h177v-748h372v748h177v-748h85v-398l-171 -89v332h-640z" />
<glyph unicode="&#x447;" horiz-adv-x="915" d="M89 701v202h177v-202q0 -63 12 -105.5t34 -69t54.5 -38.5t73.5 -12q53 0 100.5 22.5t73.5 62.5v342h177v-903h-177v402q-16 -20 -39.5 -36.5t-52 -28t-60.5 -18t-65 -6.5q-152 0 -230 97.5t-78 290.5z" />
<glyph unicode="&#x448;" horiz-adv-x="1480" d="M131 0v903h177v-748h347v748h177v-748h348v748h177v-903h-1226z" />
<glyph unicode="&#x449;" horiz-adv-x="1480" d="M131 0v903h177v-748h347v748h177v-748h348v748h177v-748h86v-398l-172 -89v332h-1140z" />
<glyph unicode="&#x44a;" horiz-adv-x="992" d="M0 757v146h392v-318h250q64 0 119 -18t94.5 -55t62.5 -91.5t23 -126.5t-23 -127t-63.5 -92t-97.5 -56t-125 -19h-417v757h-215zM392 146h225q74 0 110.5 39.5t36.5 106.5q0 72 -39.5 109t-107.5 37h-225v-292z" />
<glyph unicode="&#x44b;" horiz-adv-x="1328" d="M131 0v903h177v-318h250q64 0 119 -18t94.5 -55t62.5 -91.5t23 -126.5t-23 -127t-64 -92t-98 -56t-125 -19h-416zM308 146h225q74 0 110.5 39.5t36.5 106.5q0 72 -39.5 109t-107.5 37h-225v-292zM1020 0v903h177v-903h-177z" />
<glyph unicode="&#x44c;" horiz-adv-x="908" d="M131 0v903h177v-318h250q64 0 119 -18t94.5 -55t62.5 -91.5t23 -126.5t-23 -127t-64 -92t-98 -56t-125 -19h-416zM308 146h225q74 0 110.5 39.5t36.5 106.5q0 72 -39.5 109t-107.5 37h-225v-292z" />
<glyph unicode="&#x44d;" horiz-adv-x="897" d="M95 769q65 75 145.5 114t182.5 39q84 0 155.5 -32t123 -92t80.5 -148.5t29 -200.5q0 -105 -30.5 -191.5t-83 -148t-124 -95t-153.5 -33.5q-61 0 -109.5 13.5t-87 37t-69.5 54t-57 64.5l110 108q47 -54 95 -84.5t113 -30.5q89 0 145.5 68t69.5 191h-369v147h363 q-18 99 -71.5 155t-132.5 56q-61 0 -114.5 -27t-109.5 -86z" />
<glyph unicode="&#x44e;" horiz-adv-x="1364" d="M131 0v903h177v-345h170q14 86 50 154t88 114.5t118 71t140 24.5q86 0 160 -33t127.5 -94t84.5 -147t31 -192q0 -112 -31 -200.5t-86 -149.5t-129.5 -93t-161.5 -32q-81 0 -150.5 30t-122 85t-84.5 133t-39 173h-165v-402h-177zM650 456q0 -75 16.5 -132t46.5 -95.5 t71 -58.5t91 -20q51 0 92 23.5t70 64.5t45 96t16 117q0 69 -16 125t-46 95.5t-72.5 60.5t-96.5 21q-51 0 -91 -21t-68 -60t-43 -94t-15 -122z" />
<glyph unicode="&#x44f;" horiz-adv-x="949" d="M50 0l193 387q-67 30 -105 91t-38 154q0 68 21.5 118.5t59 84.5t88.5 51t112 17h445v-903h-174v358h-235l-178 -358h-189zM277 630q0 -59 31.5 -92.5t93.5 -33.5h250v253h-250q-57 0 -91 -32.5t-34 -94.5z" />
<glyph unicode="&#x450;" horiz-adv-x="953" d="M128 1300h241l184 -275h-141zM87 451q0 114 29 202.5t81 148t125.5 90t160.5 30.5q97 0 168 -36.5t118 -98t71 -144t24 -173.5q0 -25 -2 -46t-4 -35h-597q8 -66 29 -112.5t51 -76.5t68.5 -44.5t79.5 -14.5q29 0 55 5t50 15t42.5 20.5t48.5 31.5l105 -113 q-34 -32 -64.5 -51.5t-66.5 -35.5t-81 -24t-100 -8q-59 0 -110 16t-90.5 42.5t-71 60.5t-60 87.5t-44 119.5t-15.5 144zM265 535h420q-4 46 -17 87.5t-38.5 72.5t-64.5 49t-94 18q-47 0 -82 -15.5t-60.5 -44t-42 -70t-21.5 -97.5z" />
<glyph unicode="&#x451;" horiz-adv-x="953" d="M87 451q0 114 29 202.5t81 148t125.5 90t160.5 30.5q97 0 168 -36.5t118 -98t71 -144t24 -173.5q0 -25 -2 -46t-4 -35h-597q8 -66 29 -112.5t51 -76.5t68.5 -44.5t79.5 -14.5q29 0 55 5t50 15t42.5 20.5t48.5 31.5l105 -113q-34 -32 -64.5 -51.5t-66.5 -35.5t-81 -24 t-100 -8q-59 0 -110 16t-90.5 42.5t-71 60.5t-60 87.5t-44 119.5t-15.5 144zM265 535h420q-4 46 -17 87.5t-38.5 72.5t-64.5 49t-94 18q-47 0 -82 -15.5t-60.5 -44t-42 -70t-21.5 -97.5zM191 1132q0 24 9.5 45t25.5 37t37 25.5t45 9.5q23 0 44 -9.5t37 -25.5t25.5 -37 t9.5 -45q0 -23 -9.5 -44t-25.5 -37t-37 -25t-44 -9q-24 0 -45 9t-37 25t-25.5 37t-9.5 44zM526 1132q0 24 9.5 45t26 37t37.5 25.5t45 9.5q23 0 44 -9.5t37 -25.5t25 -37t9 -45q0 -23 -9 -44t-25 -37t-37 -25t-44 -9q-24 0 -45 9t-37.5 25t-26 37t-9.5 44z" />
<glyph unicode="&#x452;" horiz-adv-x="992" d="M0 1000v111h143v50l177 93v-143h371v-111h-371v-258q36 50 95.5 77.5t131.5 27.5q82 0 141.5 -26.5t100 -77.5t60.5 -128t20 -173v-355q0 -169 -69.5 -271t-205.5 -148l-45 155q72 34 107 92.5t35 156.5v363q0 68 -12.5 115.5t-36.5 77t-58.5 42.5t-77.5 13t-77.5 -14.5 t-58.5 -43.5t-37 -70.5t-13 -101.5v-453h-177v1000h-143z" />
<glyph unicode="&#x453;" horiz-adv-x="745" d="M131 0v903h607v-155h-430v-748h-177zM245 1024l168 275h243l-274 -275h-137z" />
<glyph unicode="&#x454;" horiz-adv-x="897" d="M87 449q0 112 31 200.5t84.5 148.5t126 92t154.5 32q51 0 95.5 -10t86 -31t73 -47.5t65.5 -64.5l-101 -122q-31 33 -56.5 53t-52.5 33.5t-56 20t-59 6.5q-81 0 -134.5 -56t-71.5 -155h365v-147h-371q9 -111 65.5 -185t151.5 -74q32 0 58.5 7t51 21.5t48 35.5t50.5 51 l110 -108q-27 -34 -57.5 -64.5t-69 -54t-87 -37t-109.5 -13.5q-82 0 -153.5 33.5t-124 95t-83 148t-30.5 191.5z" />
<glyph unicode="&#x455;" horiz-adv-x="858" d="M77 97l81 133q64 -44 132 -66.5t132 -22.5q84 0 124 26t40 74q0 26 -14 46t-41.5 37t-66 33.5t-87.5 34.5q-73 29 -124 56.5t-82.5 60.5t-45 73t-13.5 94q0 61 22.5 107t63.5 76.5t97.5 46.5t124.5 16q86 0 165.5 -27.5t140.5 -72.5l-78 -136q-55 40 -111.5 59t-121.5 19 q-66 0 -95 -23.5t-29 -59.5q0 -17 7 -32t25.5 -30t51 -32t83.5 -37q75 -29 132 -56t95 -60t57.5 -77.5t19.5 -108.5q0 -75 -28 -126t-75 -82.5t-108 -45t-128 -13.5q-85 0 -179.5 31.5t-166.5 84.5z" />
<glyph unicode="&#x456;" horiz-adv-x="456" d="M113 1134q0 24 9.5 45t25 36.5t36.5 24.5t44 9q24 0 44.5 -9t36 -24.5t25 -36.5t9.5 -45t-9.5 -44.5t-25 -36t-36 -24.5t-44.5 -9q-23 0 -44 9t-36.5 24.5t-25 36t-9.5 44.5zM139 0v903h178v-903h-178z" />
<glyph unicode="&#x457;" horiz-adv-x="456" d="M138 0v903h177v-903h-177zM-57 1124q0 24 9.5 45t25.5 37t37 25.5t45 9.5q23 0 44 -9.5t37 -25.5t25.5 -37t9.5 -45q0 -23 -9.5 -44t-25.5 -37t-37 -25t-44 -9q-24 0 -45 9t-37 25t-25.5 37t-9.5 44zM278 1124q0 24 9.5 45t26 37t37.5 25.5t45 9.5q23 0 44 -9.5t37 -25.5 t25 -37t9 -45q0 -23 -9 -44t-25 -37t-37 -25t-44 -9q-24 0 -45 9t-37.5 25t-26 37t-9.5 44z" />
<glyph unicode="&#x458;" horiz-adv-x="456" d="M-50 -198q62 17 99.5 34.5t57.5 43t26 63t6 95.5v865h178v-862q0 -85 -13 -146.5t-47 -105.5t-94 -72.5t-153 -48.5zM113 1134q0 24 9.5 45t25 36.5t36.5 24.5t44 9q24 0 44.5 -9t36 -24.5t25 -36.5t9.5 -45t-9.5 -44.5t-25 -36t-36 -24.5t-44.5 -9q-23 0 -44 9 t-36.5 24.5t-25 36t-9.5 44.5z" />
<glyph unicode="&#x459;" horiz-adv-x="1460" d="M10 136q57 22 93.5 62.5t46.5 105.5l82 599h611v-318h249q65 0 120 -18t95 -55t62.5 -91.5t22.5 -126.5t-22.5 -127t-64 -92t-98.5 -56t-125 -19h-416v748h-280l-64 -447q-19 -130 -88 -208t-179 -112zM843 146h225q74 0 110.5 39.5t36.5 106.5q0 72 -39.5 109t-107.5 37 h-225v-292z" />
<glyph unicode="&#x45a;" horiz-adv-x="1475" d="M131 0v903h177v-318h372v318h177v-318h249q65 0 119.5 -18t94.5 -55t62.5 -91.5t22.5 -126.5t-22.5 -127t-63.5 -92t-98 -56t-125 -19h-416v438h-372v-438h-177zM857 146h225q74 0 110 39.5t36 106.5q0 72 -39 109t-107 37h-225v-292z" />
<glyph unicode="&#x45b;" horiz-adv-x="992" d="M0 1000v111h143v50l177 93v-143h371v-111h-371v-258q36 50 95.5 77.5t131.5 27.5q82 0 141.5 -26.5t100 -77.5t60.5 -128t20 -173v-442h-178v435q0 68 -12.5 115.5t-36.5 77t-58.5 42.5t-77.5 13t-77.5 -14.5t-58.5 -43.5t-37 -70.5t-13 -101.5v-453h-177v1000h-143z" />
<glyph unicode="&#x45c;" horiz-adv-x="909" d="M131 0v903l177 93v-494l286 401h201l-229 -302l271 -601h-192l-200 449l-137 -183v-266h-177zM308 1024l184 275h241l-284 -275h-141z" />
<glyph unicode="&#x45d;" d="M139 1300h241l184 -275h-141zM131 0v903h177v-611l372 611h177v-903h-177v610l-372 -610h-177z" />
<glyph unicode="&#x45e;" horiz-adv-x="956" d="M57 903h194l227 -680l234 680h188l-455 -1221h-187l131 335zM177 1205h119q5 -22 20 -41t38.5 -32.5t55 -21t68.5 -7.5q39 0 69.5 7.5t54.5 21t38.5 32t19.5 41.5h120q-6 -47 -29.5 -86.5t-63.5 -68.5t-93 -44.5t-116 -15.5q-62 0 -115.5 15.5t-93 44.5t-64 68.5 t-28.5 86.5z" />
<glyph unicode="&#x45f;" d="M131 0v903h177v-748h372v748h177v-903h-277v-243l-173 -89v332h-276z" />
<glyph unicode="&#x470;" horiz-adv-x="1278" d="M100 743v462h181v-460q0 -123 71 -198t197 -88v746h180v-746q127 11 198 82.5t71 201.5v462h181v-460q0 -101 -31.5 -181t-90 -137.5t-142 -91.5t-186.5 -43v-292h-180v292q-108 5 -191 38t-140.5 90.5t-87.5 139t-30 183.5z" />
<glyph unicode="&#x471;" horiz-adv-x="1242" d="M117 417v486h177v-486q0 -115 58 -185t181 -86v938l176 91v-1029q123 17 181 86.5t58 184.5v486h177v-481q0 -100 -28 -178t-81 -133t-130.5 -87t-176.5 -39v-226l-176 -91v317q-102 8 -177 38t-128 83t-82 129.5t-29 181.5z" />
<glyph unicode="&#x490;" horiz-adv-x="1001" d="M156 0v1205h604v151l172 89v-418h-595v-1027h-181z" />
<glyph unicode="&#x491;" horiz-adv-x="766" d="M131 0v903h449v151l158 83v-389h-430v-748h-177z" />
<glyph unicode="&#x4ae;" horiz-adv-x="1185" d="M71 1205h211l312 -552l313 552h208l-432 -729v-476h-181v476z" />
<glyph unicode="&#x4c0;" horiz-adv-x="510" d="M165 0v1205h181v-1205h-181z" />
<glyph unicode="&#x4c1;" horiz-adv-x="1811" d="M596 1601h127q10 -61 53.5 -95t125.5 -34q76 0 122.5 33t56.5 96h123q-5 -66 -28 -117t-62 -86.5t-93 -53.5t-123 -18q-65 0 -118 18t-92 53.5t-62.5 86.5t-29.5 117zM72 0l425 760l-358 445h210l467 -584v584h175v-584l466 584h205l-352 -438l430 -767h-205l-346 617 l-198 -238v-379h-175v371l-204 246l-340 -617h-200z" />
<glyph unicode="&#x4c2;" horiz-adv-x="1379" d="M474 1374h127q10 -61 53.5 -95t125.5 -34q76 0 122.5 33t56.5 96h123q-5 -66 -28 -117t-62 -86.5t-93 -53.5t-123 -18q-65 0 -118 18t-92 53.5t-62.5 86.5t-29.5 117zM74 0l269 596l-233 307h205l287 -401v401l176 93v-494l285 401h201l-228 -302l271 -601h-192l-199 449 l-138 -183v-266h-177v266l-142 183l-196 -449h-189z" />
<glyph unicode="&#x4d0;" horiz-adv-x="1224" d="M306 1601h127q10 -61 53.5 -95t125.5 -34q76 0 122.5 33t56.5 96h123q-5 -66 -28 -117t-62 -86.5t-93 -53.5t-123 -18q-65 0 -118 18t-92 53.5t-62.5 86.5t-29.5 117zM81 0l433 1205h192l438 -1205h-192l-102 286h-482l-100 -286h-187zM423 447h372l-188 537z" />
<glyph unicode="&#x4d1;" horiz-adv-x="945" d="M179 1300h127q10 -61 53.5 -95t125.5 -34q76 0 122.5 33t56.5 96h123q-5 -66 -28 -117t-62 -86.5t-93 -53.5t-123 -18q-65 0 -118 18t-92 53.5t-62.5 86.5t-29.5 117zM87 286q0 75 27.5 130t76 91t114 53.5t142.5 17.5q71 0 120 -9.5t81 -25.5v68q0 74 -43.5 113.5 t-126.5 39.5q-70 0 -126 -13.5t-109 -43.5l-69 134q65 40 139 60.5t170 20.5q76 0 138.5 -18.5t107 -56t69 -94.5t24.5 -134v-619h-174v89q-34 -32 -56.5 -46.5t-47 -27.5t-62 -23.5t-81.5 -10.5q-55 0 -111 16t-101 53t-73.5 94.5t-28.5 141.5zM256 291q0 -41 14.5 -69 t36 -45.5t51.5 -26.5t72 -9q35 0 68 10t61.5 26.5t51 37t37.5 41.5v130q-25 11 -45 17.5t-42 11t-52.5 7.5t-66.5 3q-86 0 -136 -36t-50 -98z" />
<glyph unicode="&#x4d2;" horiz-adv-x="1224" d="M326 1441q0 24 9.5 45t25.5 37t37 25.5t45 9.5q23 0 44 -9.5t37 -25.5t25.5 -37t9.5 -45q0 -23 -9.5 -44t-25.5 -37t-37 -25t-44 -9q-24 0 -45 9t-37 25t-25.5 37t-9.5 44zM661 1441q0 24 9.5 45t26 37t37.5 25.5t45 9.5q23 0 44 -9.5t37 -25.5t25 -37t9 -45 q0 -23 -9 -44t-25 -37t-37 -25t-44 -9q-24 0 -45 9t-37.5 25t-26 37t-9.5 44zM81 0l433 1205h192l438 -1205h-192l-102 286h-482l-100 -286h-187zM423 447h372l-188 537z" />
<glyph unicode="&#x4d3;" horiz-adv-x="945" d="M199 1140q0 24 9.5 45t25.5 37t37 25.5t45 9.5q23 0 44 -9.5t37 -25.5t25.5 -37t9.5 -45q0 -23 -9.5 -44t-25.5 -37t-37 -25t-44 -9q-24 0 -45 9t-37 25t-25.5 37t-9.5 44zM534 1140q0 24 9.5 45t26 37t37.5 25.5t45 9.5q23 0 44 -9.5t37 -25.5t25 -37t9 -45 q0 -23 -9 -44t-25 -37t-37 -25t-44 -9q-24 0 -45 9t-37.5 25t-26 37t-9.5 44zM87 286q0 75 27.5 130t76 91t114 53.5t142.5 17.5q71 0 120 -9.5t81 -25.5v68q0 74 -43.5 113.5t-126.5 39.5q-70 0 -126 -13.5t-109 -43.5l-69 134q65 40 139 60.5t170 20.5q76 0 138.5 -18.5 t107 -56t69 -94.5t24.5 -134v-619h-174v89q-34 -32 -56.5 -46.5t-47 -27.5t-62 -23.5t-81.5 -10.5q-55 0 -111 16t-101 53t-73.5 94.5t-28.5 141.5zM256 291q0 -41 14.5 -69t36 -45.5t51.5 -26.5t72 -9q35 0 68 10t61.5 26.5t51 37t37.5 41.5v130q-25 11 -45 17.5t-42 11 t-52.5 7.5t-66.5 3q-86 0 -136 -36t-50 -98z" />
<glyph unicode="&#x4d4;" horiz-adv-x="1751" d="M24 0l808 1205h793v-176h-594v-298h481v-175h-481v-380h620v-176h-794v282h-446l-186 -282h-201zM522 449h335v507z" />
<glyph unicode="&#x4d5;" horiz-adv-x="1462" d="M87 286q0 74 28.5 129.5t77 92t115 54.5t143.5 18q61 0 104 -10t80 -27v64q0 72 -38 111t-119 39q-67 0 -122.5 -13.5t-107.5 -42.5l-71 136q66 41 139.5 63t166.5 22q100 0 163.5 -30.5t100.5 -95.5q48 62 111 94t148 32q91 0 158.5 -37t112.5 -99.5t67 -144.5t22 -173 q0 -24 -2 -45t-3 -36h-552q3 -60 20 -105.5t44 -75.5t62.5 -45t75.5 -15q29 0 52 4.5t43 14t38.5 23t40.5 30.5l109 -116q-30 -30 -59.5 -52t-64 -37.5t-76 -23.5t-93.5 -8q-88 0 -163 38.5t-126 114.5q-50 -70 -129 -111.5t-179 -41.5q-55 0 -110.5 16t-102 53t-75.5 94.5 t-29 141.5zM263 291q0 -66 41 -105.5t128 -39.5q35 0 65.5 9.5t56.5 25.5t46 36.5t35 40.5v66v60q-18 8 -36.5 15.5t-41.5 12.5t-50.5 8t-62.5 3q-84 0 -132.5 -36t-48.5 -96zM811 538h379q-2 46 -13 86t-33.5 69.5t-58 47.5t-87.5 18q-44 0 -77 -16t-56 -45t-36.5 -69.5 t-17.5 -90.5z" />
<glyph unicode="&#x4d6;" horiz-adv-x="1058" d="M240 1601h127q10 -61 53.5 -95t125.5 -34q76 0 122.5 33t56.5 96h123q-5 -66 -28 -117t-62 -86.5t-93 -53.5t-123 -18q-65 0 -118 18t-92 53.5t-62.5 86.5t-29.5 117zM156 0v1205h776v-176h-595v-298h484v-175h-484v-380h621v-176h-802z" />
<glyph unicode="&#x4d7;" horiz-adv-x="953" d="M179 1300h127q10 -61 53.5 -95t125.5 -34q76 0 122.5 33t56.5 96h123q-5 -66 -28 -117t-62 -86.5t-93 -53.5t-123 -18q-65 0 -118 18t-92 53.5t-62.5 86.5t-29.5 117zM87 451q0 114 29 202.5t81 148t125.5 90t160.5 30.5q97 0 168 -36.5t118 -98t71 -144t24 -173.5 q0 -25 -2 -46t-4 -35h-597q8 -66 29 -112.5t51 -76.5t68.5 -44.5t79.5 -14.5q29 0 55 5t50 15t42.5 20.5t48.5 31.5l105 -113q-34 -32 -64.5 -51.5t-66.5 -35.5t-81 -24t-100 -8q-59 0 -110 16t-90.5 42.5t-71 60.5t-60 87.5t-44 119.5t-15.5 144zM265 535h420 q-4 46 -17 87.5t-38.5 72.5t-64.5 49t-94 18q-47 0 -82 -15.5t-60.5 -44t-42 -70t-21.5 -97.5z" />
<glyph unicode="&#x4dc;" horiz-adv-x="1811" d="M616 1441q0 24 9.5 45t25.5 37t37 25.5t45 9.5q23 0 44 -9.5t37 -25.5t25.5 -37t9.5 -45q0 -23 -9.5 -44t-25.5 -37t-37 -25t-44 -9q-24 0 -45 9t-37 25t-25.5 37t-9.5 44zM951 1441q0 24 9.5 45t26 37t37.5 25.5t45 9.5q23 0 44 -9.5t37 -25.5t25 -37t9 -45 q0 -23 -9 -44t-25 -37t-37 -25t-44 -9q-24 0 -45 9t-37.5 25t-26 37t-9.5 44zM72 0l425 760l-358 445h210l467 -584v584h175v-584l466 584h205l-352 -438l430 -767h-205l-346 617l-198 -238v-379h-175v371l-204 246l-340 -617h-200z" />
<glyph unicode="&#x4dd;" horiz-adv-x="1379" d="M494 1214q0 24 9.5 45t25.5 37t37 25.5t45 9.5q23 0 44 -9.5t37 -25.5t25.5 -37t9.5 -45q0 -23 -9.5 -44t-25.5 -37t-37 -25t-44 -9q-24 0 -45 9t-37 25t-25.5 37t-9.5 44zM829 1214q0 24 9.5 45t26 37t37.5 25.5t45 9.5q23 0 44 -9.5t37 -25.5t25 -37t9 -45 q0 -23 -9 -44t-25 -37t-37 -25t-44 -9q-24 0 -45 9t-37.5 25t-26 37t-9.5 44zM74 0l269 596l-233 307h205l287 -401v401l176 93v-494l285 401h201l-228 -302l271 -601h-192l-199 449l-138 -183v-266h-177v266l-142 183l-196 -449h-189z" />
<glyph unicode="&#x4de;" horiz-adv-x="1030" d="M203 1441q0 24 9.5 45t25.5 37t37 25.5t45 9.5q23 0 44 -9.5t37 -25.5t25.5 -37t9.5 -45q0 -23 -9.5 -44t-25.5 -37t-37 -25t-44 -9q-24 0 -45 9t-37 25t-25.5 37t-9.5 44zM538 1441q0 24 9.5 45t26 37t37.5 25.5t45 9.5q23 0 44 -9.5t37 -25.5t25 -37t9 -45 q0 -23 -9 -44t-25 -37t-37 -25t-44 -9q-24 0 -45 9t-37.5 25t-26 37t-9.5 44zM50 176l126 121q58 -65 144 -105.5t172 -40.5q66 0 113.5 16.5t78 44t45 64t14.5 77.5q0 37 -11.5 71.5t-36.5 61t-64 42t-93 15.5h-239v164h223q48 0 82 14.5t55.5 38t32 53.5t10.5 62 q0 36 -11.5 68t-36.5 56.5t-63 39t-92 14.5q-91 0 -159 -29.5t-125 -89.5l-123 126q80 77 176 120t219 43q104 0 179 -27t123.5 -72t72 -105.5t23.5 -128.5q0 -89 -42.5 -152t-120.5 -100q36 -10 72 -31.5t65.5 -57.5t48 -85t18.5 -113q0 -75 -26 -142t-81 -118 t-139.5 -80.5t-201.5 -29.5q-131 0 -245.5 54.5t-182.5 140.5z" />
<glyph unicode="&#x4df;" horiz-adv-x="801" d="M79 1140q0 24 9.5 45t25.5 37t37 25.5t45 9.5q23 0 44 -9.5t37 -25.5t25.5 -37t9.5 -45q0 -23 -9.5 -44t-25.5 -37t-37 -25t-44 -9q-24 0 -45 9t-37 25t-25.5 37t-9.5 44zM414 1140q0 24 9.5 45t26 37t37.5 25.5t45 9.5q23 0 44 -9.5t37 -25.5t25 -37t9 -45q0 -23 -9 -44 t-25 -37t-37 -25t-44 -9q-24 0 -45 9t-37.5 25t-26 37t-9.5 44zM28 97l79 133q62 -48 128.5 -72t129.5 -24q48 0 83 11t57.5 30t33 44t10.5 53q0 25 -9 48.5t-28 42t-48.5 29t-69.5 10.5h-181v147h173q36 0 62.5 9t43.5 24t25 34t8 39q0 23 -9 43.5t-27.5 36t-47.5 25 t-70 9.5q-65 0 -122 -20.5t-115 -62.5l-77 136q61 45 140.5 72.5t165.5 27.5q88 0 151 -20t104 -54.5t60.5 -80.5t19.5 -98q0 -36 -11 -65t-30 -52.5t-45.5 -41.5t-57.5 -30q30 -7 60.5 -24t55.5 -44t40.5 -64.5t15.5 -86.5q0 -57 -22 -108t-67.5 -89t-115 -60.5 t-165.5 -22.5q-92 0 -184 36.5t-144 79.5z" />
<glyph unicode="&#x4e2;" horiz-adv-x="1228" d="M373 1325v156h482v-156h-482zM156 0v1205h181v-903l556 903h179v-1205h-181v902l-556 -902h-179z" />
<glyph unicode="&#x4e3;" d="M253 1025v156h482v-156h-482zM131 0v903h177v-611l372 611h177v-903h-177v610l-372 -610h-177z" />
<glyph unicode="&#x4e4;" horiz-adv-x="1228" d="M330 1441q0 24 9.5 45t25.5 37t37 25.5t45 9.5q23 0 44 -9.5t37 -25.5t25.5 -37t9.5 -45q0 -23 -9.5 -44t-25.5 -37t-37 -25t-44 -9q-24 0 -45 9t-37 25t-25.5 37t-9.5 44zM665 1441q0 24 9.5 45t26 37t37.5 25.5t45 9.5q23 0 44 -9.5t37 -25.5t25 -37t9 -45 q0 -23 -9 -44t-25 -37t-37 -25t-44 -9q-24 0 -45 9t-37.5 25t-26 37t-9.5 44zM156 0v1205h181v-903l556 903h179v-1205h-181v902l-556 -902h-179z" />
<glyph unicode="&#x4e5;" d="M210 1140q0 24 9.5 45t25.5 37t37 25.5t45 9.5q23 0 44 -9.5t37 -25.5t25.5 -37t9.5 -45q0 -23 -9.5 -44t-25.5 -37t-37 -25t-44 -9q-24 0 -45 9t-37 25t-25.5 37t-9.5 44zM545 1140q0 24 9.5 45t26 37t37.5 25.5t45 9.5q23 0 44 -9.5t37 -25.5t25 -37t9 -45 q0 -23 -9 -44t-25 -37t-37 -25t-44 -9q-24 0 -45 9t-37.5 25t-26 37t-9.5 44zM131 0v903h177v-611l372 611h177v-903h-177v610l-372 -610h-177z" />
<glyph unicode="&#x4e6;" horiz-adv-x="1223" d="M328 1441q0 24 9.5 45t25.5 37t37 25.5t45 9.5q23 0 44 -9.5t37 -25.5t25.5 -37t9.5 -45q0 -23 -9.5 -44t-25.5 -37t-37 -25t-44 -9q-24 0 -45 9t-37 25t-25.5 37t-9.5 44zM663 1441q0 24 9.5 45t26 37t37.5 25.5t45 9.5q23 0 44 -9.5t37 -25.5t25 -37t9 -45 q0 -23 -9 -44t-25 -37t-37 -25t-44 -9q-24 0 -45 9t-37.5 25t-26 37t-9.5 44zM98 601q0 140 37.5 255t105.5 196.5t162.5 126t208.5 44.5q115 0 209.5 -44t162 -125t104.5 -195.5t37 -254.5q0 -141 -37.5 -255.5t-105.5 -196.5t-163 -126.5t-210 -44.5q-114 0 -208 44 t-161.5 125t-104.5 195t-37 256zM282 604q0 -103 25 -185t69 -139.5t105 -88.5t133 -31q71 0 131.5 30t103.5 87t67.5 139t24.5 185q0 102 -25.5 184t-70 139.5t-105 88.5t-133.5 31q-71 0 -130.5 -30t-103 -87.5t-67.5 -139t-24 -183.5z" />
<glyph unicode="&#x4e7;" d="M206 1140q0 24 9.5 45t25.5 37t37 25.5t45 9.5q23 0 44 -9.5t37 -25.5t25.5 -37t9.5 -45q0 -23 -9.5 -44t-25.5 -37t-37 -25t-44 -9q-24 0 -45 9t-37 25t-25.5 37t-9.5 44zM541 1140q0 24 9.5 45t26 37t37.5 25.5t45 9.5q23 0 44 -9.5t37 -25.5t25 -37t9 -45 q0 -23 -9 -44t-25 -37t-37 -25t-44 -9q-24 0 -45 9t-37.5 25t-26 37t-9.5 44zM87 451q0 111 31.5 198.5t85.5 148t127.5 92.5t159.5 32t159.5 -33t127.5 -94t84.5 -147t30.5 -192q0 -112 -31 -200.5t-85.5 -149.5t-129.5 -93t-161 -32t-158.5 33.5t-126 95t-84 148.5 t-30.5 193zM266 456q0 -75 16.5 -132t46.5 -95.5t71.5 -58.5t91.5 -20q51 0 91.5 23.5t69.5 64.5t45 96t16 117q0 69 -16 125t-46 95.5t-72.5 60.5t-96.5 21q-50 0 -90 -21t-68 -60t-43.5 -94t-15.5 -122z" />
<glyph unicode="&#x4e8;" horiz-adv-x="1250" d="M95 601q0 139 38 254t108 196.5t168 126.5t217 45t217 -45t167 -126.5t107.5 -196.5t38.5 -254q0 -141 -38.5 -255t-109.5 -195.5t-169 -125.5t-217 -44t-216.5 44t-166 125.5t-106.5 195.5t-38 255zM279 604q0 -103 25.5 -184.5t72 -139.5t110.5 -89t141 -31 q76 0 139.5 30.5t108.5 87.5t70.5 138.5t25.5 184.5q0 100 -25.5 182t-72.5 140t-111 89.5t-141 31.5t-140.5 -30.5t-108.5 -87.5t-69.5 -138.5t-24.5 -183.5zM433 545v176h384v-176h-384z" />
<glyph unicode="&#x4e9;" horiz-adv-x="986" d="M112 612q0 138 20 255t64.5 201.5t117 132.5t177.5 48q103 0 176 -48t119 -132.5t67 -201t21 -253.5q0 -139 -21.5 -255.5t-68 -200.5t-120 -130.5t-177.5 -46.5t-175.5 46.5t-116 130.5t-64 200t-19.5 254zM291 543q1 -86 11 -160.5t32.5 -129.5t60.5 -86t99 -31 q60 0 99 31.5t61 86.5t31.5 129.5t10.5 159.5h-405zM291 706h405q-4 82 -15 153t-34.5 123.5t-61.5 82.5t-96 30q-59 0 -96 -30.5t-58.5 -82.5t-31 -123.5t-12.5 -152.5z" />
<glyph unicode="&#x4ea;" horiz-adv-x="1250" d="M342 1441q0 24 9.5 45t25.5 37t37 25.5t45 9.5q23 0 44 -9.5t37 -25.5t25.5 -37t9.5 -45q0 -23 -9.5 -44t-25.5 -37t-37 -25t-44 -9q-24 0 -45 9t-37 25t-25.5 37t-9.5 44zM677 1441q0 24 9.5 45t26 37t37.5 25.5t45 9.5q23 0 44 -9.5t37 -25.5t25 -37t9 -45 q0 -23 -9 -44t-25 -37t-37 -25t-44 -9q-24 0 -45 9t-37.5 25t-26 37t-9.5 44zM95 601q0 139 38 254t108 196.5t168 126.5t217 45t217 -45t167 -126.5t107.5 -196.5t38.5 -254q0 -141 -38.5 -255t-109.5 -195.5t-169 -125.5t-217 -44t-216.5 44t-166 125.5t-106.5 195.5 t-38 255zM279 604q0 -103 25.5 -184.5t72 -139.5t110.5 -89t141 -31q76 0 139.5 30.5t108.5 87.5t70.5 138.5t25.5 184.5q0 100 -25.5 182t-72.5 140t-111 89.5t-141 31.5t-140.5 -30.5t-108.5 -87.5t-69.5 -138.5t-24.5 -183.5zM433 545v176h384v-176h-384z" />
<glyph unicode="&#x4eb;" horiz-adv-x="986" d="M206 1467q0 24 9.5 45t25.5 37t37 25.5t45 9.5q23 0 44 -9.5t37 -25.5t25.5 -37t9.5 -45q0 -23 -9.5 -44t-25.5 -37t-37 -25t-44 -9q-24 0 -45 9t-37 25t-25.5 37t-9.5 44zM541 1467q0 24 9.5 45t26 37t37.5 25.5t45 9.5q23 0 44 -9.5t37 -25.5t25 -37t9 -45 q0 -23 -9 -44t-25 -37t-37 -25t-44 -9q-24 0 -45 9t-37.5 25t-26 37t-9.5 44zM112 612q0 138 20 255t64.5 201.5t117 132.5t177.5 48q103 0 176 -48t119 -132.5t67 -201t21 -253.5q0 -139 -21.5 -255.5t-68 -200.5t-120 -130.5t-177.5 -46.5t-175.5 46.5t-116 130.5t-64 200 t-19.5 254zM291 543q1 -86 11 -160.5t32.5 -129.5t60.5 -86t99 -31q60 0 99 31.5t61 86.5t31.5 129.5t10.5 159.5h-405zM291 706h405q-4 82 -15 153t-34.5 123.5t-61.5 82.5t-96 30q-59 0 -96 -30.5t-58.5 -82.5t-31 -123.5t-12.5 -152.5z" />
<glyph unicode="&#x4ec;" horiz-adv-x="1126" d="M243 1441q0 24 9.5 45t25.5 37t37 25.5t45 9.5q23 0 44 -9.5t37 -25.5t25.5 -37t9.5 -45q0 -23 -9.5 -44t-25.5 -37t-37 -25t-44 -9q-24 0 -45 9t-37 25t-25.5 37t-9.5 44zM578 1441q0 24 9.5 45t26 37t37.5 25.5t45 9.5q23 0 44 -9.5t37 -25.5t25 -37t9 -45 q0 -23 -9 -44t-25 -37t-37 -25t-44 -9q-24 0 -45 9t-37.5 25t-26 37t-9.5 44zM103 212l148 98q47 -76 110.5 -115t157.5 -39q73 0 130.5 26.5t99 76t65.5 120t31 158.5h-553v175h547q-11 78 -36.5 140.5t-66 105.5t-95 66t-122.5 23q-92 0 -152 -36.5t-104 -109.5l-155 97 q33 54 71 94t92 71t117.5 45.5t138.5 14.5q119 0 212 -46t157 -128t97.5 -196t33.5 -251t-35.5 -251t-102 -196.5t-161 -128t-211.5 -45.5q-71 0 -127.5 13.5t-112 44t-98.5 73.5t-76 100z" />
<glyph unicode="&#x4ed;" horiz-adv-x="897" d="M139 1140q0 24 9.5 45t25.5 37t37 25.5t45 9.5q23 0 44 -9.5t37 -25.5t25.5 -37t9.5 -45q0 -23 -9.5 -44t-25.5 -37t-37 -25t-44 -9q-24 0 -45 9t-37 25t-25.5 37t-9.5 44zM474 1140q0 24 9.5 45t26 37t37.5 25.5t45 9.5q23 0 44 -9.5t37 -25.5t25 -37t9 -45 q0 -23 -9 -44t-25 -37t-37 -25t-44 -9q-24 0 -45 9t-37.5 25t-26 37t-9.5 44zM95 769q65 75 145.5 114t182.5 39q84 0 155.5 -32t123 -92t80.5 -148.5t29 -200.5q0 -105 -30.5 -191.5t-83 -148t-124 -95t-153.5 -33.5q-61 0 -109.5 13.5t-87 37t-69.5 54t-57 64.5l110 108 q47 -54 95 -84.5t113 -30.5q89 0 145.5 68t69.5 191h-369v147h363q-18 99 -71.5 155t-132.5 56q-61 0 -114.5 -27t-109.5 -86z" />
<glyph unicode="&#x4ee;" horiz-adv-x="1128" d="M320 1325v156h482v-156h-482zM41 1205h212l311 -641l313 641h203l-602 -1205h-191l186 363z" />
<glyph unicode="&#x4ef;" horiz-adv-x="956" d="M238 1025v156h482v-156h-482zM57 903h194l227 -680l234 680h188l-455 -1221h-187l131 335z" />
<glyph unicode="&#x4f0;" horiz-adv-x="1128" d="M277 1441q0 24 9.5 45t25.5 37t37 25.5t45 9.5q23 0 44 -9.5t37 -25.5t25.5 -37t9.5 -45q0 -23 -9.5 -44t-25.5 -37t-37 -25t-44 -9q-24 0 -45 9t-37 25t-25.5 37t-9.5 44zM612 1441q0 24 9.5 45t26 37t37.5 25.5t45 9.5q23 0 44 -9.5t37 -25.5t25 -37t9 -45 q0 -23 -9 -44t-25 -37t-37 -25t-44 -9q-24 0 -45 9t-37.5 25t-26 37t-9.5 44zM41 1205h212l311 -641l313 641h203l-602 -1205h-191l186 363z" />
<glyph unicode="&#x4f1;" horiz-adv-x="956" d="M195 1140q0 24 9.5 45t25.5 37t37 25.5t45 9.5q23 0 44 -9.5t37 -25.5t25.5 -37t9.5 -45q0 -23 -9.5 -44t-25.5 -37t-37 -25t-44 -9q-24 0 -45 9t-37 25t-25.5 37t-9.5 44zM530 1140q0 24 9.5 45t26 37t37.5 25.5t45 9.5q23 0 44 -9.5t37 -25.5t25 -37t9 -45 q0 -23 -9 -44t-25 -37t-37 -25t-44 -9q-24 0 -45 9t-37.5 25t-26 37t-9.5 44zM57 903h194l227 -680l234 680h188l-455 -1221h-187l131 335z" />
<glyph unicode="&#x4f2;" horiz-adv-x="1128" d="M314 1326l184 275h241l-284 -275h-141zM666 1326l184 275h242l-284 -275h-142zM41 1205h212l311 -641l313 641h203l-602 -1205h-191l186 363z" />
<glyph unicode="&#x4f3;" horiz-adv-x="956" d="M232 1025l184 275h241l-284 -275h-141zM584 1025l184 275h242l-284 -275h-142zM57 903h194l227 -680l234 680h188l-455 -1221h-187l131 335z" />
<glyph unicode="&#x4f4;" horiz-adv-x="1144" d="M264 1441q0 24 9.5 45t25.5 37t37 25.5t45 9.5q23 0 44 -9.5t37 -25.5t25.5 -37t9.5 -45q0 -23 -9.5 -44t-25.5 -37t-37 -25t-44 -9q-24 0 -45 9t-37 25t-25.5 37t-9.5 44zM599 1441q0 24 9.5 45t26 37t37.5 25.5t45 9.5q23 0 44 -9.5t37 -25.5t25 -37t9 -45 q0 -23 -9 -44t-25 -37t-37 -25t-44 -9q-24 0 -45 9t-37.5 25t-26 37t-9.5 44zM107 942v263h180v-263q0 -89 18 -150t51 -99.5t81.5 -55t109.5 -16.5q40 0 78.5 8.5t72.5 25t62 40.5t47 55v455h181v-1205h-181v552q-22 -25 -53.5 -45t-69 -34t-80.5 -21t-87 -7 q-106 0 -181.5 33.5t-128 98.5t-76.5 159t-24 206z" />
<glyph unicode="&#x4f5;" horiz-adv-x="915" d="M156 1140q0 24 9.5 45t25.5 37t37 25.5t45 9.5q23 0 44 -9.5t37 -25.5t25.5 -37t9.5 -45q0 -23 -9.5 -44t-25.5 -37t-37 -25t-44 -9q-24 0 -45 9t-37 25t-25.5 37t-9.5 44zM491 1140q0 24 9.5 45t26 37t37.5 25.5t45 9.5q23 0 44 -9.5t37 -25.5t25 -37t9 -45 q0 -23 -9 -44t-25 -37t-37 -25t-44 -9q-24 0 -45 9t-37.5 25t-26 37t-9.5 44zM89 701v202h177v-202q0 -63 12 -105.5t34 -69t54.5 -38.5t73.5 -12q53 0 100.5 22.5t73.5 62.5v342h177v-903h-177v402q-16 -20 -39.5 -36.5t-52 -28t-60.5 -18t-65 -6.5q-152 0 -230 97.5 t-78 290.5z" />
<glyph unicode="&#x4f8;" horiz-adv-x="1575" d="M504 1441q0 24 9.5 45t25.5 37t37 25.5t45 9.5q23 0 44 -9.5t37 -25.5t25.5 -37t9.5 -45q0 -23 -9.5 -44t-25.5 -37t-37 -25t-44 -9q-24 0 -45 9t-37 25t-25.5 37t-9.5 44zM839 1441q0 24 9.5 45t26 37t37.5 25.5t45 9.5q23 0 44 -9.5t37 -25.5t25 -37t9 -45 q0 -23 -9 -44t-25 -37t-37 -25t-44 -9q-24 0 -45 9t-37.5 25t-26 37t-9.5 44zM156 0v1205h181v-450h313q83 0 154 -23.5t123 -71t81 -118t29 -163.5t-29 -164t-82 -118.5t-126.5 -72t-161.5 -24.5h-482zM337 171h310q104 0 155 55t51 153q0 96 -55 151t-151 55h-310v-414z M1239 0v1205h181v-1205h-181z" />
<glyph unicode="&#x4f9;" horiz-adv-x="1328" d="M380 1140q0 24 9.5 45t25.5 37t37 25.5t45 9.5q23 0 44 -9.5t37 -25.5t25.5 -37t9.5 -45q0 -23 -9.5 -44t-25.5 -37t-37 -25t-44 -9q-24 0 -45 9t-37 25t-25.5 37t-9.5 44zM715 1140q0 24 9.5 45t26 37t37.5 25.5t45 9.5q23 0 44 -9.5t37 -25.5t25 -37t9 -45 q0 -23 -9 -44t-25 -37t-37 -25t-44 -9q-24 0 -45 9t-37.5 25t-26 37t-9.5 44zM131 0v903h177v-318h250q64 0 119 -18t94.5 -55t62.5 -91.5t23 -126.5t-23 -127t-64 -92t-98 -56t-125 -19h-416zM308 146h225q74 0 110.5 39.5t36.5 106.5q0 72 -39.5 109t-107.5 37h-225v-292z M1020 0v903h177v-903h-177z" />
<glyph unicode="&#x2000;" horiz-adv-x="825" />
<glyph unicode="&#x2001;" horiz-adv-x="1651" />
<glyph unicode="&#x2002;" horiz-adv-x="825" />
<glyph unicode="&#x2003;" horiz-adv-x="1651" />
<glyph unicode="&#x2004;" horiz-adv-x="550" />
<glyph unicode="&#x2005;" horiz-adv-x="412" />
<glyph unicode="&#x2006;" horiz-adv-x="275" />
<glyph unicode="&#x2007;" horiz-adv-x="275" />
<glyph unicode="&#x2008;" horiz-adv-x="206" />
<glyph unicode="&#x2009;" horiz-adv-x="330" />
<glyph unicode="&#x200a;" horiz-adv-x="91" />
<glyph unicode="&#x2010;" horiz-adv-x="619" d="M95 542v175h430v-175h-430z" />
<glyph unicode="&#x2011;" horiz-adv-x="619" d="M95 542v175h430v-175h-430z" />
<glyph unicode="&#x2012;" horiz-adv-x="619" d="M95 542v175h430v-175h-430z" />
<glyph unicode="&#x2013;" horiz-adv-x="791" d="M95 547v165h601v-165h-601z" />
<glyph unicode="&#x2014;" horiz-adv-x="1066" d="M95 547v165h877v-165h-877z" />
<glyph unicode="&#x2018;" horiz-adv-x="456" d="M95 773l130 432h119l-24 -432h-225z" />
<glyph unicode="&#x2019;" horiz-adv-x="456" d="M112 773l24 432h225l-131 -432h-118z" />
<glyph unicode="&#x201a;" horiz-adv-x="456" d="M112 -192l24 431h225l-131 -431h-118z" />
<glyph unicode="&#x201c;" horiz-adv-x="860" d="M95 773l130 432h119l-24 -432h-225zM499 773l131 432h118l-24 -432h-225z" />
<glyph unicode="&#x201d;" horiz-adv-x="860" d="M112 773l24 432h225l-131 -432h-118zM516 773l24 432h225l-130 -432h-119z" />
<glyph unicode="&#x201e;" horiz-adv-x="860" d="M112 -192l24 431h225l-131 -431h-118zM516 -192l24 431h225l-130 -431h-119z" />
<glyph unicode="&#x2022;" horiz-adv-x="740" d="M112 630q0 54 20 102t54.5 83t81.5 55.5t102 20.5q53 0 100.5 -20.5t82.5 -55.5t55 -83t20 -102q0 -55 -20 -102t-55 -81.5t-82.5 -55t-100.5 -20.5q-55 0 -102 20.5t-81.5 55t-54.5 81.5t-20 102z" />
<glyph unicode="&#x2026;" horiz-adv-x="1311" d="M82 117q0 27 11 52t29.5 44t43.5 30.5t52 11.5q28 0 53 -11.5t43.5 -30.5t29 -44t10.5 -52q0 -28 -10.5 -53t-29 -43t-43.5 -29t-53 -11q-27 0 -52 11t-43.5 29t-29.5 43t-11 53zM519 117q0 27 11 52t29.5 44t43 30.5t52.5 11.5t52.5 -11.5t43 -30.5t29.5 -44t11 -52 q0 -28 -11 -53t-29.5 -43t-43 -29t-52.5 -11t-52.5 11t-43 29t-29.5 43t-11 53zM957 117q0 27 11 52t29 44t42.5 30.5t52.5 11.5t52.5 -11.5t43 -30.5t29.5 -44t11 -52q0 -28 -11 -53t-29.5 -43t-43 -29t-52.5 -11t-52.5 11t-42.5 29t-29 43t-11 53z" />
<glyph unicode="&#x202f;" horiz-adv-x="330" />
<glyph unicode="&#x2039;" horiz-adv-x="630" d="M51 451l319 452h191l-310 -450l310 -453h-191z" />
<glyph unicode="&#x203a;" horiz-adv-x="630" d="M69 0l310 451l-310 452h191l318 -450l-318 -453h-191z" />
<glyph unicode="&#x205f;" horiz-adv-x="412" />
<glyph unicode="&#x20ac;" horiz-adv-x="1066" d="M66 418v124h111q-1 45 -1 65t1 64h-111v122h125q37 212 145.5 321t275.5 109q70 0 123 -15t94.5 -44.5t74 -73.5t61.5 -102l-148 -78q-22 45 -42.5 75.5t-44.5 49t-53 26t-68 7.5q-43 0 -81.5 -15t-70 -47.5t-54 -85t-35.5 -127.5h363v-122h-375q-2 -17 -2 -33v-34v-32 q0 -16 2 -30h375v-124h-363q13 -88 40 -143t61 -85.5t71.5 -42t71.5 -11.5q40 0 69.5 9.5t55 29t47.5 50t47 71.5l138 -81q-31 -52 -65 -95t-76.5 -74t-96.5 -48t-124 -17q-85 0 -155.5 29t-123 85t-87.5 137t-50 186h-125z" />
<glyph unicode="&#x2122;" horiz-adv-x="1324" d="M33 1090v115h500v-115h-192v-563h-116v563h-192zM645 527v678h115l189 -436l187 436h116v-678h-110v430l-196 -451l-191 452v-431h-110z" />
<glyph unicode="&#xe000;" horiz-adv-x="905" d="M0 905h905v-905h-905v905z" />
<glyph horiz-adv-x="464" d="M131 -412l14 331h183l-97 -331h-100z" />
<glyph horiz-adv-x="1128" d="M230 1520h131q5 -24 22 -44.5t43.5 -35.5t61 -23t76.5 -8t76.5 8t61 23t43.5 35.5t22 44.5h131q-4 -52 -30.5 -95.5t-70.5 -75.5t-103.5 -49.5t-129.5 -17.5q-69 0 -128.5 17.5t-103.5 49.5t-70.5 75.5t-31.5 95.5z" />
<glyph horiz-adv-x="956" d="M177 1205h119q5 -22 20 -41t38.5 -32.5t55 -21t68.5 -7.5q39 0 69.5 7.5t54.5 21t38.5 32t19.5 41.5h120q-6 -47 -29.5 -86.5t-63.5 -68.5t-93 -44.5t-116 -15.5q-62 0 -115.5 15.5t-93 44.5t-64 68.5t-28.5 86.5z" />
</font>
</defs>
</svg>
