<?xml version="1.0" standalone="no"?>
<!DOCTYPE svg PUBLIC "-//W3C//DTD SVG 1.1//EN" "http://www.w3.org/Graphics/SVG/1.1/DTD/svg11.dtd" >
<svg xmlns="http://www.w3.org/2000/svg" xmlns:xlink="http://www.w3.org/1999/xlink" version="1.1">
<metadata></metadata>
<defs>
<font id="mazdabold" horiz-adv-x="2043" >
<font-face units-per-em="2048" ascent="1536" descent="-512" />
<missing-glyph horiz-adv-x="819" />
<glyph horiz-adv-x="0" />
<glyph unicode="&#xd;" horiz-adv-x="0" />
<glyph unicode=" "  horiz-adv-x="819" />
<glyph unicode="&#x09;" horiz-adv-x="819" />
<glyph unicode="&#xa0;" horiz-adv-x="819" />
<glyph unicode="!" horiz-adv-x="827" d="M-229 0l211 369h462l-213 -369h-460zM76 481l532 955h453l-596 -955h-389z" />
<glyph unicode="&#x22;" horiz-adv-x="1159" d="M211 870l324 566h362l-354 -566h-332zM774 870l324 566h362l-354 -566h-332z" />
<glyph unicode="#" horiz-adv-x="1933" d="M-139 285l174 290h299l166 289h-334l174 291h328l161 281h392l-162 -281h311l162 281h391l-162 -281h305l-172 -291h-301l-166 -289h353l-170 -290h-350l-164 -285h-391l163 285h-311l-164 -285h-391l164 285h-305zM725 575h311l166 289h-311z" />
<glyph unicode="$" horiz-adv-x="1898" d="M-262 0l188 301h1018q70 0 115 20.5t80 79.5q29 45 28 72q0 49 -100 64l-506 69q-160 23 -249 87.5t-89 168.5q0 90 72 201l53 86q49 78 111.5 132t143.5 89t184.5 50.5t236.5 15.5h143l158 245h354l-155 -245h559l-189 -301h-897q-59 0 -101 -5.5t-71.5 -17.5t-50 -29.5 t-35.5 -42.5q-25 -37 -24 -63q0 -55 112 -70l557 -80q127 -18 201 -75.5t74 -155.5q0 -47 -17.5 -99.5t-56.5 -115.5l-63 -102q-47 -76 -109.5 -129.5t-149.5 -86t-207 -48t-282 -15.5h-74l-151 -242h-356l153 242h-608z" />
<glyph unicode="%" horiz-adv-x="2287" d="M119 0l1569 1436h423l-1568 -1436h-424zM254 971q0 72 61 174l68 112q39 63 75 104.5t79 65t98 31.5t135 8h225q104 0 160.5 -36.5t56.5 -104.5q0 -63 -55 -156l-67 -112q-41 -70 -79 -114t-81 -68.5t-99.5 -34t-134.5 -9.5h-225q-111 0 -164 37t-53 103zM545 1065 q0 -33 55 -33h121q20 0 35.5 2t28 10.5t22.5 21.5t24 36l43 65q27 43 27 66q0 33 -55 33h-123q-41 0 -61.5 -13.5t-47.5 -56.5l-43 -66q-27 -43 -26 -65zM1090 139q0 72 61 174l68 113q39 63 74.5 104t78.5 64.5t98.5 32t135.5 8.5h225q104 0 160.5 -37t56.5 -104 q0 -63 -55 -156l-68 -113q-41 -70 -79 -113.5t-81 -68.5t-99 -34t-134 -9h-225q-111 0 -164 37t-53 102zM1380 233q0 -33 56 -32h120q20 0 36 2t28 10t22.5 21.5t24.5 35.5l43 66q27 43 27 65q0 33 -56 33h-122q-41 0 -61.5 -13t-47.5 -56l-43 -66q-27 -43 -27 -66z" />
<glyph unicode="&#x26;" horiz-adv-x="1716" d="M-139 274q0 43 14 92.5t47 104.5l90 156q57 96 126 151.5t177 81.5q-20 53 -20 117q0 41 9 80t32 76l35 61q63 111 199.5 176.5t359.5 65.5h276q205 0 296 -79t91 -204q0 -72 -24 -147l-389 2q6 14 6 32q0 37 -32 66t-97 29h-176q-49 0 -81 -18.5t-55 -53.5l-14 -25 q-20 -33 -20 -63q0 -59 98 -137l276 -224l76 117h410l-185 -315l-18 -29l129 -102l-176 -285l-176 133q-94 -66 -230.5 -99.5t-343.5 -33.5h-288q-92 0 -170 18.5t-133.5 53t-87 86t-31.5 116.5zM322 371q0 -41 37.5 -55.5t86.5 -14.5h201q78 0 133.5 10.5t96.5 30.5 l-340 262q-66 -10 -96.5 -30.5t-53.5 -59.5l-45 -80q-20 -39 -20 -63z" />
<glyph unicode="'" horiz-adv-x="595" d="M211 870l324 566h362l-354 -566h-332z" />
<glyph unicode="(" horiz-adv-x="1302" d="M6 4q0 78 33 173t100 206l547 891q78 125 145.5 210t143.5 137t169 73.5t224 21.5h281l-185 -301h-57q-59 0 -102 -11t-82 -42t-79 -86t-95 -143l-523 -854q-35 -53 -49 -96.5t-14 -78.5q0 -59 44 -88.5t120 -29.5h135l-176 -295h-140q-217 0 -328.5 83t-111.5 230z" />
<glyph unicode=")" horiz-adv-x="1302" d="M-369 -309l185 301h57q59 0 102 10t81 41t79 86t96 145l523 854q35 53 49 96.5t14 78.5q0 59 -44 88.5t-120 29.5h-135l176 295h140q217 0 328.5 -83t111.5 -230q0 -78 -33 -173t-100 -206l-547 -891q-78 -127 -145.5 -211t-143.5 -136t-169 -73.5t-224 -21.5h-281z" />
<glyph unicode="*" horiz-adv-x="1032" d="M332 1051l92 172h184l-73 157l190 62l55 -164l187 184l133 -110l-152 -129h211l-94 -172h-193l76 -166l-190 -60l-60 168l-172 -170l-129 113l140 115h-205z" />
<glyph unicode="+" horiz-adv-x="1341" d="M35 580l186 299h322l159 295h385l-159 -295h377l-185 -299h-356l-162 -301h-381l162 301h-348z" />
<glyph unicode="," horiz-adv-x="778" d="M-256 -342l205 342h-201l225 389h463l-198 -342q-59 -104 -133 -207.5t-140 -181.5h-221z" />
<glyph unicode="-" horiz-adv-x="1206" d="M72 569l196 320h879l-195 -320h-880z" />
<glyph unicode="." horiz-adv-x="778" d="M-252 0l225 389h463l-227 -389h-461z" />
<glyph unicode="/" horiz-adv-x="1320" d="M-379 0l1569 1427h487l-1562 -1427h-494z" />
<glyph unicode="0" horiz-adv-x="1986" d="M-92 311q0 152 127 361l180 295q86 141 167 232t173 143.5t205.5 73t269.5 20.5h596q100 0 183 -18.5t142.5 -56.5t92.5 -96.5t33 -136.5q0 -72 -31 -163t-98 -201l-181 -295q-86 -141 -164.5 -232.5t-170 -143.5t-207 -72.5t-275.5 -20.5h-594q-209 0 -328.5 79 t-119.5 232zM387 410q0 -109 182 -109h338q94 0 156.5 10.5t111 37t87 73.5t84.5 121l161 262q43 72 66.5 126t23.5 95q0 55 -46 82t-144 27h-332q-90 0 -151.5 -8.5t-109.5 -35t-89 -73.5t-88 -125l-162 -262q-88 -143 -88 -221z" />
<glyph unicode="1" horiz-adv-x="1224" d="M127 879l209 360l717 197h463l-830 -1436h-459l623 1081z" />
<glyph unicode="2" horiz-adv-x="1869" d="M-283 0l164 301q49 90 105.5 156.5t129 117t167 86t221.5 64.5l657 139q51 10 87 23.5t60.5 30t42 36t31.5 41.5l17 29q25 41 5 76t-101 35h-347q-55 0 -92 -4.5t-63.5 -15.5t-47 -31.5t-42.5 -53.5l-52 -82h-458l51 86q63 106 135 183t158 125.5t190.5 71t237.5 22.5 h506q211 0 312 -73t101 -196q0 -53 -18.5 -112.5t-56.5 -124.5l-37 -64q-37 -63 -79 -110t-93.5 -82t-114.5 -58.5t-141 -40.5l-709 -151q-61 -12 -103 -21.5t-71 -18.5t-46 -22.5t-28 -33.5l-14 -27h1184l-185 -301h-1663z" />
<glyph unicode="3" horiz-adv-x="1722" d="M-332 0l176 301h818q74 0 125 4t86.5 16.5t59 36t46.5 62.5l25 43q23 39 22 61q0 55 -115 56h-647l174 301h574q57 0 99 4t72.5 16t53.5 33.5t41 56.5l25 45q29 49 11 74t-71 25h-926l175 301h972q186 0 274.5 -57.5t88.5 -155.5q0 -86 -62 -187l-59 -98 q-25 -41 -53.5 -81t-66.5 -73.5t-85 -57.5t-108 -32q94 -41 94 -137q0 -66 -41 -139l-74 -137q-47 -86 -106.5 -141.5t-142.5 -86t-194.5 -42t-260.5 -11.5h-1000z" />
<glyph unicode="4" horiz-adv-x="1980" d="M-154 270l109 185l1188 981h522l-1051 -877h492l217 375h461l-217 -375h227l-168 -289h-227l-156 -270h-459l156 270h-1094z" />
<glyph unicode="5" horiz-adv-x="1796" d="M-291 0l172 301h912q63 0 109 7t79 22.5t56.5 39t41.5 56.5l51 88q20 37 21 61q0 57 -98 58h-338q-80 0 -137.5 -16.5t-104.5 -55.5h-434l504 875h1493l-187 -301h-1020l-145 -252q18 12 43 22t58.5 16.5t81.5 10.5t114 4h319q180 0 266.5 -63.5t86.5 -170.5 q0 -100 -74 -225l-70 -119q-63 -109 -122.5 -178t-138.5 -109t-188.5 -55.5t-275.5 -15.5h-1075z" />
<glyph unicode="6" horiz-adv-x="1818" d="M-90 274q0 135 108 318l213 373q84 147 163 238t172 143.5t211 71t280 18.5h942l-193 -301h-649q-113 0 -183.5 -6.5t-119.5 -28t-86 -62.5t-80 -108l-35 -58q18 12 43 22.5t60 17t83 10.5t113 4h334q119 0 198 -21.5t125 -58.5t65.5 -84t19.5 -98q0 -61 -20.5 -121 t-47.5 -107l-76 -131q-53 -90 -111.5 -148.5t-137 -93t-186 -49t-257.5 -14.5h-530q-215 0 -316.5 72.5t-101.5 201.5zM397 377q0 -76 160 -76h309q66 0 110 4t74.5 16.5t52 34t42.5 56.5l39 65q16 29 25.5 51.5t9.5 40.5q0 27 -21.5 41.5t-75.5 14.5h-403q-59 0 -99 -5.5 t-70 -18.5t-51.5 -36.5t-41.5 -58.5l-37 -64q-23 -41 -23 -65z" />
<glyph unicode="7" horiz-adv-x="1552" d="M-174 0l1321 1135h-887l174 301h1485l-104 -179l-1467 -1257h-522z" />
<glyph unicode="8" horiz-adv-x="1847" d="M-129 266q0 49 16.5 101.5t44.5 103.5l43 78q47 86 130 148.5t229 78.5q-45 23 -64.5 65t-19.5 93q0 88 51 172l61 100q70 115 214.5 172.5t373.5 57.5h598q109 0 185.5 -17.5t125 -49.5t71 -75t22.5 -94q0 -72 -45 -162l-60 -116q-41 -82 -111.5 -134.5t-183.5 -70.5 q84 -49 84 -148q0 -37 -13 -80t-42 -90l-63 -120q-45 -76 -97.5 -129.5t-132.5 -86t-197.5 -48t-293.5 -15.5h-504q-117 0 -198 21.5t-130 57.5t-71.5 84t-22.5 103zM346 365q0 -33 37 -48.5t123 -15.5h325q70 0 118 6t81 19.5t54.5 35t39.5 54.5l25 43q23 39 22 65 q0 55 -108 56h-481q-82 0 -121 -30t-66 -75l-22 -39q-27 -47 -27 -71zM702 948q0 -68 146 -67h311q117 0 176.5 23.5t96.5 90.5l22 41q10 20 13 38t-9 31t-43 21.5t-86 8.5h-368q-92 0 -138.5 -19.5t-72.5 -64.5l-27 -45q-20 -37 -21 -58z" />
<glyph unicode="9" horiz-adv-x="1818" d="M-180 -2l192 301h650q113 0 183 6t119.5 27.5t86 62.5t79.5 109l35 57q-18 -12 -42.5 -22.5t-59.5 -16.5t-83 -10t-114 -4h-334q-119 0 -197.5 21.5t-124.5 58.5t-65.5 84t-19.5 98q0 61 20.5 120.5t47.5 106.5l75 131q51 90 110.5 148.5t138.5 93.5t186.5 49.5 t257.5 14.5h530q215 0 316.5 -73t101.5 -202q0 -135 -109 -317l-213 -373q-84 -147 -162.5 -238.5t-172 -143.5t-211 -70.5t-279.5 -18.5h-942zM600 864q0 -27 21.5 -41t74.5 -14h404q57 0 98 5t70.5 18.5t51 37t42.5 58.5l37 63q23 41 22 66q0 76 -159 76h-310 q-66 0 -109.5 -5.5t-74.5 -17.5t-52.5 -33.5t-41.5 -54.5l-39 -66q-16 -29 -25.5 -51t-9.5 -41z" />
<glyph unicode=":" horiz-adv-x="778" d="M-252 0l225 389h463l-227 -389h-461zM180 778l225 389h463l-227 -389h-461z" />
<glyph unicode=";" horiz-adv-x="778" d="M-256 -342l205 342h-201l225 389h463l-198 -342q-59 -104 -133 -207.5t-140 -181.5h-221zM180 778l225 389h463l-227 -389h-461z" />
<glyph unicode="&#x3c;" horiz-adv-x="1437" d="M57 553l215 360l1207 375l-213 -366l-789 -228l600 -245l-172 -285z" />
<glyph unicode="=" horiz-adv-x="1411" d="M-74 358l170 258h1125l-168 -258h-1127zM193 825l169 258h1125l-168 -258h-1126z" />
<glyph unicode="&#x3e;" horiz-adv-x="1437" d="M-41 164l213 366l789 228l-601 246l172 284l848 -389l-215 -360z" />
<glyph unicode="?" horiz-adv-x="1773" d="M215 0l211 369h463l-213 -369h-461zM225 977l60 110q49 90 109.5 156t139 109t177 63.5t223.5 20.5h549q223 0 324.5 -73t101.5 -187q0 -94 -64 -205l-37 -64q-31 -51 -61.5 -90t-73.5 -67.5t-103.5 -49t-150.5 -34.5l-297 -45q-66 -10 -99.5 -26.5t-57.5 -51.5l-43 -62 h-459l65 111q37 61 77 106t86 76t101.5 49.5t122.5 30.5l265 45q51 8 88 15.5t63.5 17.5t45 25.5t32.5 37.5l16 29q25 41 5.5 76t-101.5 35h-368q-55 0 -92.5 -3.5t-65 -14.5t-48 -31.5t-40.5 -55.5l-31 -53h-459z" />
<glyph unicode="@" horiz-adv-x="1992" d="M-70 283q0 82 35 177t94 193l193 326q82 139 156.5 228t166 139.5t209 70t287.5 19.5h678q375 0 375 -215q0 -113 -99 -275l-327 -551h-766q-119 0 -191.5 53.5t-72.5 145.5q0 66 43 149l39 74q57 106 148 150.5t251 44.5h395q66 0 104 19.5t56 53.5q25 47 4.5 68 t-86.5 21h-573q-90 0 -156 -12.5t-118 -41t-94 -75t-85 -115.5l-186 -307q-82 -133 -82 -215q0 -72 61.5 -109t198.5 -37h1063l-158 -262h-1118q-123 0 -207 20.5t-137.5 58.5t-77 90t-23.5 114zM1057.5 637q27.5 -19 103.5 -19h273l141 230q-33 -23 -76 -33t-119 -10h-182 q-88 0 -123 -66l-16 -30q-29 -53 -1.5 -72z" />
<glyph unicode="A" horiz-adv-x="2121" d="M-403 0l1734 1436h281l106 -1436h-440l-14 274h-627q-94 0 -160.5 -17t-124.5 -64l-231 -193h-524zM702 479q47 35 130 45.5t169 10.5h246l-20 393z" />
<glyph unicode="B" horiz-adv-x="1988" d="M-291 0l828 1436h1194q172 0 268 -54.5t96 -158.5q0 -80 -63 -187l-60 -98q-43 -76 -116.5 -129t-192.5 -66q74 -18 116 -64t42 -118q0 -41 -14.5 -88t-47.5 -100l-61 -103q-41 -70 -97.5 -120t-136.5 -83.5t-189.5 -50t-256.5 -16.5h-1309zM342 301h733q88 0 146.5 20.5 t95.5 81.5l18 31q43 74 43 111q0 55 -104 55h-547q-68 0 -114 -8t-79.5 -27.5t-60.5 -50.5t-51 -74zM657 848q18 12 43 22.5t59 16.5t82 10t113 4h387q84 0 129.5 21.5t73.5 68.5l25 45q18 29 18 50q-1 13 -7 23q-18 26 -71 26h-686z" />
<glyph unicode="C" horiz-adv-x="1738" d="M-92 309q0 152 129 363l180 295q84 137 162 228t170 144.5t207.5 75t275.5 21.5h1008l-174 -301h-789q-92 0 -155.5 -10.5t-111.5 -37t-87 -73.5t-84 -121l-162 -262q-41 -70 -65.5 -125t-24.5 -96q0 -53 44 -81t147 -28h866l-174 -301h-912q-203 0 -326.5 77t-123.5 232 z" />
<glyph unicode="D" horiz-adv-x="2068" d="M-291 0l828 1436h901q180 0 305 -30t202.5 -82t113.5 -124t36 -156q0 -92 -36 -192t-101 -205l-72 -117q-96 -158 -194.5 -260t-232.5 -162.5t-318.5 -84t-454.5 -23.5h-977zM342 301h483q215 0 374 67.5t267 243.5l35 56q59 96 86 167.5t27 125.5q0 96 -80 135t-221 39 h-490z" />
<glyph unicode="E" horiz-adv-x="1775" d="M-291 0l828 1436h1529l-174 -301h-1069l-164 -283q20 12 44 22.5t59 16.5t82 10t112 4h670l-174 -301h-723q-68 0 -114 -8t-79.5 -27.5t-60 -50.5t-51.5 -74l-82 -143h1159l-174 -301h-1618z" />
<glyph unicode="F" horiz-adv-x="1677" d="M-291 0l828 1436h1468l-174 -301h-1008l-196 -340q18 12 42.5 22t58.5 16.5t82 10.5t114 4h608l-174 -301h-662q-68 0 -113.5 -8.5t-79.5 -27.5t-60.5 -50t-51.5 -74l-223 -387h-459z" />
<glyph unicode="G" horiz-adv-x="2035" d="M-92 309q0 152 129 363l180 295q84 137 162 228t170 144.5t207.5 75t275.5 21.5h1145l-174 -301h-926q-92 0 -155.5 -10.5t-111.5 -37t-87 -73.5t-84 -121l-162 -262q-41 -70 -65.5 -125t-24.5 -96q0 -53 44 -81t147 -28h364q94 0 156.5 9t109.5 36t86 74t84 121l23 37 h-545l164 280h999l-227 -389q-80 -135 -156.5 -226t-170 -144.5t-211 -76t-277.5 -22.5h-619q-203 0 -326.5 77t-123.5 232z" />
<glyph unicode="H" horiz-adv-x="1974" d="M-291 0l828 1436h460l-321 -555h807l321 555h461l-829 -1436h-459l334 580h-807l-336 -580h-459z" />
<glyph unicode="I" horiz-adv-x="706" d="M-291 0l828 1436h460l-829 -1436h-459z" />
<glyph unicode="J" horiz-adv-x="1658" d="M-119 233q0 57 23.5 126t77.5 151l114 180h434l-120 -194q-63 -102 -64 -144q0 -51 105 -51h186q102 0 165.5 45t129.5 154l557 936h461l-564 -947q-74 -125 -138 -217t-145 -152.5t-190.5 -90t-273.5 -29.5h-457q-135 0 -218 59.5t-83 173.5z" />
<glyph unicode="K" horiz-adv-x="1984" d="M-291 0l828 1436h460l-338 -586l996 586h618l-1126 -654l536 -782h-497l-387 580l-445 -256l-186 -324h-459z" />
<glyph unicode="L" horiz-adv-x="1691" d="M-291 0l828 1436h460l-655 -1135h1049l-174 -301h-1508z" />
<glyph unicode="M" horiz-adv-x="2529" d="M-291 0l828 1436h419l127 -996l1217 996h520l-829 -1436h-461l467 807l-961 -807h-303l-110 807l-469 -807h-445z" />
<glyph unicode="N" horiz-adv-x="2033" d="M-291 0l828 1436h342l473 -920l532 920h440l-829 -1436h-336l-475 920l-534 -920h-441z" />
<glyph unicode="O" d="M-92 309q0 152 129 363l180 295q84 137 162 228t170 144.5t207.5 75t275.5 21.5h651q100 0 183.5 -19.5t142.5 -58.5t92 -97.5t33 -136.5q0 -74 -30.5 -163t-98.5 -197l-180 -295q-84 -139 -162 -229t-169 -143.5t-208 -75t-276 -21.5h-652q-203 0 -326.5 77t-123.5 232z M387 410q0 -53 44 -81t147 -28h387q94 0 156.5 10.5t110.5 37t87 73.5t84 121l162 262q41 68 65.5 124t24.5 97q0 53 -44 81t-147 28h-387q-92 0 -155.5 -10.5t-111.5 -37t-87 -73.5t-84 -121l-162 -262q-41 -70 -65.5 -125t-24.5 -96z" />
<glyph unicode="P" horiz-adv-x="1884" d="M-291 0l828 1436h995q231 0 337.5 -73t106.5 -196q0 -117 -90 -266l-112 -188q-49 -84 -109.5 -145.5t-145.5 -101.5t-199 -59.5t-267 -19.5h-449q-68 0 -114 -8t-79.5 -27.5t-60 -50.5t-51.5 -74l-131 -227h-459zM535 635q18 12 42.5 22.5t58.5 16.5t82 10t113 4h209 q70 0 120 3t88 17.5t68 42t58 74.5l76 125q41 72 41 115q0 70 -90 70h-578z" />
<glyph unicode="Q" d="M-137 -387l174 287h108q106 0 161.5 23.5t94.5 76.5h-43q-203 0 -326.5 77t-123.5 232q0 152 129 363l180 295q84 137 162 228t170 144.5t207.5 75t275.5 21.5h651q100 0 183.5 -19.5t142.5 -58.5t92 -97.5t33 -136.5q0 -74 -30.5 -163t-98.5 -197l-180 -295 q-84 -139 -162 -229t-169 -143.5t-208 -75t-276 -21.5h-176l-7 -12q-68 -117 -135 -189.5t-152 -113.5t-200 -56.5t-277 -15.5h-200zM387 410q0 -53 44 -81t147 -28h8l71 115h422l-67 -115q80 2 134 14.5t97 40t80 72.5t80 115l162 262q41 68 65.5 124t24.5 97q0 53 -44 81 t-147 28h-387q-92 0 -155.5 -10.5t-111.5 -37t-87 -73.5t-84 -121l-162 -262q-41 -70 -65.5 -125t-24.5 -96z" />
<glyph unicode="R" horiz-adv-x="1884" d="M-291 0l828 1436h972q223 0 345 -70t122 -207q0 -115 -90 -268l-76 -131q-41 -68 -87 -120t-106.5 -90t-136 -64.5t-175.5 -41.5l223 -444h-467l-213 428h-219q-68 0 -114 -8t-80 -27.5t-60.5 -50.5t-50.5 -74l-156 -268h-459zM559 676q18 12 43 22.5t58.5 16.5t82 10 t113.5 4h213q70 0 120 3t88 17.5t67.5 42t58.5 74.5l47 80q23 37 35 67.5t12 55.5q0 31 -24.5 48.5t-83.5 17.5h-566z" />
<glyph unicode="S" horiz-adv-x="1771" d="M-315 0l188 301h1018q70 0 115 20.5t79 79.5q29 45 29 72q0 49 -100 64l-506 69q-160 23 -249 87.5t-89 168.5q0 90 72 201l53 86q49 78 111.5 132t143.5 89t184.5 50.5t236.5 15.5h1059l-189 -301h-897q-59 0 -101 -5.5t-72 -17.5t-50.5 -29.5t-34.5 -42.5 q-24 -36 -24 -61q0 -57 112 -72l557 -80q127 -18 201 -75.5t74 -155.5q0 -47 -17.5 -99.5t-56.5 -115.5l-64 -102q-47 -76 -109.5 -129.5t-149.5 -86t-206.5 -48t-281.5 -15.5h-1036z" />
<glyph unicode="T" horiz-adv-x="1841" d="M260 1135l174 301h1800l-174 -301h-669l-656 -1135h-461l656 1135h-670z" />
<glyph unicode="U" horiz-adv-x="1875" d="M-90 303q0 72 28.5 157t88.5 189l469 787h460l-475 -805q-43 -72 -67.5 -128.5t-24.5 -96.5q0 -51 43 -78t143 -27h216q94 0 157.5 10.5t110.5 38t87 74.5t85 123l532 889h461l-579 -967q-84 -139 -163 -230.5t-172 -144.5t-211 -73.5t-278 -20.5h-471q-203 0 -321.5 76 t-118.5 227z" />
<glyph unicode="V" horiz-adv-x="1984" d="M403 1436h420l-2 -932l1041 932h526l-1634 -1436h-344z" />
<glyph unicode="W" horiz-adv-x="2666" d="M164 0l264 1436h434l-170 -875l846 875h354l-131 -875l813 875h492l-1383 -1436h-399l137 872l-862 -872h-395z" />
<glyph unicode="X" horiz-adv-x="1968" d="M-434 0l1173 760l-362 676h461l243 -451l695 451h608l-1149 -738l379 -698h-465l-256 475l-725 -475h-602z" />
<glyph unicode="Y" horiz-adv-x="2037" d="M342 0l320 553l-248 883h434l168 -609l882 609h553l-1353 -926l-295 -510h-461z" />
<glyph unicode="Z" horiz-adv-x="1863" d="M-334 0l103 180l1488 955h-976l174 301h1689l-104 -181l-1489 -954h1051l-175 -301h-1761z" />
<glyph unicode="[" horiz-adv-x="1302" d="M-262 -309l1208 2025h709l-172 -295h-250l-858 -1435h330l-173 -295h-794z" />
<glyph unicode="\" horiz-adv-x="1609" d="M426 1436h408l380 -1436h-407z" />
<glyph unicode="]" horiz-adv-x="1302" d="M-371 -309l172 295h250l858 1435h-329l172 295h794l-1208 -2025h-709z" />
<glyph unicode="^" horiz-adv-x="1413" d="M29 575l161 283l570 127l583 -158l-155 -243l-508 141z" />
<glyph unicode="_" horiz-adv-x="1685" d="M-485 -352l196 319h1493l-194 -319h-1495z" />
<glyph unicode="`" horiz-adv-x="937" d="M41 1714l141 223l697 -215l-136 -213z" />
<glyph unicode="a" horiz-adv-x="2121" d="M-403 0l1734 1436h281l106 -1436h-440l-14 274h-627q-94 0 -160.5 -17t-124.5 -64l-231 -193h-524zM702 479q47 35 130 45.5t169 10.5h246l-20 393z" />
<glyph unicode="b" horiz-adv-x="1988" d="M-291 0l828 1436h1194q172 0 268 -54.5t96 -158.5q0 -80 -63 -187l-60 -98q-43 -76 -116.5 -129t-192.5 -66q74 -18 116 -64t42 -118q0 -41 -14.5 -88t-47.5 -100l-61 -103q-41 -70 -97.5 -120t-136.5 -83.5t-189.5 -50t-256.5 -16.5h-1309zM342 301h733q88 0 146.5 20.5 t95.5 81.5l18 31q43 74 43 111q0 55 -104 55h-547q-68 0 -114 -8t-79.5 -27.5t-60.5 -50.5t-51 -74zM657 848q18 12 43 22.5t59 16.5t82 10t113 4h387q84 0 129.5 21.5t73.5 68.5l25 45q18 29 18 50q-1 13 -7 23q-18 26 -71 26h-686z" />
<glyph unicode="c" horiz-adv-x="1738" d="M-92 309q0 152 129 363l180 295q84 137 162 228t170 144.5t207.5 75t275.5 21.5h1008l-174 -301h-789q-92 0 -155.5 -10.5t-111.5 -37t-87 -73.5t-84 -121l-162 -262q-41 -70 -65.5 -125t-24.5 -96q0 -53 44 -81t147 -28h866l-174 -301h-912q-203 0 -326.5 77t-123.5 232 z" />
<glyph unicode="d" horiz-adv-x="2068" d="M-291 0l828 1436h901q180 0 305 -30t202.5 -82t113.5 -124t36 -156q0 -92 -36 -192t-101 -205l-72 -117q-96 -158 -194.5 -260t-232.5 -162.5t-318.5 -84t-454.5 -23.5h-977zM342 301h483q215 0 374 67.5t267 243.5l35 56q59 96 86 167.5t27 125.5q0 96 -80 135t-221 39 h-490z" />
<glyph unicode="e" horiz-adv-x="1775" d="M-291 0l828 1436h1529l-174 -301h-1069l-164 -283q20 12 44 22.5t59 16.5t82 10t112 4h670l-174 -301h-723q-68 0 -114 -8t-79.5 -27.5t-60 -50.5t-51.5 -74l-82 -143h1159l-174 -301h-1618z" />
<glyph unicode="f" horiz-adv-x="1677" d="M-291 0l828 1436h1468l-174 -301h-1008l-196 -340q18 12 42.5 22t58.5 16.5t82 10.5t114 4h608l-174 -301h-662q-68 0 -113.5 -8.5t-79.5 -27.5t-60.5 -50t-51.5 -74l-223 -387h-459z" />
<glyph unicode="g" horiz-adv-x="2035" d="M-92 309q0 152 129 363l180 295q84 137 162 228t170 144.5t207.5 75t275.5 21.5h1145l-174 -301h-926q-92 0 -155.5 -10.5t-111.5 -37t-87 -73.5t-84 -121l-162 -262q-41 -70 -65.5 -125t-24.5 -96q0 -53 44 -81t147 -28h364q94 0 156.5 9t109.5 36t86 74t84 121l23 37 h-545l164 280h999l-227 -389q-80 -135 -156.5 -226t-170 -144.5t-211 -76t-277.5 -22.5h-619q-203 0 -326.5 77t-123.5 232z" />
<glyph unicode="h" horiz-adv-x="1974" d="M-291 0l828 1436h460l-321 -555h807l321 555h461l-829 -1436h-459l334 580h-807l-336 -580h-459z" />
<glyph unicode="i" horiz-adv-x="706" d="M-291 0l828 1436h460l-829 -1436h-459z" />
<glyph unicode="j" horiz-adv-x="1658" d="M-119 233q0 57 23.5 126t77.5 151l114 180h434l-120 -194q-63 -102 -64 -144q0 -51 105 -51h186q102 0 165.5 45t129.5 154l557 936h461l-564 -947q-74 -125 -138 -217t-145 -152.5t-190.5 -90t-273.5 -29.5h-457q-135 0 -218 59.5t-83 173.5z" />
<glyph unicode="k" horiz-adv-x="1984" d="M-291 0l828 1436h460l-338 -586l996 586h618l-1126 -654l536 -782h-497l-387 580l-445 -256l-186 -324h-459z" />
<glyph unicode="l" horiz-adv-x="1691" d="M-291 0l828 1436h460l-655 -1135h1049l-174 -301h-1508z" />
<glyph unicode="m" horiz-adv-x="2529" d="M-291 0l828 1436h419l127 -996l1217 996h520l-829 -1436h-461l467 807l-961 -807h-303l-110 807l-469 -807h-445z" />
<glyph unicode="n" horiz-adv-x="2033" d="M-291 0l828 1436h342l473 -920l532 920h440l-829 -1436h-336l-475 920l-534 -920h-441z" />
<glyph unicode="o" d="M-92 309q0 152 129 363l180 295q84 137 162 228t170 144.5t207.5 75t275.5 21.5h651q100 0 183.5 -19.5t142.5 -58.5t92 -97.5t33 -136.5q0 -74 -30.5 -163t-98.5 -197l-180 -295q-84 -139 -162 -229t-169 -143.5t-208 -75t-276 -21.5h-652q-203 0 -326.5 77t-123.5 232z M387 410q0 -53 44 -81t147 -28h387q94 0 156.5 10.5t110.5 37t87 73.5t84 121l162 262q41 68 65.5 124t24.5 97q0 53 -44 81t-147 28h-387q-92 0 -155.5 -10.5t-111.5 -37t-87 -73.5t-84 -121l-162 -262q-41 -70 -65.5 -125t-24.5 -96z" />
<glyph unicode="p" horiz-adv-x="1884" d="M-291 0l828 1436h995q231 0 337.5 -73t106.5 -196q0 -117 -90 -266l-112 -188q-49 -84 -109.5 -145.5t-145.5 -101.5t-199 -59.5t-267 -19.5h-449q-68 0 -114 -8t-79.5 -27.5t-60 -50.5t-51.5 -74l-131 -227h-459zM535 635q18 12 42.5 22.5t58.5 16.5t82 10t113 4h209 q70 0 120 3t88 17.5t68 42t58 74.5l76 125q41 72 41 115q0 70 -90 70h-578z" />
<glyph unicode="q" d="M-137 -387l174 287h108q106 0 161.5 23.5t94.5 76.5h-43q-203 0 -326.5 77t-123.5 232q0 152 129 363l180 295q84 137 162 228t170 144.5t207.5 75t275.5 21.5h651q100 0 183.5 -19.5t142.5 -58.5t92 -97.5t33 -136.5q0 -74 -30.5 -163t-98.5 -197l-180 -295 q-84 -139 -162 -229t-169 -143.5t-208 -75t-276 -21.5h-176l-7 -12q-68 -117 -135 -189.5t-152 -113.5t-200 -56.5t-277 -15.5h-200zM387 410q0 -53 44 -81t147 -28h8l71 115h422l-67 -115q80 2 134 14.5t97 40t80 72.5t80 115l162 262q41 68 65.5 124t24.5 97q0 53 -44 81 t-147 28h-387q-92 0 -155.5 -10.5t-111.5 -37t-87 -73.5t-84 -121l-162 -262q-41 -70 -65.5 -125t-24.5 -96z" />
<glyph unicode="r" horiz-adv-x="1884" d="M-291 0l828 1436h972q223 0 345 -70t122 -207q0 -115 -90 -268l-76 -131q-41 -68 -87 -120t-106.5 -90t-136 -64.5t-175.5 -41.5l223 -444h-467l-213 428h-219q-68 0 -114 -8t-80 -27.5t-60.5 -50.5t-50.5 -74l-156 -268h-459zM559 676q18 12 43 22.5t58.5 16.5t82 10 t113.5 4h213q70 0 120 3t88 17.5t67.5 42t58.5 74.5l47 80q23 37 35 67.5t12 55.5q0 31 -24.5 48.5t-83.5 17.5h-566z" />
<glyph unicode="s" horiz-adv-x="1771" d="M-315 0l188 301h1018q70 0 115 20.5t79 79.5q29 45 29 72q0 49 -100 64l-506 69q-160 23 -249 87.5t-89 168.5q0 90 72 201l53 86q49 78 111.5 132t143.5 89t184.5 50.5t236.5 15.5h1059l-189 -301h-897q-59 0 -101 -5.5t-72 -17.5t-50.5 -29.5t-34.5 -42.5 q-24 -36 -24 -61q0 -57 112 -72l557 -80q127 -18 201 -75.5t74 -155.5q0 -47 -17.5 -99.5t-56.5 -115.5l-64 -102q-47 -76 -109.5 -129.5t-149.5 -86t-206.5 -48t-281.5 -15.5h-1036z" />
<glyph unicode="t" horiz-adv-x="1841" d="M260 1135l174 301h1800l-174 -301h-669l-656 -1135h-461l656 1135h-670z" />
<glyph unicode="u" horiz-adv-x="1875" d="M-90 303q0 72 28.5 157t88.5 189l469 787h460l-475 -805q-43 -72 -67.5 -128.5t-24.5 -96.5q0 -51 43 -78t143 -27h216q94 0 157.5 10.5t110.5 38t87 74.5t85 123l532 889h461l-579 -967q-84 -139 -163 -230.5t-172 -144.5t-211 -73.5t-278 -20.5h-471q-203 0 -321.5 76 t-118.5 227z" />
<glyph unicode="v" horiz-adv-x="1984" d="M403 1436h420l-2 -932l1041 932h526l-1634 -1436h-344z" />
<glyph unicode="w" horiz-adv-x="2666" d="M164 0l264 1436h434l-170 -875l846 875h354l-131 -875l813 875h492l-1383 -1436h-399l137 872l-862 -872h-395z" />
<glyph unicode="x" horiz-adv-x="1968" d="M-434 0l1173 760l-362 676h461l243 -451l695 451h608l-1149 -738l379 -698h-465l-256 475l-725 -475h-602z" />
<glyph unicode="y" horiz-adv-x="2037" d="M342 0l320 553l-248 883h434l168 -609l882 609h553l-1353 -926l-295 -510h-461z" />
<glyph unicode="z" horiz-adv-x="1863" d="M-334 0l103 180l1488 955h-976l174 301h1689l-104 -181l-1489 -954h1051l-175 -301h-1761z" />
<glyph unicode="{" horiz-adv-x="1972" d="M-123 254q0 100 86 248l49 88q47 80 107.5 134t138.5 87t179.5 47t232.5 14h604q68 0 113 6.5t75.5 18.5t50 30.5t33.5 43.5q35 59 35 94q0 45 -46 57.5t-118 12.5h-964l178 301h870q109 0 207 -14.5t172 -49.5t118 -92t44 -143q0 -61 -25.5 -139t-83.5 -177l-477 -821 h-1100q-221 0 -350 60.5t-129 193.5zM352 360q0 -35 38 -47t104 -12h669l199 332q-20 -12 -45 -22.5t-59.5 -16.5t-82 -10t-112.5 -4h-436q-94 0 -138.5 -20.5t-70.5 -65.5l-39 -64q-27 -39 -27 -70z" />
<glyph unicode="|" horiz-adv-x="1302" d="M537 -358v2201h225v-2201h-225z" />
<glyph unicode="}" horiz-adv-x="2930" d="M-291 0l819 1436h398l-27 -62q39 16 93.5 28.5t131.5 12.5h334q123 0 201 -25.5t117 -66.5q66 47 182.5 69.5t263.5 22.5h330q203 0 325.5 -76.5t122.5 -232.5q0 -72 -28.5 -162t-94.5 -201l-438 -743h-452l450 784q39 70 61.5 125.5t22.5 96.5q0 53 -42 80.5t-146 27.5 h-84q-92 0 -155.5 -10t-113 -37t-88.5 -74t-82 -121l-507 -872h-453l450 784q39 70 61.5 125.5t22.5 96.5q0 53 -42 80.5t-146 27.5h-84q-92 0 -155.5 -10t-112.5 -37t-88 -74t-82 -121l-512 -872h-453z" />
<glyph unicode="~" horiz-adv-x="1366" d="M16 535l111 184q37 61 73 102t74.5 65.5t85 35t105.5 10.5q80 0 147.5 -23.5t124 -51.5t99.5 -50.5t73 -22.5q35 0 53.5 12.5t34.5 39.5l58 96h321l-114 -189q-76 -123 -164 -165.5t-199 -42.5q-78 0 -144.5 23.5t-119.5 51t-94 51t-68 23.5q-37 0 -59.5 -20.5 t-38.5 -55.5l-39 -73h-320z" />
<glyph unicode="&#xa1;" horiz-adv-x="827" d="M-233 0l595 954h390l-533 -954h-452zM383 1067l213 369h461l-211 -369h-463z" />
<glyph unicode="&#xa2;" horiz-adv-x="1898" d="M102 391q0 74 32 164t99 199l82 131q86 137 164 227t170 144.5t207 76t274 21.5h113l209 327h354l-207 -327h355l-174 -301h-604q-92 0 -155 -10.5t-111 -38t-87 -73.5t-86 -120l-63 -98q-43 -68 -67.5 -123t-24.5 -96q0 -53 44 -82t148 -29h682l-174 -301h-381 l-205 -324h-356l205 324q-98 0 -180 20.5t-140.5 58.5t-90.5 95t-32 135z" />
<glyph unicode="&#xa3;" horiz-adv-x="1898" d="M-133 0l176 301h203l168 291h-244l145 254h244l70 119q84 145 164.5 237t175 144.5t211 71t274.5 18.5h430l-184 -301h-168q-98 0 -168 -5.5t-126 -31t-105.5 -78.5t-104.5 -152l-14 -22h491l-149 -254h-488l-168 -291h813l-174 -301h-1472z" />
<glyph unicode="&#xa4;" horiz-adv-x="1187" d="M88 350l121 123q-23 47 -42.5 110.5t-19.5 125.5q0 133 70 239l-129 129l143 144l129 -127q49 29 110.5 48t123.5 19q63 0 123.5 -19.5t111.5 -47.5l129 127l142 -146l-127 -129q31 -53 49 -112.5t18 -124.5q0 -61 -18 -124t-45 -110l123 -125l-142 -141l-124 121 q-51 -37 -113 -54.5t-127 -17.5q-141 0 -242 70l-121 -119zM348 709q1 -105 64 -179q33 -33 76.5 -53t101.5 -20q55 0 101 20.5t79 54t51.5 79.5t18.5 98q0 51 -17.5 97t-50.5 81t-78 55.5t-102 20.5t-102.5 -20.5t-77 -55.5t-48 -81t-16.5 -97z" />
<glyph unicode="&#xa5;" horiz-adv-x="1898" d="M125 399l170 258h272l-217 779h434l168 -609l883 609h553l-1139 -779h314l-168 -258h-424l-232 -399h-460l229 399h-383z" />
<glyph unicode="&#xa6;" horiz-adv-x="1302" d="M537 -358v870h225v-870h-225zM537 973v870h225v-870h-225z" />
<glyph unicode="&#xa7;" horiz-adv-x="1771" d="M-604 -500l188 301h1018q70 0 115 20.5t80 80.5q29 45 28 71q0 49 -100 64l-506 69q-160 23 -249 87.5t-89 168.5q0 90 72 201l53 86q68 111 168 174q-2 10 -3 19.5t-1 19.5q0 90 72 201l53 86q49 78 111.5 132t143.5 89t184.5 50.5t236.5 15.5h1059l-189 -301h-897 q-59 0 -101 -5.5t-72 -17.5t-50.5 -29.5t-34.5 -42.5q-25 -37 -24 -63q0 -55 112 -70l557 -80q127 -18 201 -75.5t74 -155.5q0 -47 -17.5 -99.5t-56.5 -115.5l-64 -102q-66 -102 -153 -162q2 -6 2 -21q0 -47 -17.5 -99t-56.5 -116l-63 -102q-47 -76 -109.5 -129t-149.5 -86 t-207 -48.5t-282 -15.5h-1036zM373 477q0 -55 112 -69l535 -78q35 25 65 71q29 45 29 72q0 49 -100 64l-537 73q-51 -23 -80 -69q-25 -37 -24 -64z" />
<glyph unicode="&#xa8;" horiz-adv-x="1054" d="M27 1552l168 291h333l-166 -291h-335zM530 1552l168 291h334l-166 -291h-336z" />
<glyph unicode="&#xa9;" horiz-adv-x="2000" d="M-66 260q0 143 127 356l211 349q86 141 163 233t165 145q92 55 200.5 74t274.5 19h606q385 0 385 -256q0 -74 -30.5 -165t-96.5 -196l-210 -346q-86 -141 -162 -232t-165 -145.5t-203 -75t-273 -20.5h-607q-199 0 -292 67.5t-93 192.5zM160 324q0 -86 69.5 -118 t200.5 -32h518q102 0 178 9.5t139.5 43t122 97t125.5 172.5l220 354q109 176 108 264q0 86 -69.5 118t-200.5 32h-520q-100 0 -177 -11.5t-141.5 -46.5t-123 -97t-122.5 -167l-219 -354q-109 -176 -108 -264zM561 535q0 39 15.5 81.5t39.5 83.5l82 136q41 68 77 108.5t78 64 t95 31t129 7.5h402l-125 -191h-246q-33 0 -56.5 -3t-43 -13.5t-37 -27.5t-35.5 -46l-41 -64q-12 -18 -22.5 -39.5t-10.5 -37.5q0 -18 16.5 -30.5t63.5 -12.5h289l-117 -183h-375q-98 0 -138 38t-40 98z" />
<glyph unicode="&#xaa;" horiz-adv-x="700" d="M72 977q0 78 39 129t100 81t137 42t150 12q0 86 -36 122t-102 36q-98 0 -155 -80l-96 59q41 61 105.5 95t156.5 34q123 0 190.5 -62.5t67.5 -209.5v-471h-121l-4 49q-29 -23 -78 -45.5t-104 -22.5q-47 0 -92.5 14.5t-80 44.5t-56 73t-21.5 100zM203 975q0 -61 43 -89 t88 -28q49 0 92 19.5t72 44.5v211q-55 0 -107.5 -8.5t-94.5 -27t-67.5 -48t-25.5 -74.5z" />
<glyph unicode="&#xab;" horiz-adv-x="1970" d="M78 561l207 357l876 348l-203 -385l-503 -185l352 -190l-156 -293zM938 561l207 357l876 348l-203 -385l-503 -185l352 -190l-156 -293z" />
<glyph unicode="&#xac;" horiz-adv-x="1490" d="M35 580l186 299h1215l-394 -674h-438l217 375h-786z" />
<glyph unicode="&#xad;" horiz-adv-x="1705" />
<glyph unicode="&#xae;" horiz-adv-x="2000" d="M-66 260q0 143 127 356l211 349q86 141 163 233t165 145q92 55 200.5 74t274.5 19h606q385 0 385 -256q0 -74 -30.5 -165t-96.5 -196l-210 -346q-86 -141 -162 -232t-165 -145.5t-203 -75t-273 -20.5h-607q-199 0 -292 67.5t-93 192.5zM160 324q0 -86 69.5 -118 t200.5 -32h518q102 0 178 9.5t139.5 43t122 97t125.5 172.5l220 354q109 176 108 264q0 86 -69.5 118t-200.5 32h-520q-100 0 -177 -11.5t-141.5 -46.5t-123 -97t-122.5 -167l-219 -354q-109 -176 -108 -264zM444 399l375 650h486q80 0 119.5 -37t39.5 -90q0 -41 -26 -91 l-43 -73q-43 -74 -87 -103.5t-120 -36.5l112 -219h-249l-109 213h-31q-53 0 -78.5 -10t-41.5 -41l-95 -162h-252zM907 762q8 2 23.5 4t38.5 2h73q61 0 86 9t46 38l8 12q45 63 -35 64h-168z" />
<glyph unicode="&#xaf;" horiz-adv-x="1179" d="M68 1575l129 233h981l-134 -233h-976z" />
<glyph unicode="&#xb0;" horiz-adv-x="1142" d="M322 1020q0 72 61 174l68 113q39 63 74.5 104t78.5 64.5t98.5 32t135.5 8.5h307q104 0 160.5 -37t56.5 -105q0 -63 -55 -155l-68 -113q-41 -70 -79 -114t-81 -68.5t-99 -33.5t-134 -9h-307q-111 0 -164 36.5t-53 102.5zM612 1114q0 -33 56 -33h202q20 0 36 2t28 10.5 t22.5 21.5t24.5 36l43 66q27 43 27 65q0 33 -56 33h-204q-41 0 -61.5 -13.5t-47.5 -56.5l-43 -65q-27 -43 -27 -66z" />
<glyph unicode="&#xb1;" horiz-adv-x="1105" d="M63 0v137h979v-137h-979zM74 768v143h411v449h144v-449h411v-143h-411v-451h-144v451h-411z" />
<glyph unicode="&#xb2;" horiz-adv-x="614" d="M55 1221q47 78 104.5 117.5t149.5 39.5q98 0 157.5 -52t59.5 -138q0 -70 -35.5 -129.5t-80.5 -112.5l-140 -151h273v-107h-459v74q61 66 114.5 122t96.5 107q51 61 75.5 101.5t24.5 85.5t-25.5 67.5t-64.5 22.5q-41 0 -75.5 -21.5t-71.5 -81.5z" />
<glyph unicode="&#xb3;" horiz-adv-x="614" d="M51 819l101 58q33 -53 70.5 -73t74.5 -20q53 0 91 29t38 76q0 49 -41 75.5t-113 30.5v92q66 4 104 30t38 67q0 39 -32 63.5t-77 24.5q-86 0 -131 -88l-100 57q41 72 105.5 104.5t133.5 32.5q43 0 84 -12t73 -36.5t52.5 -59.5t20.5 -80q0 -47 -21.5 -84t-58.5 -62 q41 -23 65.5 -58.5t24.5 -94.5q0 -53 -22.5 -92t-58.5 -65.5t-82 -40t-91 -13.5q-70 0 -135.5 31.5t-112.5 107.5z" />
<glyph unicode="&#xb4;" horiz-adv-x="976" d="M39 1509l162 279l776 184l-156 -276z" />
<glyph unicode="&#xb5;" horiz-adv-x="1175" d="M164 -387v1364h160v-623q0 -135 61 -192.5t178 -57.5q94 0 157.5 38t90.5 91q14 29 16 68t2 74v602h160v-735q0 -70 13.5 -103t62.5 -33q37 0 55 9l25 -115q-23 -10 -54.5 -16.5t-52.5 -6.5q-70 0 -115.5 26t-70.5 95q-61 -63 -129 -92t-172 -29q-76 0 -136.5 24 t-99.5 71v-459h-151z" />
<glyph unicode="&#xb6;" horiz-adv-x="1036" d="M72 965q0 82 31.5 155.5t85 128t126 86t156.5 31.5h145v-1663h-145v862q-84 0 -156.5 32t-126 85t-85 126t-31.5 157zM754 -297v1663h147v-1663h-147z" />
<glyph unicode="&#xb7;" horiz-adv-x="778" d="M10 471l226 389h462l-227 -389h-461z" />
<glyph unicode="&#xb8;" horiz-adv-x="907" d="M115 -276l307 483h354l-305 -483h-356z" />
<glyph unicode="&#xb9;" horiz-adv-x="614" d="M86 1245l217 125h103v-680h-125v537l-140 -80z" />
<glyph unicode="&#xba;" horiz-adv-x="821" d="M72 1139q0 70 20.5 138.5t62.5 121.5t105.5 86t149.5 33t149.5 -33t105.5 -87.5t63.5 -123t21.5 -139.5q0 -72 -21.5 -139.5t-63.5 -122t-105.5 -87t-149.5 -32.5q-85 -1 -148 32q-94 53 -142 147.5t-48 205.5zM203 1139q0 -113 51 -191q27 -39 65.5 -61.5t90.5 -22.5 q51 0 90 22.5t65.5 61.5t39.5 87t13 102q0 51 -13 100t-39.5 87t-65.5 60.5t-90 22.5t-90 -22.5t-65 -60.5t-39 -86t-13 -99z" />
<glyph unicode="&#xbb;" horiz-adv-x="1970" d="M-27 213l203 385l504 184l-352 191l155 293l574 -348l-207 -357zM833 213l203 385l504 184l-352 191l155 293l574 -348l-207 -357z" />
<glyph unicode="&#xbc;" horiz-adv-x="1515" d="M53 57l1307 1315l90 -94l-1319 -1311zM86 1245l217 125h103v-680h-125v537l-140 -80zM895 180v96l330 398h98v-404h84v-90h-84v-178h-125v178h-303zM1016 270h182v228z" />
<glyph unicode="&#xbd;" horiz-adv-x="1515" d="M25 57l1306 1315l90 -94l-1319 -1311zM66 1245l217 125h102v-680h-125v537l-139 -80zM891 532q47 78 104.5 118t149.5 40q98 0 157.5 -52t59.5 -138q0 -70 -36 -129.5t-81 -112.5l-139 -152h272v-106h-458v74q61 66 114 122t96 107q51 61 76 101t25 85t-25.5 68t-64.5 23 q-41 0 -76 -21.5t-72 -81.5z" />
<glyph unicode="&#xbe;" horiz-adv-x="1515" d="M51 819l101 58q33 -53 70.5 -73t74.5 -20q53 0 91 29t38 76q0 49 -41 75.5t-113 30.5v92q66 4 104 30t38 67q0 39 -32 63.5t-77 24.5q-86 0 -131 -88l-100 57q41 72 105.5 104.5t133.5 32.5q43 0 84 -12t73 -36.5t52.5 -59.5t20.5 -80q0 -47 -21.5 -84t-58.5 -62 q41 -23 65.5 -58.5t24.5 -94.5q0 -53 -22.5 -92t-58.5 -65.5t-82 -40t-91 -13.5q-70 0 -135.5 31.5t-112.5 107.5zM76 57l1306 1315l91 -94l-1319 -1311zM907 180v96l330 398h98v-404h84v-90h-84v-178h-125v178h-303zM1028 270h182v228z" />
<glyph unicode="&#xbf;" horiz-adv-x="1773" d="M-135 260q0 94 63 205l37 63q31 51 61.5 90t73.5 68t103.5 49.5t150.5 34.5l297 45q66 10 99.5 26.5t58.5 51.5l43 61h459l-66 -110q-37 -61 -77 -106.5t-86 -76t-101 -49t-123 -30.5l-264 -45q-51 -8 -88 -15.5t-63.5 -17.5t-45 -25.5t-32.5 -38.5l-17 -28 q-25 -41 -5.5 -76t101.5 -35h369q55 0 92 3t64.5 14.5t48 32t41.5 55.5l31 53h458l-59 -111q-96 -180 -249 -264t-400 -84h-549q-223 0 -324.5 72.5t-101.5 187.5zM885 1067l213 369h461l-211 -369h-463z" />
<glyph unicode="&#xc0;" horiz-adv-x="2121" d="M-403 0l1734 1436h281l106 -1436h-440l-14 274h-627q-94 0 -160.5 -17t-124.5 -64l-231 -193h-524zM702 479q47 35 130 45.5t169 10.5h246l-20 393zM1067 1714l141 223l697 -215l-136 -213z" />
<glyph unicode="&#xc1;" horiz-adv-x="2121" d="M-403 0l1734 1436h281l106 -1436h-440l-14 274h-627q-94 0 -160.5 -17t-124.5 -64l-231 -193h-524zM702 479q47 35 130 45.5t169 10.5h246l-20 393zM1102 1509l162 279l776 184l-156 -276z" />
<glyph unicode="&#xc2;" horiz-adv-x="2121" d="M-403 0l1734 1436h281l106 -1436h-440l-14 274h-627q-94 0 -160.5 -17t-124.5 -64l-231 -193h-524zM702 479q47 35 130 45.5t169 10.5h246l-20 393zM909 1503l143 262l549 127l533 -166l-133 -215l-467 142z" />
<glyph unicode="&#xc3;" horiz-adv-x="2121" d="M-403 0l1734 1436h281l106 -1436h-440l-14 274h-627q-94 0 -160.5 -17t-124.5 -64l-231 -193h-524zM702 479q47 35 130 45.5t169 10.5h246l-20 393zM927 1497l109 182q55 96 126.5 135t188.5 39q80 0 135.5 -23.5t96.5 -51t73.5 -50t67.5 -22.5q47 0 78 51l57 96h297 l-115 -186q-55 -94 -128.5 -132t-180.5 -38q-90 0 -149.5 23.5t-101.5 51t-74.5 51.5t-65.5 24q-25 0 -39 -12.5t-41 -63.5l-39 -74h-295z" />
<glyph unicode="&#xc4;" horiz-adv-x="2121" d="M-403 0l1734 1436h281l106 -1436h-440l-14 274h-627q-94 0 -160.5 -17t-124.5 -64l-231 -193h-524zM702 479q47 35 130 45.5t169 10.5h246l-20 393zM1096 1552l168 291h333l-166 -291h-335zM1599 1552l168 291h334l-166 -291h-336z" />
<glyph unicode="&#xc5;" horiz-adv-x="2121" d="M-403 0l1734 1436q-78 4 -116.5 36.5t-38.5 86.5q0 51 36 110l50 78q47 74 109.5 112.5t150.5 38.5h293q78 0 119.5 -31.5t41.5 -84.5q0 -51 -41 -117l-45 -74q-51 -82 -113.5 -118.5t-158.5 -36.5h-6l106 -1436h-440l-14 274h-627q-94 0 -160.5 -17t-124.5 -64 l-231 -193h-524zM702 479q47 35 130 45.5t169 10.5h246l-20 393zM1454 1619q8 -15 37 -15h90q35 0 53.5 9t30.5 32l21 34q14 25 7 40.5t-36 15.5h-90q-37 0 -52.5 -9.5t-31.5 -31.5l-21 -35q-16 -25 -8 -40z" />
<glyph unicode="&#xc6;" horiz-adv-x="3016" d="M-403 0l1878 1436h1833l-175 -301h-1069l-163 -283q20 12 43.5 22.5t58.5 16.5t82 10t113 4h669l-174 -301h-723q-68 0 -114 -8t-79.5 -27.5t-60 -50.5t-51.5 -74l-82 -143h1159l-174 -301h-1618l158 274h-418q-94 0 -159.5 -18t-124.5 -63l-265 -193h-544zM754 475 q66 31 137.5 45.5t167.5 14.5l198 -3l324 562z" />
<glyph unicode="&#xc7;" horiz-adv-x="1738" d="M-92 309q0 152 129 363l180 295q84 137 162 228t170 144.5t207.5 75t275.5 21.5h1008l-174 -301h-789q-92 0 -155.5 -10.5t-111.5 -37t-87 -73.5t-84 -121l-162 -262q-41 -70 -65.5 -125t-24.5 -96q0 -53 44 -81t147 -28h866l-174 -301h-412l-174 -276h-356l176 276h-146 q-203 0 -326.5 77t-123.5 232z" />
<glyph unicode="&#xc8;" horiz-adv-x="1775" d="M-291 0l828 1436h1529l-174 -301h-1069l-164 -283q20 12 44 22.5t59 16.5t82 10t112 4h670l-174 -301h-723q-68 0 -114 -8t-79.5 -27.5t-60 -50.5t-51.5 -74l-82 -143h1159l-174 -301h-1618zM907 1714l141 223l697 -215l-136 -213z" />
<glyph unicode="&#xc9;" horiz-adv-x="1775" d="M-291 0l828 1436h1529l-174 -301h-1069l-164 -283q20 12 44 22.5t59 16.5t82 10t112 4h670l-174 -301h-723q-68 0 -114 -8t-79.5 -27.5t-60 -50.5t-51.5 -74l-82 -143h1159l-174 -301h-1618zM1010 1509l162 279l776 184l-156 -276z" />
<glyph unicode="&#xca;" horiz-adv-x="1775" d="M-291 0l828 1436h1529l-174 -301h-1069l-164 -283q20 12 44 22.5t59 16.5t82 10t112 4h670l-174 -301h-723q-68 0 -114 -8t-79.5 -27.5t-60 -50.5t-51.5 -74l-82 -143h1159l-174 -301h-1618zM764 1503l143 262l549 127l533 -166l-133 -215l-467 142z" />
<glyph unicode="&#xcb;" horiz-adv-x="1775" d="M-291 0l828 1436h1529l-174 -301h-1069l-164 -283q20 12 44 22.5t59 16.5t82 10t112 4h670l-174 -301h-723q-68 0 -114 -8t-79.5 -27.5t-60 -50.5t-51.5 -74l-82 -143h1159l-174 -301h-1618zM924 1552l168 291h333l-166 -291h-335zM1427 1552l168 291h334l-166 -291h-336 z" />
<glyph unicode="&#xcc;" horiz-adv-x="706" d="M-291 0l828 1436h460l-829 -1436h-459zM344 1714l141 223l697 -215l-136 -213z" />
<glyph unicode="&#xcd;" horiz-adv-x="706" d="M-291 0l828 1436h460l-829 -1436h-459zM453 1509l162 279l776 184l-156 -276z" />
<glyph unicode="&#xce;" horiz-adv-x="706" d="M-291 0l828 1436h460l-829 -1436h-459zM209 1503l143 262l549 127l533 -166l-133 -215l-467 142z" />
<glyph unicode="&#xcf;" horiz-adv-x="706" d="M-291 0l828 1436h460l-829 -1436h-459zM389 1552l168 291h333l-166 -291h-335zM892 1552l168 291h334l-166 -291h-336z" />
<glyph unicode="&#xd0;" horiz-adv-x="2068" d="M-291 0l363 629h-189l129 233h193l332 574h901q180 0 305 -30t202.5 -82t113.5 -124t36 -156q0 -92 -36 -192t-101 -205l-72 -117q-96 -158 -194.5 -260t-232.5 -162.5t-318.5 -84t-454.5 -23.5h-977zM342 301h483q215 0 374 67.5t267 243.5l35 56q59 96 86 167.5 t27 125.5q0 96 -80 135t-221 39h-490l-157 -273h352l-133 -233h-355z" />
<glyph unicode="&#xd1;" horiz-adv-x="2033" d="M-291 0l828 1436h342l473 -920l532 920h440l-829 -1436h-336l-475 920l-534 -920h-441zM827 1497l109 182q55 96 126.5 135t188.5 39q80 0 135.5 -23.5t96.5 -51t73.5 -50t67.5 -22.5q47 0 78 51l57 96h297l-115 -186q-55 -94 -128.5 -132t-180.5 -38q-90 0 -149.5 23.5 t-101.5 51t-74.5 51.5t-65.5 24q-25 0 -39 -12.5t-41 -63.5l-39 -74h-295z" />
<glyph unicode="&#xd2;" d="M-92 309q0 152 129 363l180 295q84 137 162 228t170 144.5t207.5 75t275.5 21.5h651q100 0 183.5 -19.5t142.5 -58.5t92 -97.5t33 -136.5q0 -74 -30.5 -163t-98.5 -197l-180 -295q-84 -139 -162 -229t-169 -143.5t-208 -75t-276 -21.5h-652q-203 0 -326.5 77t-123.5 232z M387 410q0 -53 44 -81t147 -28h387q94 0 156.5 10.5t110.5 37t87 73.5t84 121l162 262q41 68 65.5 124t24.5 97q0 53 -44 81t-147 28h-387q-92 0 -155.5 -10.5t-111.5 -37t-87 -73.5t-84 -121l-162 -262q-41 -70 -65.5 -125t-24.5 -96zM975 1714l141 223l697 -215l-136 -213 z" />
<glyph unicode="&#xd3;" d="M-92 309q0 152 129 363l180 295q84 137 162 228t170 144.5t207.5 75t275.5 21.5h651q100 0 183.5 -19.5t142.5 -58.5t92 -97.5t33 -136.5q0 -74 -30.5 -163t-98.5 -197l-180 -295q-84 -139 -162 -229t-169 -143.5t-208 -75t-276 -21.5h-652q-203 0 -326.5 77t-123.5 232z M387 410q0 -53 44 -81t147 -28h387q94 0 156.5 10.5t110.5 37t87 73.5t84 121l162 262q41 68 65.5 124t24.5 97q0 53 -44 81t-147 28h-387q-92 0 -155.5 -10.5t-111.5 -37t-87 -73.5t-84 -121l-162 -262q-41 -70 -65.5 -125t-24.5 -96zM995 1509l162 279l776 184l-156 -276z " />
<glyph unicode="&#xd4;" d="M-92 309q0 152 129 363l180 295q84 137 162 228t170 144.5t207.5 75t275.5 21.5h651q100 0 183.5 -19.5t142.5 -58.5t92 -97.5t33 -136.5q0 -74 -30.5 -163t-98.5 -197l-180 -295q-84 -139 -162 -229t-169 -143.5t-208 -75t-276 -21.5h-652q-203 0 -326.5 77t-123.5 232z M387 410q0 -53 44 -81t147 -28h387q94 0 156.5 10.5t110.5 37t87 73.5t84 121l162 262q41 68 65.5 124t24.5 97q0 53 -44 81t-147 28h-387q-92 0 -155.5 -10.5t-111.5 -37t-87 -73.5t-84 -121l-162 -262q-41 -70 -65.5 -125t-24.5 -96zM815 1503l143 262l549 127l533 -166 l-133 -215l-467 142z" />
<glyph unicode="&#xd5;" d="M-92 309q0 152 129 363l180 295q84 137 162 228t170 144.5t207.5 75t275.5 21.5h651q100 0 183.5 -19.5t142.5 -58.5t92 -97.5t33 -136.5q0 -74 -30.5 -163t-98.5 -197l-180 -295q-84 -139 -162 -229t-169 -143.5t-208 -75t-276 -21.5h-652q-203 0 -326.5 77t-123.5 232z M387 410q0 -53 44 -81t147 -28h387q94 0 156.5 10.5t110.5 37t87 73.5t84 121l162 262q41 68 65.5 124t24.5 97q0 53 -44 81t-147 28h-387q-92 0 -155.5 -10.5t-111.5 -37t-87 -73.5t-84 -121l-162 -262q-41 -70 -65.5 -125t-24.5 -96zM813 1497l109 182q55 96 126.5 135 t188.5 39q80 0 135.5 -23.5t96.5 -51t73.5 -50t67.5 -22.5q47 0 78 51l57 96h297l-115 -186q-55 -94 -128.5 -132t-180.5 -38q-90 0 -149.5 23.5t-101.5 51t-74.5 51.5t-65.5 24q-25 0 -39 -12.5t-41 -63.5l-39 -74h-295z" />
<glyph unicode="&#xd6;" d="M-92 309q0 152 129 363l180 295q84 137 162 228t170 144.5t207.5 75t275.5 21.5h651q100 0 183.5 -19.5t142.5 -58.5t92 -97.5t33 -136.5q0 -74 -30.5 -163t-98.5 -197l-180 -295q-84 -139 -162 -229t-169 -143.5t-208 -75t-276 -21.5h-652q-203 0 -326.5 77t-123.5 232z M387 410q0 -53 44 -81t147 -28h387q94 0 156.5 10.5t110.5 37t87 73.5t84 121l162 262q41 68 65.5 124t24.5 97q0 53 -44 81t-147 28h-387q-92 0 -155.5 -10.5t-111.5 -37t-87 -73.5t-84 -121l-162 -262q-41 -70 -65.5 -125t-24.5 -96zM965 1552l168 291h333l-166 -291h-335 zM1468 1552l168 291h334l-166 -291h-336z" />
<glyph unicode="&#xd7;" horiz-adv-x="1331" d="M33 467l456 297l-159 334l327 114l125 -258l394 256l206 -209l-475 -309l156 -317l-328 -121l-121 248l-383 -248z" />
<glyph unicode="&#xd8;" d="M-158 -186l252 229q-88 37 -137 102.5t-49 163.5q0 152 129 363l180 295q84 137 162 228t170 144.5t207.5 75t275.5 21.5h584l205 186h383l-256 -233q88 -37 137 -102.5t49 -162.5q0 -74 -30.5 -163t-98.5 -197l-180 -295q-84 -139 -162 -229t-169 -143.5t-208 -75 t-276 -21.5h-582l-203 -186h-383zM387 410q0 -45 29 -72l870 797h-209q-92 0 -155.5 -10.5t-111.5 -37t-87 -73.5t-84 -121l-162 -262q-41 -70 -65.5 -125t-24.5 -96zM758 301h207q94 0 156.5 10.5t110.5 37t87 73.5t84 121l162 262q41 68 65.5 124t24.5 97q0 45 -29 68z " />
<glyph unicode="&#xd9;" horiz-adv-x="1875" d="M-90 303q0 72 28.5 157t88.5 189l469 787h460l-475 -805q-43 -72 -67.5 -128.5t-24.5 -96.5q0 -51 43 -78t143 -27h216q94 0 157.5 10.5t110.5 38t87 74.5t85 123l532 889h461l-579 -967q-84 -139 -163 -230.5t-172 -144.5t-211 -73.5t-278 -20.5h-471q-203 0 -321.5 76 t-118.5 227zM983 1714l141 223l697 -215l-136 -213z" />
<glyph unicode="&#xda;" horiz-adv-x="1875" d="M-90 303q0 72 28.5 157t88.5 189l469 787h460l-475 -805q-43 -72 -67.5 -128.5t-24.5 -96.5q0 -51 43 -78t143 -27h216q94 0 157.5 10.5t110.5 38t87 74.5t85 123l532 889h461l-579 -967q-84 -139 -163 -230.5t-172 -144.5t-211 -73.5t-278 -20.5h-471q-203 0 -321.5 76 t-118.5 227zM1043 1509l162 279l776 184l-156 -276z" />
<glyph unicode="&#xdb;" horiz-adv-x="1875" d="M-90 303q0 72 28.5 157t88.5 189l469 787h460l-475 -805q-43 -72 -67.5 -128.5t-24.5 -96.5q0 -51 43 -78t143 -27h216q94 0 157.5 10.5t110.5 38t87 74.5t85 123l532 889h461l-579 -967q-84 -139 -163 -230.5t-172 -144.5t-211 -73.5t-278 -20.5h-471q-203 0 -321.5 76 t-118.5 227zM792 1503l143 262l549 127l533 -166l-133 -215l-467 142z" />
<glyph unicode="&#xdc;" horiz-adv-x="1875" d="M-90 303q0 72 28.5 157t88.5 189l469 787h460l-475 -805q-43 -72 -67.5 -128.5t-24.5 -96.5q0 -51 43 -78t143 -27h216q94 0 157.5 10.5t110.5 38t87 74.5t85 123l532 889h461l-579 -967q-84 -139 -163 -230.5t-172 -144.5t-211 -73.5t-278 -20.5h-471q-203 0 -321.5 76 t-118.5 227zM955 1552l168 291h333l-166 -291h-335zM1458 1552l168 291h334l-166 -291h-336z" />
<glyph unicode="&#xdd;" horiz-adv-x="2037" d="M342 0l320 553l-248 883h434l168 -609l882 609h553l-1353 -926l-295 -510h-461zM1059 1509l162 279l776 184l-156 -276z" />
<glyph unicode="&#xde;" horiz-adv-x="1830" d="M-291 0l828 1436h467l-117 -199h532q231 0 338 -72.5t107 -195.5q0 -117 -90 -267l-95 -157q-49 -84 -109.5 -145.5t-145.5 -101.5t-198.5 -59.5t-267.5 -19.5h-448q-68 0 -114 -8t-79.5 -27.5t-60.5 -50.5t-51 -74l-37 -59h-459zM440 467q18 12 43 22.5t58.5 16.5t82 10 t113.5 4h209q70 0 120 3t88 17.5t67.5 42t58.5 74.5l57 95q41 72 41 114q0 70 -90 70h-577z" />
<glyph unicode="&#xdf;" horiz-adv-x="3543" d="M-315 0l188 301h1018q70 0 115 20.5t79 79.5q29 45 29 72q0 49 -100 64l-506 69q-160 23 -249 87.5t-89 168.5q0 90 72 201l53 86q49 78 111.5 132t143.5 89t184.5 50.5t236.5 15.5h1059l-189 -301h-897q-59 0 -101 -5.5t-72 -17.5t-50.5 -29.5t-34.5 -42.5 q-25 -37 -24 -63q0 -55 112 -70l557 -80q127 -18 201 -75.5t74 -155.5q0 -47 -17.5 -99.5t-56.5 -115.5l-64 -102q-47 -76 -109.5 -129.5t-149.5 -86t-206.5 -48t-281.5 -15.5h-1036zM1456 0l189 301h1017q70 0 115 20.5t80 79.5q29 45 29 72q0 49 -101 64l-506 69 q-160 23 -248.5 87.5t-88.5 168.5q0 90 71 201l53 86q49 78 112 132t143.5 89t184 50.5t236.5 15.5h1059l-188 -301h-897q-59 0 -101.5 -5.5t-72 -17.5t-50 -29.5t-34.5 -42.5q-25 -37 -25 -63q0 -55 113 -70l557 -80q127 -18 200.5 -75.5t73.5 -155.5q0 -47 -17.5 -99.5 t-56.5 -115.5l-63 -102q-47 -76 -109.5 -129.5t-149.5 -86t-207 -48t-282 -15.5h-1036z" />
<glyph unicode="&#xe0;" horiz-adv-x="2121" d="M-403 0l1734 1436h281l106 -1436h-440l-14 274h-627q-94 0 -160.5 -17t-124.5 -64l-231 -193h-524zM702 479q47 35 130 45.5t169 10.5h246l-20 393zM1067 1714l141 223l697 -215l-136 -213z" />
<glyph unicode="&#xe1;" horiz-adv-x="2121" d="M-403 0l1734 1436h281l106 -1436h-440l-14 274h-627q-94 0 -160.5 -17t-124.5 -64l-231 -193h-524zM702 479q47 35 130 45.5t169 10.5h246l-20 393zM1102 1509l162 279l776 184l-156 -276z" />
<glyph unicode="&#xe2;" horiz-adv-x="2121" d="M-403 0l1734 1436h281l106 -1436h-440l-14 274h-627q-94 0 -160.5 -17t-124.5 -64l-231 -193h-524zM702 479q47 35 130 45.5t169 10.5h246l-20 393zM909 1503l143 262l549 127l533 -166l-133 -215l-467 142z" />
<glyph unicode="&#xe3;" horiz-adv-x="2121" d="M-403 0l1734 1436h281l106 -1436h-440l-14 274h-627q-94 0 -160.5 -17t-124.5 -64l-231 -193h-524zM702 479q47 35 130 45.5t169 10.5h246l-20 393zM927 1497l109 182q55 96 126.5 135t188.5 39q80 0 135.5 -23.5t96.5 -51t73.5 -50t67.5 -22.5q47 0 78 51l57 96h297 l-115 -186q-55 -94 -128.5 -132t-180.5 -38q-90 0 -149.5 23.5t-101.5 51t-74.5 51.5t-65.5 24q-25 0 -39 -12.5t-41 -63.5l-39 -74h-295z" />
<glyph unicode="&#xe4;" horiz-adv-x="2121" d="M-403 0l1734 1436h281l106 -1436h-440l-14 274h-627q-94 0 -160.5 -17t-124.5 -64l-231 -193h-524zM702 479q47 35 130 45.5t169 10.5h246l-20 393zM1096 1552l168 291h333l-166 -291h-335zM1599 1552l168 291h334l-166 -291h-336z" />
<glyph unicode="&#xe5;" horiz-adv-x="2121" d="M-403 0l1734 1436q-78 4 -116.5 36.5t-38.5 86.5q0 51 36 110l50 78q47 74 109.5 112.5t150.5 38.5h293q78 0 119.5 -31.5t41.5 -84.5q0 -51 -41 -117l-45 -74q-51 -82 -113.5 -118.5t-158.5 -36.5h-6l106 -1436h-440l-14 274h-627q-94 0 -160.5 -17t-124.5 -64 l-231 -193h-524zM702 479q47 35 130 45.5t169 10.5h246l-20 393zM1454 1619q8 -15 37 -15h90q35 0 53.5 9t30.5 32l21 34q14 25 7 40.5t-36 15.5h-90q-37 0 -52.5 -9.5t-31.5 -31.5l-21 -35q-16 -25 -8 -40z" />
<glyph unicode="&#xe6;" horiz-adv-x="3016" d="M-403 0l1878 1436h1833l-175 -301h-1069l-163 -283q20 12 43.5 22.5t58.5 16.5t82 10t113 4h669l-174 -301h-723q-68 0 -114 -8t-79.5 -27.5t-60 -50.5t-51.5 -74l-82 -143h1159l-174 -301h-1618l158 274h-418q-94 0 -159.5 -18t-124.5 -63l-265 -193h-544zM754 475 q66 31 137.5 45.5t167.5 14.5l198 -3l324 562z" />
<glyph unicode="&#xe7;" horiz-adv-x="1738" d="M-92 309q0 152 129 363l180 295q84 137 162 228t170 144.5t207.5 75t275.5 21.5h1008l-174 -301h-789q-92 0 -155.5 -10.5t-111.5 -37t-87 -73.5t-84 -121l-162 -262q-41 -70 -65.5 -125t-24.5 -96q0 -53 44 -81t147 -28h866l-174 -301h-412l-174 -276h-356l176 276h-146 q-203 0 -326.5 77t-123.5 232z" />
<glyph unicode="&#xe8;" horiz-adv-x="1775" d="M-291 0l828 1436h1529l-174 -301h-1069l-164 -283q20 12 44 22.5t59 16.5t82 10t112 4h670l-174 -301h-723q-68 0 -114 -8t-79.5 -27.5t-60 -50.5t-51.5 -74l-82 -143h1159l-174 -301h-1618zM907 1714l141 223l697 -215l-136 -213z" />
<glyph unicode="&#xe9;" horiz-adv-x="1775" d="M-291 0l828 1436h1529l-174 -301h-1069l-164 -283q20 12 44 22.5t59 16.5t82 10t112 4h670l-174 -301h-723q-68 0 -114 -8t-79.5 -27.5t-60 -50.5t-51.5 -74l-82 -143h1159l-174 -301h-1618zM1010 1509l162 279l776 184l-156 -276z" />
<glyph unicode="&#xea;" horiz-adv-x="1775" d="M-291 0l828 1436h1529l-174 -301h-1069l-164 -283q20 12 44 22.5t59 16.5t82 10t112 4h670l-174 -301h-723q-68 0 -114 -8t-79.5 -27.5t-60 -50.5t-51.5 -74l-82 -143h1159l-174 -301h-1618zM764 1503l143 262l549 127l533 -166l-133 -215l-467 142z" />
<glyph unicode="&#xeb;" horiz-adv-x="1775" d="M-291 0l828 1436h1529l-174 -301h-1069l-164 -283q20 12 44 22.5t59 16.5t82 10t112 4h670l-174 -301h-723q-68 0 -114 -8t-79.5 -27.5t-60 -50.5t-51.5 -74l-82 -143h1159l-174 -301h-1618zM924 1552l168 291h333l-166 -291h-335zM1427 1552l168 291h334l-166 -291h-336 z" />
<glyph unicode="&#xec;" horiz-adv-x="706" d="M-291 0l828 1436h460l-829 -1436h-459zM344 1714l141 223l697 -215l-136 -213z" />
<glyph unicode="&#xed;" horiz-adv-x="706" d="M-291 0l828 1436h460l-829 -1436h-459zM453 1509l162 279l776 184l-156 -276z" />
<glyph unicode="&#xee;" horiz-adv-x="706" d="M-291 0l828 1436h460l-829 -1436h-459zM209 1503l143 262l549 127l533 -166l-133 -215l-467 142z" />
<glyph unicode="&#xef;" horiz-adv-x="706" d="M-291 0l828 1436h460l-829 -1436h-459zM389 1552l168 291h333l-166 -291h-335zM892 1552l168 291h334l-166 -291h-336z" />
<glyph unicode="&#xf0;" horiz-adv-x="2068" d="M-291 0l363 629h-189l129 233h193l332 574h901q180 0 305 -30t202.5 -82t113.5 -124t36 -156q0 -92 -36 -192t-101 -205l-72 -117q-96 -158 -194.5 -260t-232.5 -162.5t-318.5 -84t-454.5 -23.5h-977zM342 301h483q215 0 374 67.5t267 243.5l35 56q59 96 86 167.5 t27 125.5q0 96 -80 135t-221 39h-490l-157 -273h352l-133 -233h-355z" />
<glyph unicode="&#xf1;" horiz-adv-x="2033" d="M-291 0l828 1436h342l473 -920l532 920h440l-829 -1436h-336l-475 920l-534 -920h-441zM827 1497l109 182q55 96 126.5 135t188.5 39q80 0 135.5 -23.5t96.5 -51t73.5 -50t67.5 -22.5q47 0 78 51l57 96h297l-115 -186q-55 -94 -128.5 -132t-180.5 -38q-90 0 -149.5 23.5 t-101.5 51t-74.5 51.5t-65.5 24q-25 0 -39 -12.5t-41 -63.5l-39 -74h-295z" />
<glyph unicode="&#xf2;" d="M-92 309q0 152 129 363l180 295q84 137 162 228t170 144.5t207.5 75t275.5 21.5h651q100 0 183.5 -19.5t142.5 -58.5t92 -97.5t33 -136.5q0 -74 -30.5 -163t-98.5 -197l-180 -295q-84 -139 -162 -229t-169 -143.5t-208 -75t-276 -21.5h-652q-203 0 -326.5 77t-123.5 232z M387 410q0 -53 44 -81t147 -28h387q94 0 156.5 10.5t110.5 37t87 73.5t84 121l162 262q41 68 65.5 124t24.5 97q0 53 -44 81t-147 28h-387q-92 0 -155.5 -10.5t-111.5 -37t-87 -73.5t-84 -121l-162 -262q-41 -70 -65.5 -125t-24.5 -96zM975 1714l141 223l697 -215l-136 -213 z" />
<glyph unicode="&#xf3;" d="M-92 309q0 152 129 363l180 295q84 137 162 228t170 144.5t207.5 75t275.5 21.5h651q100 0 183.5 -19.5t142.5 -58.5t92 -97.5t33 -136.5q0 -74 -30.5 -163t-98.5 -197l-180 -295q-84 -139 -162 -229t-169 -143.5t-208 -75t-276 -21.5h-652q-203 0 -326.5 77t-123.5 232z M387 410q0 -53 44 -81t147 -28h387q94 0 156.5 10.5t110.5 37t87 73.5t84 121l162 262q41 68 65.5 124t24.5 97q0 53 -44 81t-147 28h-387q-92 0 -155.5 -10.5t-111.5 -37t-87 -73.5t-84 -121l-162 -262q-41 -70 -65.5 -125t-24.5 -96zM995 1509l162 279l776 184l-156 -276z " />
<glyph unicode="&#xf4;" d="M-92 309q0 152 129 363l180 295q84 137 162 228t170 144.5t207.5 75t275.5 21.5h651q100 0 183.5 -19.5t142.5 -58.5t92 -97.5t33 -136.5q0 -74 -30.5 -163t-98.5 -197l-180 -295q-84 -139 -162 -229t-169 -143.5t-208 -75t-276 -21.5h-652q-203 0 -326.5 77t-123.5 232z M387 410q0 -53 44 -81t147 -28h387q94 0 156.5 10.5t110.5 37t87 73.5t84 121l162 262q41 68 65.5 124t24.5 97q0 53 -44 81t-147 28h-387q-92 0 -155.5 -10.5t-111.5 -37t-87 -73.5t-84 -121l-162 -262q-41 -70 -65.5 -125t-24.5 -96zM815 1503l143 262l549 127l533 -166 l-133 -215l-467 142z" />
<glyph unicode="&#xf5;" d="M-92 309q0 152 129 363l180 295q84 137 162 228t170 144.5t207.5 75t275.5 21.5h651q100 0 183.5 -19.5t142.5 -58.5t92 -97.5t33 -136.5q0 -74 -30.5 -163t-98.5 -197l-180 -295q-84 -139 -162 -229t-169 -143.5t-208 -75t-276 -21.5h-652q-203 0 -326.5 77t-123.5 232z M387 410q0 -53 44 -81t147 -28h387q94 0 156.5 10.5t110.5 37t87 73.5t84 121l162 262q41 68 65.5 124t24.5 97q0 53 -44 81t-147 28h-387q-92 0 -155.5 -10.5t-111.5 -37t-87 -73.5t-84 -121l-162 -262q-41 -70 -65.5 -125t-24.5 -96zM813 1497l109 182q55 96 126.5 135 t188.5 39q80 0 135.5 -23.5t96.5 -51t73.5 -50t67.5 -22.5q47 0 78 51l57 96h297l-115 -186q-55 -94 -128.5 -132t-180.5 -38q-90 0 -149.5 23.5t-101.5 51t-74.5 51.5t-65.5 24q-25 0 -39 -12.5t-41 -63.5l-39 -74h-295z" />
<glyph unicode="&#xf6;" d="M-92 309q0 152 129 363l180 295q84 137 162 228t170 144.5t207.5 75t275.5 21.5h651q100 0 183.5 -19.5t142.5 -58.5t92 -97.5t33 -136.5q0 -74 -30.5 -163t-98.5 -197l-180 -295q-84 -139 -162 -229t-169 -143.5t-208 -75t-276 -21.5h-652q-203 0 -326.5 77t-123.5 232z M387 410q0 -53 44 -81t147 -28h387q94 0 156.5 10.5t110.5 37t87 73.5t84 121l162 262q41 68 65.5 124t24.5 97q0 53 -44 81t-147 28h-387q-92 0 -155.5 -10.5t-111.5 -37t-87 -73.5t-84 -121l-162 -262q-41 -70 -65.5 -125t-24.5 -96zM965 1552l168 291h333l-166 -291h-335 zM1468 1552l168 291h334l-166 -291h-336z" />
<glyph unicode="&#xf7;" horiz-adv-x="1341" d="M35 580l186 299h1084l-185 -299h-1085zM117 143l180 314h422l-182 -314h-420zM592 997l180 314h422l-182 -314h-420z" />
<glyph unicode="&#xf8;" d="M-158 -186l252 229q-88 37 -137 102.5t-49 163.5q0 152 129 363l180 295q84 137 162 228t170 144.5t207.5 75t275.5 21.5h584l205 186h383l-256 -233q88 -37 137 -102.5t49 -162.5q0 -74 -30.5 -163t-98.5 -197l-180 -295q-84 -139 -162 -229t-169 -143.5t-208 -75 t-276 -21.5h-582l-203 -186h-383zM387 410q0 -45 29 -72l870 797h-209q-92 0 -155.5 -10.5t-111.5 -37t-87 -73.5t-84 -121l-162 -262q-41 -70 -65.5 -125t-24.5 -96zM758 301h207q94 0 156.5 10.5t110.5 37t87 73.5t84 121l162 262q41 68 65.5 124t24.5 97q0 45 -29 68z " />
<glyph unicode="&#xf9;" horiz-adv-x="1875" d="M-90 303q0 72 28.5 157t88.5 189l469 787h460l-475 -805q-43 -72 -67.5 -128.5t-24.5 -96.5q0 -51 43 -78t143 -27h216q94 0 157.5 10.5t110.5 38t87 74.5t85 123l532 889h461l-579 -967q-84 -139 -163 -230.5t-172 -144.5t-211 -73.5t-278 -20.5h-471q-203 0 -321.5 76 t-118.5 227zM983 1714l141 223l697 -215l-136 -213z" />
<glyph unicode="&#xfa;" horiz-adv-x="1875" d="M-90 303q0 72 28.5 157t88.5 189l469 787h460l-475 -805q-43 -72 -67.5 -128.5t-24.5 -96.5q0 -51 43 -78t143 -27h216q94 0 157.5 10.5t110.5 38t87 74.5t85 123l532 889h461l-579 -967q-84 -139 -163 -230.5t-172 -144.5t-211 -73.5t-278 -20.5h-471q-203 0 -321.5 76 t-118.5 227zM1043 1509l162 279l776 184l-156 -276z" />
<glyph unicode="&#xfb;" horiz-adv-x="1875" d="M-90 303q0 72 28.5 157t88.5 189l469 787h460l-475 -805q-43 -72 -67.5 -128.5t-24.5 -96.5q0 -51 43 -78t143 -27h216q94 0 157.5 10.5t110.5 38t87 74.5t85 123l532 889h461l-579 -967q-84 -139 -163 -230.5t-172 -144.5t-211 -73.5t-278 -20.5h-471q-203 0 -321.5 76 t-118.5 227zM792 1503l143 262l549 127l533 -166l-133 -215l-467 142z" />
<glyph unicode="&#xfc;" horiz-adv-x="1875" d="M-90 303q0 72 28.5 157t88.5 189l469 787h460l-475 -805q-43 -72 -67.5 -128.5t-24.5 -96.5q0 -51 43 -78t143 -27h216q94 0 157.5 10.5t110.5 38t87 74.5t85 123l532 889h461l-579 -967q-84 -139 -163 -230.5t-172 -144.5t-211 -73.5t-278 -20.5h-471q-203 0 -321.5 76 t-118.5 227zM955 1552l168 291h333l-166 -291h-335zM1458 1552l168 291h334l-166 -291h-336z" />
<glyph unicode="&#xfd;" horiz-adv-x="2037" d="M342 0l320 553l-248 883h434l168 -609l882 609h553l-1353 -926l-295 -510h-461zM1059 1509l162 279l776 184l-156 -276z" />
<glyph unicode="&#xfe;" horiz-adv-x="1783" d="M-291 0l828 1436h467l-117 -199h532q231 0 338 -72.5t107 -195.5q0 -117 -90 -267l-95 -157q-49 -84 -109.5 -145.5t-145.5 -101.5t-198.5 -59.5t-267.5 -19.5h-448q-68 0 -114 -8t-79.5 -27.5t-60.5 -50.5t-51 -74l-37 -59h-459zM440 467q18 12 43 22.5t58.5 16.5t82 10 t113.5 4h209q70 0 120 3t88 17.5t67.5 42t58.5 74.5l57 95q41 72 41 114q0 70 -90 70h-577z" />
<glyph unicode="&#xff;" horiz-adv-x="2037" d="M342 0l320 553l-248 883h434l168 -609l882 609h553l-1353 -926l-295 -510h-461zM996 1552l168 291h333l-166 -291h-335zM1499 1552l168 291h334l-166 -291h-336z" />
<glyph unicode="&#x152;" horiz-adv-x="3166" d="M-92 309q0 152 129 363l180 295q84 137 162 228t170 144.5t207.5 75t275.5 21.5h561q231 0 332 -107l66 107h1466l-174 -301h-1069l-164 -283q20 12 44 22.5t58.5 16.5t81.5 10t113 4h670l-174 -301h-723q-68 0 -114 -8t-80 -27.5t-60.5 -50.5t-50.5 -74l-82 -143h1159 l-174 -301h-1407l75 133q-100 -72 -226 -102.5t-304 -30.5h-498q-203 0 -326.5 77t-123.5 232zM387 410q0 -53 44 -81t147 -28h344q170 0 283.5 54.5t199.5 174.5l199 344q37 76 36 132q0 129 -210 129h-353q-92 0 -155.5 -10.5t-111.5 -37t-87 -73.5t-84 -121l-162 -262 q-41 -70 -65.5 -125t-24.5 -96z" />
<glyph unicode="&#x153;" horiz-adv-x="3166" d="M-92 309q0 152 129 363l180 295q84 137 162 228t170 144.5t207.5 75t275.5 21.5h561q231 0 332 -107l66 107h1466l-174 -301h-1069l-164 -283q20 12 44 22.5t58.5 16.5t81.5 10t113 4h670l-174 -301h-723q-68 0 -114 -8t-80 -27.5t-60.5 -50.5t-50.5 -74l-82 -143h1159 l-174 -301h-1407l75 133q-100 -72 -226 -102.5t-304 -30.5h-498q-203 0 -326.5 77t-123.5 232zM387 410q0 -53 44 -81t147 -28h344q170 0 283.5 54.5t199.5 174.5l199 344q37 76 36 132q0 129 -210 129h-353q-92 0 -155.5 -10.5t-111.5 -37t-87 -73.5t-84 -121l-162 -262 q-41 -70 -65.5 -125t-24.5 -96z" />
<glyph unicode="&#x178;" horiz-adv-x="2037" d="M342 0l320 553l-248 883h434l168 -609l882 609h553l-1353 -926l-295 -510h-461zM996 1552l168 291h333l-166 -291h-335zM1499 1552l168 291h334l-166 -291h-336z" />
<glyph unicode="&#x2c6;" horiz-adv-x="1302" d="M47 1503l143 262l549 127l533 -166l-133 -215l-467 142z" />
<glyph unicode="&#x2dc;" horiz-adv-x="1366" d="M96 1497l109 182q55 96 126.5 135t188.5 39q80 0 135.5 -23.5t96.5 -51t73.5 -50t67.5 -22.5q47 0 78 51l57 96h297l-115 -186q-55 -94 -128.5 -132t-180.5 -38q-90 0 -149.5 23.5t-101.5 51t-74.5 51.5t-65.5 24q-25 0 -39 -12.5t-41 -63.5l-39 -74h-295z" />
<glyph unicode="&#x2000;" horiz-adv-x="986" />
<glyph unicode="&#x2001;" horiz-adv-x="1972" />
<glyph unicode="&#x2002;" horiz-adv-x="986" />
<glyph unicode="&#x2003;" horiz-adv-x="1972" />
<glyph unicode="&#x2004;" horiz-adv-x="657" />
<glyph unicode="&#x2005;" horiz-adv-x="493" />
<glyph unicode="&#x2006;" horiz-adv-x="328" />
<glyph unicode="&#x2007;" horiz-adv-x="328" />
<glyph unicode="&#x2008;" horiz-adv-x="246" />
<glyph unicode="&#x2009;" horiz-adv-x="394" />
<glyph unicode="&#x200a;" horiz-adv-x="109" />
<glyph unicode="&#x2010;" horiz-adv-x="1206" d="M72 569l196 320h879l-195 -320h-880z" />
<glyph unicode="&#x2011;" horiz-adv-x="1206" d="M72 569l196 320h879l-195 -320h-880z" />
<glyph unicode="&#x2012;" horiz-adv-x="1206" d="M72 569l196 320h879l-195 -320h-880z" />
<glyph unicode="&#x2013;" horiz-adv-x="1024" d="M-98 569l196 320h1024l-196 -320h-1024z" />
<glyph unicode="&#x2014;" horiz-adv-x="2048" d="M-98 569l196 320h2048l-196 -320h-2048z" />
<glyph unicode="&#x2018;" horiz-adv-x="595" d="M188 870l365 566h321l-313 -566h-373z" />
<glyph unicode="&#x2019;" horiz-adv-x="595" d="M209 870l283 566h403l-395 -566h-291z" />
<glyph unicode="&#x201a;" horiz-adv-x="595" d="M-369 -152l365 566h321l-313 -566h-373z" />
<glyph unicode="&#x201c;" horiz-adv-x="1189" d="M188 870l365 566h321l-313 -566h-373zM782 870l365 566h321l-313 -566h-373z" />
<glyph unicode="&#x201d;" horiz-adv-x="1189" d="M209 870l283 566h403l-395 -566h-291zM803 870l283 566h403l-395 -566h-291z" />
<glyph unicode="&#x201e;" horiz-adv-x="1189" d="M-369 -152l365 566h321l-313 -566h-373zM223 -152l365 566h321l-313 -566h-373z" />
<glyph unicode="&#x2022;" horiz-adv-x="1079" d="M139 614q0 51 37 111l49 78q47 74 109.5 112.5t150.5 38.5h293q78 0 120 -31.5t42 -84.5q0 -51 -41 -117l-45 -74q-51 -82 -113.5 -118.5t-158.5 -36.5h-267q-88 0 -132 33.5t-44 88.5z" />
<glyph unicode="&#x2026;" horiz-adv-x="2334" d="M-252 0l225 389h463l-227 -389h-461zM526 0l225 389h463l-227 -389h-461zM1304 0l225 389h463l-227 -389h-461z" />
<glyph unicode="&#x202f;" horiz-adv-x="394" />
<glyph unicode="&#x2039;" horiz-adv-x="1110" d="M78 561l207 357l876 348l-203 -385l-503 -185l352 -190l-156 -293z" />
<glyph unicode="&#x203a;" horiz-adv-x="1110" d="M-27 213l203 385l504 184l-352 191l155 293l574 -348l-207 -357z" />
<glyph unicode="&#x205f;" horiz-adv-x="493" />
<glyph unicode="&#x20ac;" horiz-adv-x="1898" d="M-61 430l124 219h199l14 23l72 116h-196l124 220h205q80 125 156 207.5t166 132t202.5 69t266.5 19.5h905l-174 -301h-686q-72 0 -125 -6.5t-94 -20.5t-75 -39t-65 -61h508l-129 -220h-524l-86 -139h526l-129 -219h-495q-10 -63 33 -96t155 -33h764l-174 -301h-809 q-203 0 -325.5 77t-122.5 232q0 29 3 58.5t13 62.5h-227z" />
<glyph unicode="&#x2122;" horiz-adv-x="2668" d="M377 627l362 624h-329l106 185h946l-104 -185h-328l-362 -624h-291zM1116 627l465 809h313l60 -545l618 545h367l-465 -809h-291l283 477l-545 -477h-197l-51 477l-266 -477h-291z" />
<glyph unicode="&#x25fc;" horiz-adv-x="1433" d="M0 0v1434h1434v-1434h-1434z" />
<glyph unicode="&#xfb01;" horiz-adv-x="2383" d="M-291 0l828 1436h1468l-174 -301h-1008l-196 -340q18 12 42.5 22t58.5 16.5t82 10.5t114 4h608l-174 -301h-662q-68 0 -113.5 -8.5t-79.5 -27.5t-60.5 -50t-51.5 -74l-223 -387h-459zM1386 0l828 1436h460l-829 -1436h-459z" />
<glyph unicode="&#xfb02;" horiz-adv-x="3368" d="M-291 0l828 1436h1468l-174 -301h-1008l-196 -340q18 12 42.5 22t58.5 16.5t82 10.5t114 4h608l-174 -301h-662q-68 0 -113.5 -8.5t-79.5 -27.5t-60.5 -50t-51.5 -74l-223 -387h-459zM1386 0l828 1436h460l-655 -1135h1049l-174 -301h-1508z" />
</font>
</defs>
</svg>
